<?xml version="1.0" encoding="UTF-8" standalone="no"?>
<svg
   xmlns:dc="http://purl.org/dc/elements/1.1/"
   xmlns:cc="http://creativecommons.org/ns#"
   xmlns:rdf="http://www.w3.org/1999/02/22-rdf-syntax-ns#"
   xmlns:svg="http://www.w3.org/2000/svg"
   xmlns="http://www.w3.org/2000/svg"
   xmlns:sodipodi="http://sodipodi.sourceforge.net/DTD/sodipodi-0.dtd"
   xmlns:inkscape="http://www.inkscape.org/namespaces/inkscape"
   version="1.1"
   id="svg2"
   xml:space="preserve"
   width="296.54666"
   height="385.33334"
   viewBox="0 0 296.54666 385.33334"
   sodipodi:docname="anime.eps"><metadata
     id="metadata8"><rdf:RDF><cc:Work
         rdf:about=""><dc:format>image/svg+xml</dc:format><dc:type
           rdf:resource="http://purl.org/dc/dcmitype/StillImage" /></cc:Work></rdf:RDF></metadata><defs
     id="defs6" /><sodipodi:namedview
     pagecolor="#ffffff"
     bordercolor="#666666"
     borderopacity="1"
     objecttolerance="10"
     gridtolerance="10"
     guidetolerance="10"
     inkscape:pageopacity="0"
     inkscape:pageshadow="2"
     inkscape:window-width="640"
     inkscape:window-height="480"
     id="namedview4" /><g
     id="g10"
     inkscape:groupmode="layer"
     inkscape:label="ink_ext_XXXXXX"
     transform="matrix(1.3333333,0,0,-1.3333333,0,385.33333)"><g
       id="g12"
       transform="scale(0.1)"><path
         d="m 109.305,1666.04 c -16.5745,-54.05 0.82,-85.43 39.781,-120.83 12.519,52.91 -4.133,84.55 -39.781,120.83 z m 894.915,945.72 c -53.064,4.82 -88.618,-22.56 -128.2,-77.35 66.644,5.49 98.476,38 128.2,77.35 z M 324.262,1192.96 c 8.984,5.01 17.968,10.01 26.953,15.01 -55.621,102.43 -111.242,204.85 -166.863,307.27 -7.551,-4.07 -15.11,-8.14 -22.668,-12.21 33.879,-114 96.543,-212.92 162.578,-310.07 z m 318.09,948.45 c 42.128,135.89 129.406,246.87 202.871,365.37 -95.254,-33.8 -227.16,-265.98 -202.871,-365.37 z m 531.438,473.9 c 26.77,17.37 44.99,29.18 67.14,43.55 4.55,-19.91 8.14,-35.59 16.12,-70.55 94.63,105.65 181.71,202.89 268.79,300.12 31.34,-127.03 0.85,-240.32 8.31,-353.12 23.63,-17.84 42.3,13.75 64.8,3.24 22.28,-22.21 0.41,-52.48 12.62,-77.9 34.9,11.42 29.72,63.03 73.37,72.9 43.46,-80.01 54.83,-170.47 94.33,-261.75 68.58,104.48 133.25,202.99 206.7,314.9 52.74,-116.99 50.89,-233.53 68.08,-345.88 18.37,-120.12 -20.17,-231.21 -61.57,-356.36 73.49,37.03 134.14,67.59 209.61,105.61 4.73,-197.86 -42.03,-374.67 -81.5,-552.99 35.77,-4.07 60.84,30.22 103.46,12.91 -56.17,-153.49 -120.08,-301.55 -207.94,-454.252 -14.05,68.122 -21.48,122.592 -36.99,174.652 -19.63,65.89 -57.02,75.02 -101.07,22.58 -43.83,-52.18 -79.44,-111.26 -121.96,-172.06 -23.24,44.69 -24.14,80.17 5.61,114.98 72.27,84.58 40.72,176.55 8.28,261.91 -21.1,55.53 -72.84,70.29 -131.65,41.01 -60.2,-29.96 -122.16,-56.4 -186.2,-85.69 -34.28,45.42 -66.51,89.33 -100.06,132.2 -28.29,36.15 -60.94,39.98 -105.93,24.52 -130.39,-44.78 -176.73,-135.85 -149.1,-279.54 -184.411,77.56 -355.895,144.2 -514.563,239.02 -81.532,48.72 -116.622,38.1 -153.543,-50.83 -32.082,-77.25 -42.641,-159.11 -47.848,-241.68 -1.566,-24.81 -1.523,-53.34 17.379,-71.14 40.566,-38.2 24.703,-75.49 2.449,-122.6 -48.379,105.06 -116.375,183.28 -198.078,259.31 -83.141,77.36 -112.3126,203.01 -161.1212,309.63 -38.86714,84.9 -46.06246,172.87 -39.63667,263.69 1.55859,22.03 0.0039,45.36 26.03517,62.06 39.0234,-15.49 50.6992,-64.17 96.7067,-89.95 -21.054,181.79 -75.6091,354.01 -41.0739,529.57 9.1719,2.32 18.3359,4.64 27.4999,6.96 34.367,-84.91 68.731,-169.83 103.098,-254.74 14.863,112.98 18.929,223.83 40.902,332.88 21.598,107.22 52.902,209.58 136.875,311.97 36.953,-138.33 68.75,-257.35 104.609,-391.57 36.067,78.43 64.844,142.33 94.739,205.69 35.219,74.65 87.558,131.6 163.539,168.49 119.035,57.78 236,119.81 353.912,179.89 15.29,7.79 29.98,19.1 55.68,9.11 16.26,-84.59 -1.74,-174.14 9.19,-270.75"
         style="fill:#040606;fill-opacity:1;fill-rule:nonzero;stroke:none"
         id="path14" /><path
         d="m 1040.73,389.879 c 42.35,-78.059 103.02,-76.059 165.18,7.781 -59.5,-8.711 -111.53,-38.898 -165.18,-7.781 z M 961.961,277.48 c 80.449,-65.57 245.079,-48.601 325.419,20.11 19.73,16.898 52.64,37.609 8.85,70.379 -89.49,-87.231 -198.37,-107.5 -334.269,-90.489 z m 77.399,349.661 C 967.98,649.84 969.27,710.359 928.441,736.988 853.141,786.09 781.063,840.219 704.867,887.82 665.063,912.68 620,929.711 576.055,947.129 553.641,956 524.398,965.602 512.066,932.73 c -12.05,-32.121 13.684,-43.968 37.829,-53.179 22.91,-8.75 46.343,-16.129 69.418,-24.063 -22.938,-75.367 36.398,-210.648 104.152,-229.008 97.539,-26.441 196.851,-28.109 315.895,0.661 z m 403.5,220.398 c 47.23,152.051 95.06,304.061 31.46,470.301 62.64,29.22 127.43,59.15 191.94,89.68 36.49,17.25 63.75,-2.49 71.71,-31.37 20.91,-75.84 50.22,-154.45 -14.58,-226.55 -20.33,-22.62 -36.83,-51.91 -24.3,-82.59 46.06,-112.76 7.53,-220.338 -16.22,-328.959 -8.52,-38.992 -24.65,-77.129 -27.68,-116.391 C 1638.59,406.141 1529.56,250.5 1351.99,135.32 1297.74,100.121 1252.36,50.0391 1195.97,19.6797 1136.17,-12.4883 1070.78,-2.85938 1009.88,31.5391 881.059,104.289 765.738,196.441 645.887,282.082 c -25.641,18.316 -36.36,46.488 -47.344,74.727 -66.145,170.113 -111.199,346.679 -160.258,522 -14.332,51.222 10.324,98.32 21.77,146.301 8.59,36 14.211,68.08 -20.043,94.73 -8.836,6.88 -17.664,20.74 -17.449,31.21 2.207,109.75 10.117,218.38 82.519,317.2 155.723,-95.82 320.801,-159.64 479.348,-236.77 102.39,-49.8 192.17,-53.24 286.3,10.98 83.21,-93.4 128.01,-194.63 130.97,-314.98 0.73,-30.109 -13.63,-75.73 42.93,-78.21 -12.74,-33.739 -48.01,-39.25 -73.05,-57.11 -66.35,-47.301 -150.17,-75.211 -174.72,-166.43 9.44,-3.23 20.99,-8.089 33,-11.179 225.78,-58.211 295.93,-19.5 360.89,202.121 5.56,18.949 9.12,29.34 29.49,35.027 23.79,6.653 51.15,18.602 37.93,51.629 -14.89,37.16 -43.75,22.063 -69.69,13.004 -50.98,-17.781 -90.87,-59.004 -145.62,-68.793"
         style="fill:#040606;fill-opacity:1;fill-rule:nonzero;stroke:none"
         id="path16" /><path
         d="m 193.859,1191.01 c 87.414,-51.37 126.77,-128.94 166.579,-226.272 -57.922,18.512 -91.211,73.842 -150.59,40.362 86.531,-37.631 153.793,-98.319 192.48,-177.748 C 439.664,750.68 456.266,663.91 482.918,578.578 257.273,605.719 74.9531,992.469 193.859,1191.01"
         style="fill:#040606;fill-opacity:1;fill-rule:nonzero;stroke:none"
         id="path18" /><path
         d="m 1690.35,577.461 c 28.4,183.719 62.72,355.898 264.01,453.019 -85.8,23.66 -109.71,-38.23 -164.78,-51.5 38.5,77.35 75.12,146.07 132.87,204.97 122.97,-232.29 12.05,-525.36 -232.1,-606.489"
         style="fill:#040606;fill-opacity:1;fill-rule:nonzero;stroke:none"
         id="path20" /><path
         d="m 1437.02,1028.83 c -64.21,141.78 -119.24,295.76 -284.98,374.84 24.99,35.73 75.93,53.56 124.81,73.38 22.63,9.17 37.29,-7.55 50.04,-23.7 100.88,-127.83 198.05,-256.63 110.13,-424.52"
         style="fill:#040606;fill-opacity:1;fill-rule:nonzero;stroke:none"
         id="path22" /><path
         d="m 1131.66,1226.47 c 19.43,52.03 31.28,83.79 43.72,117.13 42.3,-7.6 56.12,-39.25 81.4,-68.93 -40.59,-15.63 -73.63,-28.37 -125.12,-48.2"
         style="fill:#040606;fill-opacity:1;fill-rule:nonzero;stroke:none"
         id="path24" /><path
         d="m 788.387,753.352 c 54.812,6.398 95.191,-17.301 126.203,-60.524 l 0.945,1.942 c -55.558,-9.719 -101.984,0.05 -125.472,58.781 l -1.676,-0.199"
         style="fill:#040606;fill-opacity:1;fill-rule:nonzero;stroke:none"
         id="path26" /><path
         d="m 790.063,753.551 c 0.917,4.109 1.839,8.211 2.761,12.328 1.555,-0.539 3.106,-1.078 4.66,-1.617 -2.867,-3.614 -5.734,-7.223 -8.847,-10.883 -0.25,-0.027 1.426,0.172 1.426,0.172"
         style="fill:#040606;fill-opacity:1;fill-rule:nonzero;stroke:none"
         id="path28" /><path
         d="m 914.59,692.828 c 3.344,1.281 6.687,2.551 10.031,3.832 0.617,-2.121 1.231,-4.23 1.848,-6.34 -3.606,1.551 -7.211,3.11 -10.875,4.571 -0.059,-0.121 -1.004,-2.063 -1.004,-2.063"
         style="fill:#040606;fill-opacity:1;fill-rule:nonzero;stroke:none"
         id="path30" /><path
         d="m 1294.66,702.391 c 49.11,28.179 80.7,53.55 135.59,55.531 -23.36,-66.582 -66.86,-69.063 -135.59,-55.531"
         style="fill:#040606;fill-opacity:1;fill-rule:nonzero;stroke:none"
         id="path32" /></g></g></svg>
