<?xml version="1.0" encoding="UTF-8" standalone="no"?>
<svg
   xmlns:dc="http://purl.org/dc/elements/1.1/"
   xmlns:cc="http://creativecommons.org/ns#"
   xmlns:rdf="http://www.w3.org/1999/02/22-rdf-syntax-ns#"
   xmlns:svg="http://www.w3.org/2000/svg"
   xmlns="http://www.w3.org/2000/svg"
   xmlns:sodipodi="http://sodipodi.sourceforge.net/DTD/sodipodi-0.dtd"
   xmlns:inkscape="http://www.inkscape.org/namespaces/inkscape"
   version="1.1"
   id="svg2"
   xml:space="preserve"
   width="413.65332"
   height="496.73334"
   viewBox="0 0 413.65332 496.73334"
   sodipodi:docname="avatar.eps"><metadata
     id="metadata8"><rdf:RDF><cc:Work
         rdf:about=""><dc:format>image/svg+xml</dc:format><dc:type
           rdf:resource="http://purl.org/dc/dcmitype/StillImage" /></cc:Work></rdf:RDF></metadata><defs
     id="defs6" /><sodipodi:namedview
     pagecolor="#ffffff"
     bordercolor="#666666"
     borderopacity="1"
     objecttolerance="10"
     gridtolerance="10"
     guidetolerance="10"
     inkscape:pageopacity="0"
     inkscape:pageshadow="2"
     inkscape:window-width="640"
     inkscape:window-height="480"
     id="namedview4" /><g
     id="g10"
     inkscape:groupmode="layer"
     inkscape:label="ink_ext_XXXXXX"
     transform="matrix(1.3333333,0,0,-1.3333333,0,496.73333)"><g
       id="g12"
       transform="scale(0.1)"><path
         d="m 1577.79,448.199 c 58.73,4.36 117.24,13.063 175.08,26.09 v 0 c 11.11,2.563 22.62,5.109 33.74,8.102 l 17.68,4.687 c 85.76,22.762 168.88,55.184 247.85,96.66 l -5.25,22.403 h 1.55 c 0,1.918 0,3.839 0,5.98 0,2.129 -1.03,4.27 -1.44,6.399 h -2.31 c -6.51,36.082 -13.95,75.949 -22.29,118.839 h 1.56 v 0 c -0.62,2.981 -1.23,5.969 -1.64,8.961 h 1.02 c -0.41,1.192 -0.75,2.399 -1.02,3.629 h -2.28 c -7.42,37.75 -15.6,77.492 -24.17,118.84 h 1.97 v 0 c -1.23,4.051 -2.05,7.262 -3.08,12.59 h 1.03 -2.58 c -0.04,0.141 -0.07,0.281 -0.1,0.43 -7.83,38.05 -16.31,77.679 -25.18,118.421 h 1.32 l -3.08,12.37 h -0.94 c -0.03,0.14 -0.06,0.28 -0.09,0.43 -8.58,38.55 -17.57,77.95 -26.96,118.19 h 1.66 v 0 c -0.82,3.42 -1.45,6.41 -2.27,9.82 l -0.61,-0.42 c 0,1.06 0,2.12 0,3.4 h -1.03 c 0,0.28 0,0.57 0,0.86 -9.02,38.69 -18.45,78.23 -28.28,117.99 h 0.71 l -3.9,12.8 h -0.1 l -0.11,0.43 c -9.88,39.11 -19.56,78.84 -30.01,118.78 l 0.19,1.99 h -0.62 c -1.02,3.4 -1.65,6.61 -2.47,10.23 h -0.2 c 0,0.14 0,0.29 0,0.43 -10.49,39.47 -20.98,79.16 -32.3,118.85 -0.02,0.07 -0.04,0.13 -0.06,0.2 h 0.47 c -0.51,1.91 -0.92,3.82 -1.23,5.76 h -0.61 l -1.1,3.66 c -11.22,40.6 -23,81.19 -34.98,121.17 h 0.29 c 0,4.47 -2.27,8.32 -3.5,12.79 h -0.62 -0.08 c -0.04,0.14 -0.08,0.29 -0.12,0.43 -11.73,40.12 -24.28,79.81 -36.61,118.85 -0.05,0.14 -0.09,0.28 -0.14,0.42 h 1.37 c -1.8,3.74 -3.37,7.59 -4.73,11.52 h -0.35 c -2.29,7.05 -4.58,14.04 -6.88,20.97 133.99,-74.79 270.59,-144.48 409.55,-208.94 l 19.13,96.82 c 139.6,-41.52 264.09,-64.93 356.1,-64.93 55.81,0 99.63,8.6 127.68,27 24.43,16.03 51.23,50.51 78.9,97.81 5.56,-242.39 -54.34,-489.12 -186.41,-710.73 C 2453.03,888.238 2314.21,744.25 2149.43,638.57 1973.24,525.711 1776.78,462.25 1577.79,448.199 M 705.109,735.031 c -0.921,0.778 -1.839,1.551 -2.761,2.328 h 0.007 c 0.918,-0.777 1.836,-1.55 2.754,-2.328 M 496.336,959.082 C 194.684,1373.23 151.707,1953.47 430.652,2421.49 c 167.809,281.56 422.789,473.16 706.388,560.49 0.36,-6.69 0.78,-13.48 1.27,-20.32 13.01,-185.82 71.36,-419.84 143.54,-487.53 72.75,-68.91 168.39,-107.65 260.71,-107.66 96.92,-0.01 190.18,42.67 249.59,137.95 60.04,96.33 57.47,302.49 24.54,487.26 114.6,-31.96 226.62,-81.52 332.74,-149.58 87.39,-56.05 165.76,-121.43 234.72,-194.19 -35.45,-167.58 -67.87,-398.14 -87.45,-428.53 -2.02,-3.2 -8.46,-5.32 -18.68,-6.52 l 7.99,40.44 c 0,0 -454.32,77.87 -751.25,77.87 -2.3,0 -4.57,0 -6.85,-0.01 -0.35,0.51 -0.72,1.01 -1.09,1.51 -16.93,25.58 -97.71,47.71 -187.87,47.71 -73,0 -152.16,-14.52 -208.49,-53.47 l -2.26,-1.49 c -4.11,-2.78 -7.61,-5.55 -11.31,-8.54 l -3.09,-2.56 c -7.32,-6.61 -14.19,-13.74 -20.57,-21.34 -26.31,-31.31 -51.8,-64.08 -76.1,-97.5 h -0.21 l -2.67,-3.42 c -2.29,-2.93 -4.42,-5.99 -6.37,-9.17 h 0.11 c -0.18,-0.29 -0.35,-0.57 -0.53,-0.85 -27.667,-38.27 -54.319,-77.82 -79.538,-118.21 h -0.266 c -1.621,-2.8 -3.332,-5.61 -4.957,-8.41 -0.972,-1.6 -1.933,-3.21 -2.859,-4.81 -23.895,-38.35 -46.574,-77.75 -68.235,-117.57 h -0.257 l -3.907,-7.46 c -0.875,-1.44 -1.671,-2.92 -2.386,-4.45 -0.317,-0.64 -0.617,-1.3 -0.907,-1.96 -20.832,-38.83 -40.785,-78.17 -59.859,-117.99 h -0.203 c -1.852,-3.62 -3.699,-7.67 -5.348,-11.52 h 0.164 c -0.125,-0.29 -0.246,-0.57 -0.367,-0.85 -18.719,-39.47 -36.613,-78.95 -53.687,-118.84 l -0.004,-0.01 h -0.199 c -1.852,-4.27 -3.704,-8.32 -5.348,-12.79 h 0.203 c -16.66,-39.69 -32.703,-78.95 -47.719,-118.63 v 0 h -0.203 c -1.648,-4.06 -3.09,-8.11 -4.734,-11.96 h 0.418 c -15.02,-39.89 -29.004,-79.58 -42.578,-118.83 -0.075,-0.22 -0.149,-0.43 -0.219,-0.65 h -0.402 c -1.442,-4.27 -3.086,-8.54 -4.524,-12.37 h 0.606 c -13.497,-39.9 -26.176,-79.58 -38.247,-118.42 -0.074,-0.21 -0.148,-0.42 -0.222,-0.64 h -0.399 c -1.55,-4.18 -2.855,-8.45 -3.906,-12.8 h 0.625 c -12.469,-39.68 -23.719,-79.36 -34.355,-117.77 -0.082,-0.36 -0.168,-0.72 -0.254,-1.08 h -0.571 c -1.023,-4.47 -2.464,-8.53 -3.496,-12.8 h 0.555 c -10.207,-40.37 -21,-79.49 -30.582,-117.99 -0.055,-0.21 -0.109,-0.42 -0.16,-0.63 h -0.871 c 0,-4.05 -1.852,-8.32 -2.883,-12.37 h 0.684 c -3.18,-13.98 -6.547,-27.57 -9.727,-41.148"
         style="fill:#ffffff;fill-opacity:1;fill-rule:nonzero;stroke:none"
         id="path14" /><path
         d="m 1442.28,2039.51 c 463.2,-282.7 1069.57,-466.2 1220.14,-367.41 150.55,98.79 390.8,897.4 371.87,1087.08 -7.81,81.93 -544.45,125.67 -597.93,57.61 -53.47,-68.06 -110.65,-552.4 -139.66,-597.41 -20.56,-32.44 -494.67,45.86 -791.27,76.8 -189.23,20.06 -307.5,-107.53 -63.15,-256.67"
         style="fill:#f8d0be;fill-opacity:1;fill-rule:nonzero;stroke:none"
         id="path16" /><path
         d="m 3028.32,2651.01 c 18.32,81.92 82.28,505.67 73.24,615.55 -9.06,109.88 -55.34,424.16 -137,426.72 -81.66,2.56 -75.28,-91.32 -75.28,-91.32 0,0 -39.9,129.52 -122.38,123.33 -82.48,-6.19 -67.67,-149.36 -67.67,-149.36 0,0 -50.4,129.73 -132.25,117.78 -81.87,-11.95 -43.4,-154.91 -43.4,-154.91 0,0 -41.14,120.98 -104.08,81.51 -76.31,-47.36 23.03,-261.58 23.85,-384.05 0,-27.74 -35.57,-561.79 -35.57,-561.79 l 620.54,-23.46"
         style="fill:#f8d0be;fill-opacity:1;fill-rule:nonzero;stroke:none"
         id="path18" /><path
         d="m 2521.52,3549.05 c 72.81,-157.68 78.37,-239.6 59.03,-410.51 0,-3.42 4.32,-4.7 4.93,-1.28 33.74,165.57 41.15,269.47 -56.76,415.84 -5.77,7.26 -11.72,3.63 -7.2,-4.05"
         style="fill:#1f2a31;fill-opacity:1;fill-rule:nonzero;stroke:none"
         id="path20" /><path
         d="m 2693.27,3585.75 c 61.7,-170.7 68.49,-259.66 61.7,-440.17 0,-1.3 1.01,-2.35 2.26,-2.35 1.25,0 2.27,1.05 2.27,2.35 21.59,176.45 26.73,280.36 -56.57,442.51 -4.73,7.47 -12.54,5.98 -9.66,-2.34"
         style="fill:#1f2a31;fill-opacity:1;fill-rule:nonzero;stroke:none"
         id="path22" /><path
         d="m 2888.67,3591.93 c 48.34,-170.68 59.85,-266.91 30.64,-441.23 -0.39,-1.77 0.66,-3.54 2.37,-3.95 1.7,-0.41 3.4,0.69 3.8,2.46 46.28,174.74 32.91,296.14 -31.67,443.58 -4.32,10.24 -8.23,9.81 -5.14,-0.86"
         style="fill:#1f2a31;fill-opacity:1;fill-rule:nonzero;stroke:none"
         id="path24" /><path
         d="m 2393.58,2563.96 c 0,0 -124.86,176.66 -163.11,266.91 -38.26,90.26 -61.71,480.71 19.13,490.73 104.69,13.02 161.05,-209.52 174.84,-322.39 0,0 242.09,30.3 315.93,-120.55 73.83,-150.84 -346.79,-314.7 -346.79,-314.7"
         style="fill:#f8d0be;fill-opacity:1;fill-rule:nonzero;stroke:none"
         id="path26" /><path
         d="m 2279.43,3315.41 c 102.84,-59.52 112.71,-208.87 134.1,-317.27 0.95,-5.57 6.06,-9.29 11.44,-8.32 1.03,0.2 2.04,0.56 2.96,1.07 102.85,5.76 248.06,-17.07 314.5,-106.68 0.86,-1.09 2.42,-1.25 3.47,-0.36 0.89,0.76 1.16,2.06 0.64,3.13 -58.83,104.98 -200.34,139.54 -311.82,125.89 -20.58,111.59 -35.79,260.94 -154.68,302.54 -0.82,1.29 -1.23,0.43 -0.61,0"
         style="fill:#1f2a31;fill-opacity:1;fill-rule:nonzero;stroke:none"
         id="path28" /><path
         d="m 2159.51,1613.21 126.5,640.09 c 0,0 -481.72,82.57 -777.29,77.66 -295.57,-4.9 -393.27,-123.11 -22.22,-353.11 217.01,-135.58 441.76,-257.36 673.01,-364.64"
         style="fill:#3c515c;fill-opacity:1;fill-rule:nonzero;stroke:none"
         id="path30" /><path
         d="m 2166.5,2243.48 c -24.95,-88.05 -47.72,-176.8 -68.28,-266.27 -10.08,-43.96 -20.57,-87.9 -30.24,-132.29 -9.67,-44.37 -16.25,-92.17 -26.12,-137.83 0,-3.2 4.11,-4.7 4.93,-1.49 10.91,43.74 24.69,86.83 36,130.57 11.32,43.74 20.56,90.69 31.88,135.92 20.71,89.61 39.29,179.72 55.74,270.33 0.08,1.17 -0.78,2.19 -1.91,2.27 l -2,-1.21"
         style="fill:#1f2a31;fill-opacity:1;fill-rule:nonzero;stroke:none"
         id="path32" /><path
         d="m 2052.14,583.738 c -78.97,-41.476 -162.09,-73.898 -247.85,-96.66 l -17.68,-4.687 c -11.12,-2.993 -22.63,-5.539 -33.74,-8.102 -173.84,-39.168 -353.75,-39.168 -527.59,0 -16.86,3.84 -33.73,8.102 -50.39,12.789 -100.02,27.024 -196.355,67.024 -286.726,119.063 -7.199,3.839 -14.191,7.89 -20.566,12.379 -11.11,6.609 -22.219,13.652 -33.532,21.332 -46.175,29.668 -90.425,62.468 -132.461,98.148 -5.14,3.84 -10.078,8.102 -15.015,12.59 -42.176,36.84 -81.961,76.551 -119.09,118.84 l -11.109,12.59 c -20.977,24.609 -41.067,49.992 -60.262,76.171 3.289,14.09 6.785,28.168 10.074,42.669 1.238,4.05 2.059,8.32 3.09,12.37 9.668,38.84 20.566,78.31 30.852,119.07 1.027,4.26 2.468,8.32 3.496,12.8 10.695,38.61 22.007,78.51 34.554,118.41 0.957,4.26 2.196,8.53 3.703,12.8 12.133,39.05 24.887,78.94 38.461,119.06 1.239,3.84 2.883,8.11 4.325,12.38 13.574,39.25 27.558,78.94 42.578,118.83 1.433,3.85 2.875,7.9 4.519,11.96 15.016,39.68 31.059,78.94 47.719,118.63 1.645,4.47 3.496,8.53 5.348,12.8 17.074,39.89 34.968,79.37 53.687,118.84 1.645,3.84 3.496,7.89 5.348,11.52 19.195,40.11 39.285,79.73 60.265,118.84 0.836,1.92 1.797,3.77 2.879,5.55 l 4.114,7.47 c 21.8,40.11 44.636,79.8 68.699,118.42 2.469,4.26 5.14,8.53 7.816,12.8 25.297,40.54 52.039,80.22 79.804,118.63 1.96,3.18 4.09,6.24 6.38,9.17 l 2.67,3.41 c 24.48,33.72 50.19,66.79 76.72,98.36 6.38,7.6 13.25,14.73 20.57,21.34 l 3.09,2.56 c 3.7,2.99 7.2,5.76 11.31,8.54 l 2.26,1.49 c 125.88,87.05 365.71,52.06 396.36,5.76 1.37,-1.82 2.61,-3.74 3.7,-5.76 l 4.12,-6.19 c 25.38,-40.38 48.46,-82.27 69.1,-125.46 20.57,-40.53 39.09,-85.34 58.01,-131.21 17.07,-41.61 33.53,-85.35 49.78,-130.8 0,-2.34 1.64,-4.47 2.25,-6.61 0.97,-2.04 1.73,-4.19 2.27,-6.39 15.22,-42.68 30.03,-85.36 44.64,-131.01 12.33,-39.04 24.88,-78.73 36.61,-118.85 1.23,-4.48 2.67,-8.32 3.9,-12.8 12.35,-41.17 24.48,-83 36,-124.82 0.42,-2.16 0.98,-4.3 1.64,-6.39 11.32,-39.69 21.81,-79.38 32.3,-118.85 0,-3.62 1.44,-6.83 2.47,-10.24 10.69,-40.76 20.56,-81.29 30.64,-121.19 l 3.29,-12.8 c 9.88,-39.9 19.34,-79.59 28.39,-118.42 0,-1.28 0,-2.34 0,-3.41 0,-1.07 1.44,-6.19 2.05,-9.39 9.47,-40.54 18.52,-80.22 27.16,-119.05 9.87,-45.241 19.33,-89.19 27.97,-131.221 1.03,-4.489 1.85,-8.539 2.68,-12.59 8.83,-42.68 17.27,-83.637 24.88,-122.469 0,-2.988 0,-5.98 1.65,-8.969 8.84,-45.441 16.66,-87.48 23.45,-125.242 0,-2.129 0,-4.047 1.02,-5.969 l 5.35,-22.832"
         style="fill:#ee3f3e;fill-opacity:1;fill-rule:nonzero;stroke:none"
         id="path34" /><path
         d="m 2048.44,606.141 h -1.55 l -0.1,0.429 c -1.02,1.922 -1.02,3.84 -1.02,5.969 -0.36,1.981 -0.72,3.973 -1.08,5.981 h 2.31 c 0.41,-2.129 1.44,-4.27 1.44,-6.399 0,-2.141 0,-4.062 0,-5.98"
         style="fill:#dedfdd;fill-opacity:1;fill-rule:nonzero;stroke:none"
         id="path36" /><path
         d="m 888.164,606.141 h -0.82 c -6.379,3.839 -13.371,7.89 -20.574,12.379 h 0.828 c 6.375,-4.489 13.367,-8.54 20.566,-12.379 v 0"
         style="fill:#dfdfdd;fill-opacity:1;fill-rule:nonzero;stroke:none"
         id="path38" /><path
         d="m 2023.96,737.359 h -1.56 c -0.03,0.153 -0.05,0.282 -0.08,0.422 -1.65,2.989 -1.65,5.981 -1.65,8.969 -0.21,1.07 -0.42,2.129 -0.63,3.199 h 2.28 c 0.27,-1.23 0.61,-2.437 1.02,-3.629 h -1.02 c 0.41,-2.992 1.02,-5.98 1.64,-8.961"
         style="fill:#dedfdd;fill-opacity:1;fill-rule:nonzero;stroke:none"
         id="path40" /><path
         d="m 702.348,737.359 h -1.563 c -5.14,3.84 -10.078,8.11 -15.015,12.59 h 1.523 c 4.684,-4.23 9.375,-8.258 14.25,-11.91 0.254,-0.207 0.551,-0.457 0.805,-0.68"
         style="fill:#dfdfdd;fill-opacity:1;fill-rule:nonzero;stroke:none"
         id="path42" /><path
         d="m 702.355,737.359 h -0.007 c -0.254,0.223 -0.551,0.473 -0.805,0.68 0.023,-0.008 0.043,-0.027 0.062,-0.039 0.25,-0.211 0.5,-0.43 0.75,-0.641 m 1295.485,131.43 h -1.97 c -0.03,0.141 -0.06,0.293 -0.08,0.43 -0.8,3.922 -1.6,7.851 -2.58,12.16 h 2.58 -1.03 c 1.03,-5.328 1.85,-8.539 3.08,-12.59"
         style="fill:#dedfdd;fill-opacity:1;fill-rule:nonzero;stroke:none"
         id="path44" /><path
         d="m 568.066,868.789 h -0.976 l -11.11,12.59 h 0.981 L 567.5,869.43 c 0.188,-0.211 0.379,-0.43 0.566,-0.641 m -90.449,6.191 c 0,2 0,4.008 1.196,6.012 -0.208,-2.043 -0.61,-4.051 -1.196,-6.012 m 1.196,6.012 c 0.011,0.129 0.023,0.258 0.035,0.387 h 0.211 c -0.09,-0.129 -0.172,-0.258 -0.246,-0.387"
         style="fill:#dfdfdd;fill-opacity:1;fill-rule:nonzero;stroke:none"
         id="path46" /><path
         d="m 1969.25,1000.23 h -1.32 c -0.89,4.11 -1.79,8.23 -2.7,12.37 h 0.94 l 3.08,-12.37 m -1463.187,0 h -0.684 c 1.031,4.05 2.883,8.32 2.883,12.37 h 0.871 c -0.957,-3.86 -1.754,-7.9 -2.93,-11.74 -0.047,-0.21 -0.094,-0.42 -0.14,-0.63 m 1433.777,130.99 h -1.66 c -0.06,0.29 -0.13,0.57 -0.2,0.86 -0.61,3.2 -2.05,8.32 -2.05,9.39 0,0.82 0,1.64 0,2.55 h 1.03 c 0,-1.28 0,-2.34 0,-3.4 l 0.61,0.42 c 0.82,-3.41 1.45,-6.4 2.27,-9.82 m -1399.965,0 h -0.555 c 1.032,4.27 2.473,8.33 3.496,12.8 h 0.571 c -1.004,-4.06 -2.297,-7.8 -3.242,-11.72 -0.09,-0.36 -0.18,-0.72 -0.27,-1.08 m 1368.485,131.65 h -0.71 c -0.04,0.15 -0.07,0.29 -0.11,0.43 l -3.18,12.37 h 0.1 l 3.9,-12.8 m -1330.364,0 h -0.625 c 1.051,4.35 2.356,8.62 3.906,12.8 h 0.399 c -1.406,-4.05 -2.571,-8.11 -3.481,-12.16 -0.062,-0.22 -0.132,-0.43 -0.199,-0.64 m 42.149,131.86 h -0.606 c 1.438,3.83 3.082,8.1 4.524,12.37 h 0.402 c -1.391,-4.05 -2.934,-8.08 -4.106,-11.73 -0.07,-0.21 -0.144,-0.43 -0.214,-0.64 m 1254.095,0.15 c -0.21,0.8 -0.42,1.6 -0.63,2.41 -0.99,3.28 -2.36,6.36 -2.47,9.81 h 0.2 c 0.82,-3.62 1.45,-6.83 2.47,-10.23 h 0.62 l -0.19,-1.99 m -34.99,131.7 h -0.47 c -0.64,2.03 -1.17,4.1 -1.58,6.19 -0.3,1.08 -0.59,2.15 -0.89,3.23 l 1.1,-3.66 h 0.61 c 0.31,-1.94 0.72,-3.85 1.23,-5.76 m -1171.988,0 h -0.418 c 1.644,3.85 3.086,7.9 4.734,11.96 h 0.203 c -1.644,-4.06 -3.086,-8.11 -4.519,-11.96 v 0 m 1134.358,130.59 h -0.29 c -0.04,0.14 -0.08,0.28 -0.13,0.42 -1.19,4.34 -2.58,8.07 -3.78,12.37 h 0.08 0.62 c 1.23,-4.47 3.5,-8.32 3.5,-12.79 m -1082.12,0 h -0.203 c 1.644,4.47 3.496,8.52 5.348,12.79 h 0.199 c -1.852,-4.26 -3.699,-8.32 -5.344,-12.79 v 0 m 1042.42,132.49 h -1.37 c -1.23,3.86 -2.47,7.7 -3.71,11.52 h 0.35 c 1.36,-3.93 2.93,-7.78 4.73,-11.52 m -983.018,0 h -0.164 c 1.649,3.85 3.496,7.9 5.348,11.52 h 0.203 c -0.137,-0.28 -0.273,-0.56 -0.406,-0.85 -1.715,-3.36 -3.43,-7.09 -4.981,-10.67"
         style="fill:#dedfdd;fill-opacity:1;fill-rule:nonzero;stroke:none"
         id="path48" /><path
         d="m 1716.87,1920.03 h -0.74 c -0.03,0.07 -0.06,0.14 -0.08,0.22 -0.52,2.12 -1.25,4.2 -2.17,6.18 h 0.73 c 0.97,-2.04 1.72,-4.19 2.26,-6.4"
         style="fill:#354852;fill-opacity:1;fill-rule:nonzero;stroke:none"
         id="path50" /><path
         d="m 845.055,1921.13 c 0.715,1.53 1.511,3.01 2.386,4.45 l 3.907,7.46 h 0.257 c -0.156,-0.29 -0.308,-0.57 -0.464,-0.85 l -4.114,-7.47 c -0.711,-1.17 -1.367,-2.36 -1.972,-3.59"
         style="fill:#dedfdd;fill-opacity:1;fill-rule:nonzero;stroke:none"
         id="path52" /><path
         d="m 1713.78,1926.66 c -0.6,2.06 -2.15,4.12 -2.25,6.36 0.79,-2.25 2.15,-4.3 2.25,-6.36 m -46.48,124.37 h -0.25 c -1.73,4.29 -3.47,8.56 -5.21,12.8 h 0.73 c 1.44,-4.05 3.29,-8.32 4.73,-12.8"
         style="fill:#354852;fill-opacity:1;fill-rule:nonzero;stroke:none"
         id="path54" /><path
         d="m 922.699,2055.42 c 1.625,2.8 3.336,5.61 4.957,8.41 h 0.266 c -0.09,-0.14 -0.18,-0.28 -0.266,-0.42 -1.672,-2.66 -3.34,-5.33 -4.957,-7.99"
         style="fill:#dedfdd;fill-opacity:1;fill-rule:nonzero;stroke:none"
         id="path56" /><path
         d="m 1610.12,2182.89 h -0.22 c -2.03,4.16 -4.08,8.29 -6.16,12.37 -0.03,0.08 -0.06,0.15 -0.1,0.22 h 0.72 c 1.85,-4.06 3.7,-8.33 5.76,-12.59"
         style="fill:#354852;fill-opacity:1;fill-rule:nonzero;stroke:none"
         id="path58" /><path
         d="m 1007.99,2182.89 h -0.11 c 1.95,3.18 4.08,6.24 6.37,9.17 l 2.67,3.42 h 0.21 c -0.2,-0.28 -0.41,-0.57 -0.62,-0.86 l -2.67,-3.41 c -2.08,-2.67 -4.04,-5.45 -5.85,-8.32"
         style="fill:#dedfdd;fill-opacity:1;fill-rule:nonzero;stroke:none"
         id="path60" /><path
         d="m 1539.16,2314.53 h -0.66 c -1.28,2.07 -2.57,4.13 -3.86,6.19 l -0.14,0.21 h 0.75 c 1.14,-2.23 2.44,-4.38 3.91,-6.4"
         style="fill:#354852;fill-opacity:1;fill-rule:nonzero;stroke:none"
         id="path62" /><path
         d="m 1752.87,474.289 h -527.59 v 0 c -16.86,3.84 -33.73,8.102 -50.39,12.789 h 629.4 l -17.68,-4.687 c -11.12,-2.993 -22.63,-5.539 -33.74,-8.102 v 0 m 294.02,131.852 H 888.164 v 0 c -7.199,3.839 -14.191,7.89 -20.566,12.379 H 2044.69 c 0.36,-2.008 0.72,-4 1.08,-5.981 0,-2.129 0,-4.047 1.02,-5.969 l 0.1,-0.429 M 2022.4,737.359 H 702.355 c -0.25,0.211 -0.5,0.43 -0.75,0.641 -0.019,0.012 -0.039,0.031 -0.062,0.039 -4.875,3.652 -9.566,7.68 -14.25,11.91 H 2020.04 c 0.21,-1.07 0.42,-2.129 0.63,-3.199 0,-2.988 0,-5.98 1.65,-8.969 0.03,-0.14 0.05,-0.269 0.08,-0.422 m -26.53,131.43 H 568.066 c -0.187,0.211 -0.378,0.43 -0.566,0.641 l -10.539,11.949 H 1993.21 c 0.98,-4.309 1.78,-8.238 2.58,-12.16 0.02,-0.137 0.05,-0.289 0.08,-0.43 m -27.94,131.441 H 506.063 c 0.046,0.21 0.093,0.42 0.14,0.63 1.176,3.84 1.973,7.88 2.93,11.74 H 1965.23 c 0.91,-4.14 1.81,-8.26 2.7,-12.37 m -29.75,130.99 H 539.875 c 0.09,0.36 0.18,0.72 0.27,1.08 0.945,3.92 2.238,7.66 3.242,11.72 H 1935.93 c 0,-0.91 0,-1.73 0,-2.55 0,-1.07 1.44,-6.19 2.05,-9.39 0.07,-0.29 0.14,-0.57 0.2,-0.86 m -30.53,131.65 H 577.996 c 0.067,0.21 0.137,0.42 0.199,0.64 0.91,4.05 2.075,8.11 3.481,12.16 H 1904.36 l 3.18,-12.37 c 0.04,-0.14 0.07,-0.28 0.11,-0.43 m -33.43,131.86 H 620.145 c 0.07,0.21 0.144,0.43 0.214,0.64 1.172,3.65 2.715,7.68 4.106,11.73 H 1871.14 c 0.11,-3.45 1.48,-6.53 2.47,-9.81 0.21,-0.81 0.42,-1.61 0.63,-2.41 l -0.02,-0.15 m -35.44,131.85 H 667.262 v 0 c 1.433,3.85 2.875,7.9 4.519,11.96 H 1835.55 l 0.76,-2.54 c 0.3,-1.08 0.59,-2.15 0.89,-3.23 0.41,-2.09 0.94,-4.16 1.58,-6.19 m -37.45,130.59 H 719.5 v 0 c 1.645,4.47 3.492,8.53 5.344,12.79 H 1797.42 c 1.2,-4.3 2.59,-8.03 3.78,-12.37 0.05,-0.14 0.09,-0.28 0.13,-0.42 m -40.78,132.49 H 778.902 c 1.551,3.58 3.266,7.31 4.981,10.67 0.133,0.29 0.269,0.57 0.406,0.85 h 972.071 0.48 c 1.24,-3.82 2.48,-7.66 3.71,-11.52 m -44.42,130.37 H 844.559 c 0.164,0.37 0.328,0.74 0.496,1.1 0.605,1.23 1.261,2.42 1.972,3.59 l 4.114,7.47 c 0.156,0.28 0.308,0.56 0.464,0.85 h 859.925 c 0,-0.01 0,-0.01 0,-0.02 0.1,-2.24 1.65,-4.3 2.25,-6.36 0,-0.08 0,-0.16 0,-0.23 h 0.1 c 0.92,-1.98 1.65,-4.06 2.17,-6.18 0.02,-0.08 0.05,-0.15 0.08,-0.22 m -49.08,131 H 920.254 c 0.773,1.46 1.598,2.93 2.445,4.39 1.617,2.66 3.285,5.33 4.957,7.99 0.086,0.14 0.176,0.28 0.266,0.42 h 733.828 0.09 c 1.74,-4.24 3.48,-8.51 5.21,-12.8 m -57.15,131.86 h -601.91 c 1.81,2.87 3.77,5.65 5.85,8.32 l 2.67,3.41 c 0.21,0.29 0.42,0.58 0.62,0.86 h 586.41 0.1 c 0.04,-0.07 0.07,-0.14 0.1,-0.22 2.08,-4.08 4.13,-8.21 6.16,-12.37 m -71.4,131.64 h -424.29 l 3.09,2.57 c 3.7,2.98 7.2,5.75 11.31,8.53 l 2.26,1.49 h 399.45 l 4.11,-6.19 h 0.07 l 0.14,-0.21 c 1.29,-2.06 2.58,-4.12 3.86,-6.19"
         style="fill:#d13b3a;fill-opacity:1;fill-rule:nonzero;stroke:none"
         id="path64" /><path
         d="m 1503.58,1990.43 c -97.09,-18.13 -253.82,142.96 -312.65,269.7 -3.9,8.53 13.17,96.86 28.8,205.25 9.46,65.71 18.31,139.33 21.8,206.96 l 403.77,-125.67 c -27.7,-83.28 -45.45,-169.77 -52.87,-257.53 -0.26,-9.34 0.23,-18.69 1.44,-27.95 0.12,-1.49 0.12,-2.99 0,-4.48 5.97,-53.34 3.5,-248.57 -90.29,-266.28"
         style="fill:#f8d0be;fill-opacity:1;fill-rule:nonzero;stroke:none"
         id="path66" /><path
         d="m 1594.49,2256.71 c 0,-2.98 0,-6.19 0,-9.81 -245.38,53.76 -321.08,182.64 -364.48,301.26 4.94,41.61 9.06,83.86 10.91,124.18 l 403.76,-125.45 c -27.68,-83.35 -45.36,-169.92 -52.66,-257.75 -0.46,-9.34 0.02,-18.71 1.44,-27.95 0.16,-1.53 0.51,-3.04 1.03,-4.48"
         style="fill:#1f2a31;fill-opacity:1;fill-rule:nonzero;stroke:none"
         id="path68" /><path
         d="m 1148.97,3156.89 c -45.04,-150.43 29.83,-586.11 132.88,-682.76 149.12,-141.25 394.3,-155.76 510.3,30.29 112.51,180.51 5.15,746.77 -109.83,835.11 -168.66,129.93 -466.91,39.68 -533.35,-182.64"
         style="fill:#f8d0be;fill-opacity:1;fill-rule:nonzero;stroke:none"
         id="path70" /><path
         d="m 1493.09,2881.65 c 0,0 -2.06,-1.92 -1.86,-2.99 5.77,-29.23 7.82,-64.01 -16.25,-78.09 v -1.49 c 31.89,11.1 28.8,56.97 18.11,82.57"
         style="fill:#1f2a31;fill-opacity:1;fill-rule:nonzero;stroke:none"
         id="path72" /><path
         d="m 1463.47,2908.75 c -46.28,-4.48 -33.94,-99.86 8.84,-95.59 42.79,4.27 29.83,99.43 -8.84,95.59"
         style="fill:#1f2a31;fill-opacity:1;fill-rule:nonzero;stroke:none"
         id="path74" /><path
         d="m 1669.97,2909.82 c 0,1.27 2.48,0 2.68,-2.14 2.88,-29.66 10.9,-64.01 38.06,-69.55 v -1.5 c -32.5,0.22 -42.58,45.02 -40.74,73.19"
         style="fill:#1f2a31;fill-opacity:1;fill-rule:nonzero;stroke:none"
         id="path76" /><path
         d="m 1691.58,2944.16 c 45.24,10.04 61.7,-85.34 19.13,-93.87 -42.58,-8.54 -57.19,85.55 -19.13,93.87"
         style="fill:#1f2a31;fill-opacity:1;fill-rule:nonzero;stroke:none"
         id="path78" /><path
         d="m 1421.51,2947.36 c 11.61,5.34 22.95,11.32 33.94,17.93 12.8,4.6 23.79,13.45 31.26,25.17 3.06,8.52 0.58,18.11 -6.17,23.9 -15.48,8.92 -34.41,8.35 -49.36,-1.49 -16.23,-7.34 -29.27,-20.64 -36.62,-37.34 -4.55,-10.8 0.2,-23.38 10.61,-28.1 5.2,-2.36 11.11,-2.39 16.34,-0.07"
         style="fill:#1f2a31;fill-opacity:1;fill-rule:nonzero;stroke:none"
         id="path80" /><path
         d="m 1720.99,2997.29 c -12.69,0.81 -25.33,2.37 -37.85,4.7 -13.57,-0.39 -26.85,4.06 -37.64,12.58 -5.72,6.95 -6.55,16.9 -2.06,24.76 11.59,13.76 29.48,19.89 46.69,16 17.64,-0.87 34.34,-8.47 46.9,-21.34 8.23,-8.13 8.54,-21.63 0.71,-30.17 -4.33,-4.71 -10.5,-7.11 -16.75,-6.53"
         style="fill:#1f2a31;fill-opacity:1;fill-rule:nonzero;stroke:none"
         id="path82" /><path
         d="m 1582.35,2605.13 c -6.66,-13.15 -19.82,-21.37 -34.14,-21.34 -12.26,1.46 -22.43,10.5 -25.71,22.84 -0.82,2.13 1.44,3.19 2.47,2.13 z m -57.38,3.63 c 7.81,-5.76 15.83,-14.51 26.12,-13.87 10.62,1.59 20.79,5.52 29.83,11.52"
         style="fill:#1f2a31;fill-opacity:1;fill-rule:nonzero;stroke:none"
         id="path84" /><path
         d="m 1541.63,2704.99 c 17.61,-21.59 43.11,-34.58 70.35,-35.85 11.8,-0.75 23.66,0.33 35.16,3.2 2.25,0.35 4.46,0.92 6.58,1.71 l 5.97,1.92 c 3.01,1.03 5.01,3.97 4.94,7.25 0.14,0.99 0.14,2 0,2.99 v 2.56 c -2.47,22.83 -9.05,56.97 -9.05,56.97 8.63,-2.99 51.84,-16.43 49.78,-4.69 -18.31,97.72 -38.68,206.1 -76.72,298.7 -0.48,1.45 -2,2.23 -3.4,1.73 -1.29,-0.45 -2.04,-1.84 -1.75,-3.22 13.98,-94.52 44.01,-185.84 59.44,-280.57 -15.39,5 -31.38,7.72 -47.51,8.11 -3.08,-1.29 13.78,-66.15 13.99,-76.39 v -1.06 c -36.2,-10.03 -65.41,-2.35 -104.49,18.34 -3.49,2.78 -5.35,0.43 -3.29,-1.7"
         style="fill:#1f2a31;fill-opacity:1;fill-rule:nonzero;stroke:none"
         id="path86" /><path
         d="m 1629.87,2680.87 c -9.33,-16.43 -22.57,-30.09 -38.46,-39.68 -8.82,-4.88 -18.9,-6.74 -28.8,-5.34 -21.81,2.99 -24.68,22.84 -22.83,40.55 1.18,9.31 3.32,18.46 6.37,27.31 24.82,-16.76 54.17,-24.76 83.72,-22.84"
         style="fill:#1f2a31;fill-opacity:1;fill-rule:nonzero;stroke:none"
         id="path88" /><path
         d="m 1591.41,2641.19 c -8.82,-4.88 -18.9,-6.74 -28.8,-5.34 -21.81,2.99 -24.68,22.84 -22.83,40.55 22.97,2.02 44.31,-12.52 51.63,-35.21"
         style="fill:#f57bbb;fill-opacity:1;fill-rule:nonzero;stroke:none"
         id="path90" /><path
         d="m 1137.04,2981.98 c -2.11,39.02 -2.03,75.5 0.54,107.11 -2.51,-31.72 -2.58,-68.12 -0.52,-107.1 l -0.02,-0.01"
         style="fill:#cbd0ce;fill-opacity:1;fill-rule:nonzero;stroke:none"
         id="path92" /><path
         d="m 1138.31,2961.66 c -0.49,6.84 -0.91,13.63 -1.27,20.32 l 0.02,0.01 c 0.35,-6.71 0.77,-13.47 1.25,-20.33"
         style="fill:#cbd0ce;fill-opacity:1;fill-rule:nonzero;stroke:none"
         id="path94" /><path
         d="m 1149.8,2858.18 c -5.21,35.06 -9.1,70.02 -11.49,103.48 -0.48,6.86 -0.9,13.62 -1.25,20.33 -2.06,38.98 -1.99,75.38 0.52,107.1 2.1,25.67 5.83,48.12 11.39,66.09 16.66,53.5 47.79,100.89 89.68,136.55 6.17,-54.83 21.6,-240.25 1.85,-280.14 -19.74,-39.9 -64.38,-137.2 -90.7,-153.41"
         style="fill:#c6ad9f;fill-opacity:1;fill-rule:nonzero;stroke:none"
         id="path96" /><path
         d="m 1597.37,3183.34 c -26.16,-41.74 -71.31,-66.45 -119.3,-65.28 -48.86,1.16 -93.66,28.44 -118.47,72.11 0,1.28 -2.68,0 -2.06,0 22.24,-48.45 68.44,-80.21 120.12,-82.57 51.1,0.21 98.19,28.78 123.41,74.89 0.21,0.85 -2.47,2.78 -3.7,0.85"
         style="fill:#1f2a31;fill-opacity:1;fill-rule:nonzero;stroke:none"
         id="path98" /><path
         d="m 1410.81,3515.34 c -79.39,-12.59 -146.65,-68.06 -168.66,-128.02 -12.3,-34.31 -12.95,-71.94 -1.85,-106.68 0,-1.5 3.29,0 2.88,0 -11.34,63.44 11.62,128.24 59.85,168.98 52.12,47.01 122.53,65.81 190.06,50.78 32.45,-6.57 61.6,-24.86 82.27,-51.63 1.85,-2.78 7.61,0 5.97,2.77 -28.39,48.86 -98.32,75.1 -170.52,63.8"
         style="fill:#1f2a31;fill-opacity:1;fill-rule:nonzero;stroke:none"
         id="path100" /><path
         d="m 1895.4,3398.84 c -18.17,38.93 -48.97,69.97 -87,87.7 -52.65,24.75 -107.16,12.58 -161.26,0 l -0.63,-1.69 0.63,-0.67 c 45.87,10.89 93.18,19.43 138.84,2.36 37.8,-13.77 69.85,-40.69 90.71,-76.18 41.91,-75.75 23.76,-171.95 -42.57,-225.73 -38.02,-29.34 -86.03,-41.07 -132.67,-32.44 -1.86,0 -2.68,-2.34 0,-2.77 86.17,-18.63 172.26,32.1 200.95,118.42 13.3,43.07 10.81,89.71 -7,131"
         style="fill:#1f2a31;fill-opacity:1;fill-rule:nonzero;stroke:none"
         id="path102" /><path
         d="m 1135.19,3068.77 c 0,0 -93.38,137.83 -41.13,231.5 30.03,52.91 149.53,62.09 149.53,62.09 25.73,53.05 70.71,93.34 125.06,112.01 96.67,36.49 221.93,-8.32 221.93,-8.32 0,0 87.63,68.28 182.24,27.31 132.05,-56.97 140.28,-253.69 23.86,-332.42 -82.27,-55.26 -209.8,9.18 -209.8,9.18 -11.11,-2.99 -118.89,-90.9 -219.88,5.33 0,0 -63.55,-75.32 -133.49,-37.34 -15.66,-42.08 -54.82,-69.71 -98.32,-69.34"
         style="fill:#1f2a31;fill-opacity:1;fill-rule:nonzero;stroke:none"
         id="path104" /><path
         d="m 1237.21,2801.85 c 0,0 -97.08,139.12 -158.17,103.06 -61.09,-36.06 13.58,-238.97 86.18,-265.64 37.19,-16.79 80.45,0.87 96.64,39.44 0.44,1.07 0.87,2.14 1.27,3.23 l -25.92,119.91"
         style="fill:#f8d0be;fill-opacity:1;fill-rule:nonzero;stroke:none"
         id="path106" /><path
         d="m 1102.28,2847.3 -1.03,-1.07 1.03,-1.06 c 51.02,-21.34 78.57,-68.71 97.91,-118.85 -11.79,20.14 -37.1,26.56 -56.51,14.33 -1.83,-1.15 -3.56,-2.44 -5.19,-3.87 l 0.23,-2.4 1.21,-0.38 c 18.15,6.37 38.21,0.12 49.98,-15.57 9.51,-12.88 17.72,-26.75 24.47,-41.39 2.47,-4.7 10.49,-1.92 8.85,3.41 v 1.28 c -0.21,67 -51.83,160.02 -120.95,165.57"
         style="fill:#1f2a31;fill-opacity:1;fill-rule:nonzero;stroke:none"
         id="path108" /><path
         d="M 926.625,2210.41 C 487.074,1786.47 -81.2344,878.82 9.67578,685.512 110.879,470.23 722.996,1064.87 722.176,1101.14 c 0,27.52 229.344,528.07 402.734,932.61 173.39,404.53 -89.68,281.42 -198.285,176.66"
         style="fill:#f8d0be;fill-opacity:1;fill-rule:nonzero;stroke:none"
         id="path110" /><path
         d="M 9.67578,685.512 C 98.5352,540.641 355.438,502.242 993.477,342.852 1081.71,321.512 1399.71,925.121 1306.53,953.711 1189.29,989.77 726.492,1103.07 691.734,1107.12 397.809,1139.76 -50.793,783.871 9.67578,685.512"
         style="fill:#f8d0be;fill-opacity:1;fill-rule:nonzero;stroke:none"
         id="path112" /><path
         d="m 1094.67,977.609 c 0,0 258.96,3.192 395.54,-39.05 182.85,-56.329 318.4,-183.059 372.08,-239.598 112.1,-118.422 304.42,-484.77 212.27,-560.512 -82.27,-68.699 -261.42,316.211 -261.42,316.211 0,0 243.93,-361.4491 128.96,-424.8084 -114.98,-63.3711 -297.42,395.3594 -297.42,395.3594 0,0 242.91,-377.0196 114.36,-423.10162 C 1661.75,-32.668 1473.96,373.359 1473.96,373.359 c 0,0 206.72,-325.5895 108.19,-365.69884 C 1473.34,-36.9297 1277.32,326.629 1277.32,326.629 c -267.39,-58.668 -416.925,26.68 -516.886,100.5 -24.067,17.922 334.236,550.48 334.236,550.48"
         style="fill:#f8d0be;fill-opacity:1;fill-rule:nonzero;stroke:none"
         id="path114" /><path
         d="m 1736.41,585.02 c 30.03,-41.18 61.71,-83 87.42,-128.02 25.72,-45.02 51.42,-88.969 74.05,-135.27 30.32,-60.082 54.05,-123.492 70.76,-189.039 -37.65,114.149 -130.21,273.098 -156.74,317.27 -26.53,44.16 -50.8,89.18 -77.13,133.141 -0.82,2.128 0.82,2.98 1.64,1.918"
         style="fill:#1f2a31;fill-opacity:1;fill-rule:nonzero;stroke:none"
         id="path116" /><path
         d="m 1581.33,488.789 c 36.4,-54.617 74.46,-106.68 108.39,-163.641 33.94,-56.976 61.71,-112.019 91.12,-170.699 2.46,-4.48 0,-4.258 -3.29,0 -32.09,56.973 -66.23,106.68 -99.14,163.66 -32.91,56.961 -63.56,114.352 -98.32,169.403 -0.61,1.277 0.83,1.918 1.24,1.277"
         style="fill:#1f2a31;fill-opacity:1;fill-rule:nonzero;stroke:none"
         id="path118" /><path
         d="m 1434.06,430.762 c 57.65,-82.301 107,-170.532 147.27,-263.293 2.05,-4.481 -1.85,-3.848 -4.32,0 -47.31,89.832 -83.92,158.961 -145.63,260.511 0,2.141 1.44,4.481 2.68,2.782"
         style="fill:#1f2a31;fill-opacity:1;fill-rule:nonzero;stroke:none"
         id="path120" /><path
         d="m 328.906,1015.37 c 115.328,78.41 254.399,110.15 390.801,89.18 1.645,0 1.645,-3.19 0,-2.98 -141.305,10.45 -335.269,-57.82 -390.801,-88.76 -0.418,-0.86 -1.441,1.5 0,2.56"
         style="fill:#1f2a31;fill-opacity:1;fill-rule:nonzero;stroke:none"
         id="path122" /><path
         d="M 295.789,1614.92 842.09,1291.04 c 0,0 226.25,449.13 313.26,742.07 87,292.95 9.67,426.72 -316.553,131.64 -191.586,-171.68 -372.926,-355.3 -543.008,-549.83"
         style="fill:#3c515c;fill-opacity:1;fill-rule:nonzero;stroke:none"
         id="path124" /><path
         d="m 871.094,1411.37 c -72.949,52.06 -147.133,101.84 -222.555,149.35 -37.226,23.68 -74.254,48.01 -111.894,71.06 -37.637,23.03 -79.192,44.8 -118.063,68.48 -2.676,1.71 -5.551,-2.34 -2.879,-4.26 36.61,-24.33 71.785,-51.42 108.399,-75.96 36.609,-24.54 76.308,-49.29 114.566,-73.83 75.691,-48.49 152.41,-94.94 230.164,-139.32 2.262,-0.21 4.523,2.56 2.262,4.48"
         style="fill:#1f2a31;fill-opacity:1;fill-rule:nonzero;stroke:none"
         id="path126" /><path
         d="m 819.051,1304.69 c 8.23,-3.84 16.25,-7.47 24.273,-11.53 l -3.496,-1.06 c 15.426,41.4 32.91,81.5 49.777,122.04 16.864,40.54 35.79,79.81 54.711,119.28 18.926,39.46 38.051,78.73 58.824,117.34 20.78,38.63 41.14,77.24 63.97,114.79 -14.6,-41.6 -31.26,-82.14 -48.54,-122.46 -17.28,-40.34 -35.172,-80.23 -53.683,-120.13 -18.516,-39.9 -37.848,-78.73 -57.797,-117.77 -19.953,-39.06 -41.141,-77.67 -61.711,-115.43 l -1.438,-2.36 -2.058,1.28 c -8.434,5.13 -15.629,10.68 -22.832,16.01"
         style="fill:#1f2a31;fill-opacity:1;fill-rule:nonzero;stroke:none"
         id="path128" /><path
         d="m 1077.81,1686.82 c -22.93,-38.51 -54.47,-70.71 -91.947,-93.88 11.387,19.39 25.217,37.12 41.137,52.7 15.16,15.94 32.23,29.78 50.81,41.18"
         style="fill:#1f2a31;fill-opacity:1;fill-rule:nonzero;stroke:none"
         id="path130" /></g></g></svg>
