<?xml version="1.0" encoding="UTF-8" standalone="no"?>
<svg
   xmlns:dc="http://purl.org/dc/elements/1.1/"
   xmlns:cc="http://creativecommons.org/ns#"
   xmlns:rdf="http://www.w3.org/1999/02/22-rdf-syntax-ns#"
   xmlns:svg="http://www.w3.org/2000/svg"
   xmlns="http://www.w3.org/2000/svg"
   xmlns:sodipodi="http://sodipodi.sourceforge.net/DTD/sodipodi-0.dtd"
   xmlns:inkscape="http://www.inkscape.org/namespaces/inkscape"
   version="1.1"
   id="svg2"
   xml:space="preserve"
   width="512"
   height="512"
   viewBox="0 0 512 512"
   sodipodi:docname="movie.eps"><metadata
     id="metadata8"><rdf:RDF><cc:Work
         rdf:about=""><dc:format>image/svg+xml</dc:format><dc:type
           rdf:resource="http://purl.org/dc/dcmitype/StillImage" /></cc:Work></rdf:RDF></metadata><defs
     id="defs6" /><sodipodi:namedview
     pagecolor="#ffffff"
     bordercolor="#666666"
     borderopacity="1"
     objecttolerance="10"
     gridtolerance="10"
     guidetolerance="10"
     inkscape:pageopacity="0"
     inkscape:pageshadow="2"
     inkscape:window-width="640"
     inkscape:window-height="480"
     id="namedview4" /><g
     id="g10"
     inkscape:groupmode="layer"
     inkscape:label="ink_ext_XXXXXX"
     transform="matrix(1.3333333,0,0,-1.3333333,0,512)"><g
       id="g12"
       transform="scale(0.1)"><path
         d="m 3451.07,210.602 c 68.33,84.949 91.67,180.929 137.49,276.23 -50.76,-21.082 -93.57,-29.012 -137.49,-36.191 0,-77.371 0,-153.282 0,-240.039 z m 149.11,414.988 c 135.32,103.109 167.79,302.469 71.25,423.64 -78.56,-75.89 -157.02,-151.671 -235.78,-227.75 57.5,-64.621 122.38,-118.699 164.53,-195.89 z M 3336.12,447.789 c -114.12,0 -224.46,0 -334.37,0 0,-112.519 0,-222.848 0,-337.277 112.63,10.668 225.51,-15.68 334.37,23.207 0,106.043 0,209.203 0,314.07 z m -450.05,0.25 c -113.27,0 -223.74,0 -334.37,0 0,-112.41 0,-222.848 0,-333.469 112.33,0 222.76,0 334.37,0 0,111.571 0,221.09 0,333.469 z m -449.12,-1.051 c -111.56,0 -222.83,0 -335.57,0 0,-110.418 0,-220.816 0,-331.636 112.87,0 224.17,0 335.57,0 0,111.437 0,220.039 0,331.636 z M 1650.74,114.789 c 114.08,0 224.56,0 334.31,0 0,112.75 0,223.231 0,332.941 -112.79,0 -223.29,0 -334.31,0 0,-111.839 0,-221.449 0,-332.941 z m -449.37,-0.641 c 111.93,0 222.37,0 334.38,0 0,112.063 0,222.493 0,334.293 -112.05,0 -222.51,0 -334.38,0 0,-111.992 0,-222.441 0,-334.293 z m -116.25,-0.636 c 0,113.679 0,224.09 0,334.359 -112.671,0 -223.1,0 -333.034,0 0,-112.562 0,-222.98 0,-334.359 111.719,0 221.254,0 333.034,0 z M 3114.37,989.75 C 2976.35,818.73 2811.24,678.789 2613.12,563.07 c 280.69,0 550.36,-0.211 820.02,0.399 20.47,0.051 40.93,5.851 62.07,9.082 -19.4,48.621 -217.61,264.808 -380.84,417.199 z M 1875,3840 c 48.69,-14.52 99.63,-13.45 149.34,-21.41 235.83,-37.72 454.85,-119.37 656.97,-246.39 35.12,-22.07 44.31,-52.8 25.93,-81.89 -18.35,-29.06 -49.92,-35.01 -85,-13.14 -195.29,121.71 -406.41,202.22 -634.21,232.86 -452.97,60.93 -865.99,-42.6 -1230.092,-320.5 C 433.828,3142.15 219.625,2817.2 147.719,2415.85 26.8516,1741.21 239.949,1186.24 785.102,764.691 889.137,684.25 1005.43,623.809 1126.81,573.27 c 17.61,-7.321 34.99,-10.918 54.21,-10.899 377.44,0.34 754.88,0.289 1132.33,-0.082 22.8,-0.019 43.89,2.93 65.12,12.449 548.92,245.883 889.76,663.052 986.41,1255.882 97.19,596.16 -100.09,1098.61 -548.3,1502.57 -18.38,16.57 -34.61,33.62 -31.2,60.12 2.71,21.05 14.45,37.03 34.78,45.34 23.65,9.67 43.83,2.25 62.2,-13.28 84.21,-71.23 161.4,-149.45 230.35,-235.49 222.97,-278.27 352.32,-594.83 382.33,-950.37 35.58,-421.44 -70.56,-805.95 -310.89,-1159.31 60.63,-53.7 122.12,-108.141 186.21,-164.891 67.11,64.671 146.89,141.541 228.85,220.511 -41.78,44.09 -82.78,87.06 -123.44,130.36 -30.81,32.82 -33.7,63.82 -8.93,88.65 26.07,26.16 57.93,22.36 90.84,-11.84 53.73,-55.83 106.94,-112.15 160.5,-168.14 58.36,-60.99 96.98,-132.4 114,-215.241 1.17,-5.73 -0.62,-12.839 7.82,-14.609 0,-45 0,-90 0,-135 -16.56,-26.359 -17.53,-58 -29.55,-86.078 C 3742.58,565.27 3677.31,405.492 3607.61,247.66 3556.64,132.25 3467.41,56.8789 3347.04,18.1602 3324.1,10.7891 3298.98,12.4102 3277.5,0 2260,0 1242.5,0 225,0 c -29.797,17.8086 -38.684,43.7891 -38.281,78.3086 1.625,138.6404 0.488,277.3124 0.781,415.9804 0.102,48.242 19.949,67.871 68.281,68.133 66.207,0.359 132.418,0.269 198.621,0.027 44.305,-0.16 69.68,-20.16 70.481,-54.801 0.824,-35.679 -26.016,-57.589 -71.559,-57.808 -50.695,-0.238 -101.398,-0.051 -151.168,-0.051 0,-114.828 0,-225.32 0,-335 112.75,0 223.235,0 333.317,0 0.879,4.602 1.718,6.961 1.722,9.313 0.106,114.918 0.141,229.859 0.168,344.777 0.024,82.992 10.875,93.633 95.45,93.633 48.949,0 97.902,0 157.167,0 -14.835,9.179 -19.859,12.308 -24.906,15.41 C 395.016,865.469 112.074,1279.77 20.0039,1823.87 13.7344,1860.94 17.7188,1899.99 0,1935 c 0,100 0,200 0,300 8.10156,2.08 7.01172,8.84 7.58594,14.8 30.74996,319.74 137.80906,611.33 329.51606,869.26 287.351,386.63 669.258,620.96 1145.518,700.08 40.8,6.78 83.29,4.1 122.38,20.86 90,0 180,0 270,0"
         style="fill:#060707;fill-opacity:1;fill-rule:nonzero;stroke:none"
         id="path14" /><path
         d="m 1484.33,812.711 c -380.11,91.801 -665.951,300.669 -864.752,628.679 -11.086,-13.02 -11.945,-25.03 -12.269,-37.84 -1.532,-60.53 20.418,-114.7 47.695,-166.37 62.457,-118.31 154.469,-210.94 261.68,-288.739 125.766,-91.281 261.496,-159.91 419.846,-171.863 49.99,-3.769 98.8,0.902 147.8,36.133 z m 58.97,104.609 c 3.27,11.168 6.53,18.059 7.19,25.2 17.23,185.79 -10.46,362.93 -103.89,526.76 -38.81,68.05 -96.41,113.57 -172.35,134.29 -86.67,23.66 -174.89,26.02 -263.62,16.06 -106.829,-11.99 -210.65,-34.89 -310.517,-88.3 C 888.969,1197.25 1168.19,994.16 1543.3,917.32 Z m 124.93,124.56 c -1.25,-57.29 -3.1,-114.439 -17.4,-170.72 -30.42,-119.66 -109.9,-190.058 -233.23,-203.851 -137.59,-15.368 -264.73,21.351 -385.97,81.41 -207.232,102.64 -377.45,245.84 -485.493,454.771 -24.805,47.97 -41.227,98.91 -47.664,152.59 -13.102,109.14 23.406,196.01 117.59,256.02 81.003,51.61 170.875,80.22 263.804,100.46 123.103,26.81 246.853,33.49 371.673,12.05 178.76,-30.71 283.57,-144.42 345.93,-306.26 46.65,-121.1 70.37,-246.58 70.76,-376.47"
         style="fill:#060707;fill-opacity:1;fill-rule:nonzero;stroke:none"
         id="path16" /><path
         d="m 2884.33,1447.23 c -200.12,-337.1 -490.4,-544.808 -868.11,-634.171 2.8,-4.071 4.14,-7.969 6.84,-9.528 7.51,-4.371 15.43,-8.16 23.46,-11.492 57.25,-23.699 116.13,-20.309 175.06,-9.16 179.62,34 329.35,124.801 461.86,246.691 83.47,76.79 153.52,164.01 192.15,272.48 16.16,45.39 27.62,92.18 8.74,145.18 z m -82.61,83.17 c -124.3,70.09 -300.13,101.9 -480.49,89.87 -139.86,-9.32 -238.97,-75.74 -295.7,-205.3 -53.32,-121.79 -79.04,-249.12 -79.67,-381.52 -0.19,-38.028 0.09,-76.802 12.67,-116.231 375.67,76.722 654.01,280.571 843.19,613.181 z m -967.86,-501.62 c 1.24,164.95 31.61,308.88 95.35,445.48 72.98,156.39 197.43,239.56 367.15,257.42 170.75,17.97 335.64,-7.48 494.88,-70.58 23.06,-9.13 45.42,-20.44 67.11,-32.53 126,-70.19 171.78,-174.1 137.72,-314.22 -30.02,-123.54 -98.46,-225.46 -184.76,-315.83 -149.54,-156.61 -325.63,-269.961 -538.57,-320.129 -67.32,-15.86 -136.03,-20.719 -204.48,-9.059 -124.7,21.238 -198.21,96.988 -222.67,224.918 -9.43,49.34 -9.68,99.27 -11.73,134.53"
         style="fill:#060707;fill-opacity:1;fill-rule:nonzero;stroke:none"
         id="path18" /><path
         d="m 1209.76,3273.78 c 363.78,154.09 720.6,154.43 1079.36,1.09 -19.87,58.61 -70.61,108.05 -145.15,144.11 -150.24,72.7 -309.8,91.83 -474.16,80.04 -119.37,-8.57 -234.33,-34.97 -339.09,-95.55 -50.27,-29.08 -94.42,-65.04 -120.96,-129.69 z M 2275.94,3156.9 c -352.87,159.95 -698.78,160.58 -1049.3,-0.34 94.22,-168.86 221.49,-297.71 392.34,-381.65 88.6,-43.54 178.48,-42.62 266.63,0.95 169.7,83.9 295.93,212.79 390.33,381.04 z m -525.43,458.35 c 179.35,-4.34 353.45,-30.77 506.44,-133.37 97.38,-65.29 166.62,-149.68 149.34,-276.69 -9.95,-73.1 -46.93,-136.19 -88.98,-195.71 -104.12,-147.41 -231.95,-267.4 -398.69,-341.84 -116.62,-52.08 -233.37,-49.85 -347.44,5.46 -193.84,93.99 -340.76,238.54 -440.18,428.83 -70.45,134.85 -45.1,249.25 71.31,347.65 104.25,88.13 229.73,127.78 361.57,150.37 61.62,10.56 123.89,15.6 186.63,15.3"
         style="fill:#060707;fill-opacity:1;fill-rule:nonzero;stroke:none"
         id="path20" /><path
         d="m 2710.82,2969.51 c 258.77,-296.77 369.44,-636.99 334.73,-1029.07 58.06,47.82 79,108.42 89.35,172.76 29.94,186.19 -10.24,361.82 -86.31,530.83 -46.54,103.43 -108.26,196.61 -198.04,268.34 -38.97,31.14 -81.62,54.88 -139.73,57.14 z m -104.65,-57.06 c -15.54,-6.5 -24.96,-20.17 -35.23,-32.25 -94.45,-111.03 -158.05,-237.54 -195.1,-378.7 -40.49,-154.19 -1.34,-279.29 123.25,-379.86 101.29,-81.77 212.69,-142.9 337.36,-179.91 29.37,-8.72 58.75,-18.28 89.86,-16.82 52.4,314.13 -48.14,713.38 -320.14,987.54 z m 651.14,-680.18 c 0.29,-64.01 -6.39,-126.84 -23.25,-188.84 -51.29,-188.64 -170.88,-266.33 -361.2,-226.34 -179.15,37.65 -337.07,119.87 -473.4,242.77 -136.32,122.89 -178.54,273.83 -136.75,450.92 42.71,181.06 124.25,341.7 254.36,475.11 114.59,117.5 237.04,127.96 373.46,36.28 98.71,-66.33 168.64,-158.33 224.9,-261.23 90.02,-164.63 139.39,-340.48 141.88,-528.67"
         style="fill:#060707;fill-opacity:1;fill-rule:nonzero;stroke:none"
         id="path22" /><path
         d="m 456.977,1940.32 c -34.731,392.87 75.371,732.63 331.839,1026 -45.109,1.94 -88.148,-14.86 -136.906,-53.46 -75.765,-60 -131.512,-136.36 -174.89,-221.62 -93.09,-182.98 -142.063,-375 -109.067,-581.49 10.094,-63.17 31.633,-122.5 89.024,-169.43 z m 437.363,973.7 c -257.195,-280.7 -364.61,-608.84 -321.817,-989.96 61.622,4.27 115.09,23.67 168.59,43.01 14,5.05 27.918,11.63 42.422,13.73 28.184,4.09 48.535,-8.67 58.988,-35.25 10.739,-27.3 2.864,-53.42 -21.628,-64.7 -108.606,-49.99 -221.504,-90.79 -342.969,-68.04 -120.442,22.56 -176.84,114.65 -207.34,222.91 -50.984,181.02 -25.391,359.26 32.742,533.75 55.227,165.74 136.789,316.31 275.735,428.3 76.234,61.44 160.835,100.63 262.945,77.93 41.312,-9.18 78.105,-28.87 107.836,-57.42 185.766,-178.36 296.336,-392.65 303.486,-653.8 2.09,-75.73 -23.42,-144.32 -66.47,-206.76 -44.57,-64.64 -100.64,-117.49 -163.82,-163.1 -30.794,-22.23 -63.028,-17.61 -82.505,9.55 -18.379,25.65 -13.742,56.76 14.582,79.21 36.274,28.75 71.283,58.54 103.283,92.2 75.07,78.94 96.11,172.41 77.5,277.04 -27.72,155.77 -95.06,293.2 -194.318,415.52 -13.242,16.31 -26.332,33.23 -47.242,45.88"
         style="fill:#060707;fill-opacity:1;fill-rule:nonzero;stroke:none"
         id="path24" /><path
         d="m 1807.2,2089.88 c -0.66,31.16 -28.03,56.55 -59.09,54.83 -29.78,-1.64 -53.62,-27.32 -53,-57.06 0.65,-31.21 27.96,-56.63 58.97,-54.89 29.67,1.66 53.76,27.57 53.12,57.12 z m -224.68,-2.32 c -0.52,93.18 75.38,169.81 168.3,169.91 92.99,0.1 169.35,-76.41 169.04,-169.36 -0.3,-91.31 -75.4,-167.05 -166.62,-168.04 -93.12,-1.02 -170.19,74.6 -170.72,167.49"
         style="fill:#060707;fill-opacity:1;fill-rule:nonzero;stroke:none"
         id="path26" /></g></g></svg>
