<svg id="Capa_1" enable-background="new 0 0 511.963 511.963" height="512" viewBox="0 0 511.963 511.963" width="512" xmlns="http://www.w3.org/2000/svg"><g><g id="Page-1_4_"><g id="_x30_05---Get-Points" transform="translate(-1)"><path id="Shape_25_" d="m108.489 140.521c1.714 1.787 2.469 4.287 2.031 6.724l-7.603 46.08c-1.636 9.295 2.215 18.703 9.899 24.183 7.136 5.127 16.585 5.688 24.277 1.442l40.371-22.042c1.747-.977 3.876-.977 5.623 0l40.38 22.067c7.694 4.24 17.14 3.679 24.277-1.442 7.684-5.48 11.535-14.888 9.899-24.183l-7.603-46.08c-.446-2.439.314-4.944 2.039-6.724l32.051-32.486c6.558-6.672 8.794-16.471 5.777-25.327-2.701-8.535-9.992-14.811-18.833-16.213l-44.715-6.724c-2.147-.379-3.965-1.803-4.847-3.797l-20.122-42.385c-3.753-8.289-12.011-13.614-21.11-13.614s-17.357 5.325-21.111 13.613l-20.147 42.385c-.882 1.994-2.7 3.418-4.847 3.797l-44.69 6.725c-8.841 1.402-16.132 7.679-18.833 16.213-3.02 8.858-.784 18.662 5.777 25.335zm-21.649-52.437c.703-2.416 2.718-4.223 5.197-4.659l44.723-6.75c7.76-1.226 14.4-6.232 17.715-13.355l20.147-42.436c.928-2.33 3.183-3.859 5.692-3.859s4.763 1.529 5.692 3.859l20.147 42.436c3.302 7.104 9.913 12.107 17.647 13.355l44.689 6.75c2.478.436 4.494 2.243 5.197 4.659.974 2.764.314 5.84-1.707 7.962l-32.051 32.486c-5.543 5.678-8.044 13.661-6.733 21.487l7.603 46.08c.572 2.855-.571 5.781-2.927 7.492-1.811 1.359-4.257 1.51-6.221.384l-40.38-22.076c-6.848-3.749-15.134-3.749-21.982 0l-40.379 22.101c-1.964 1.126-4.41.975-6.221-.384-2.356-1.711-3.499-4.637-2.927-7.492l7.603-46.08c1.312-7.826-1.19-15.809-6.733-21.487l-32.06-32.512c-2.029-2.116-2.698-5.193-1.731-7.961z"/><path id="Shape_24_" d="m349.24 105.065c.195.238.273.551.213.853l-4.437 26.889c-1.186 6.764 1.623 13.607 7.219 17.587 5.269 3.778 12.24 4.193 17.92 1.067l23.415-12.877 23.552 12.877c5.68 3.126 12.651 2.711 17.92-1.067 5.596-3.976 8.403-10.818 7.211-17.579l-4.429-26.897c-.061-.301.014-.613.205-.853l18.731-18.918c4.769-4.858 6.388-11.992 4.181-18.432-2.01-6.232-7.362-10.798-13.833-11.802l-26.188-4.173-11.75-24.747c-2.773-6.085-8.844-9.991-15.531-9.991s-12.758 3.905-15.531 9.991l-11.921 25.02-26.061 3.942c-6.465.994-11.819 5.546-13.841 11.767-2.207 6.437-.588 13.569 4.181 18.423zm-6.571-32.282 26.069-3.934c5.698-.891 10.577-4.561 13.013-9.788l11.861-24.969c.068.067.121.149.154.239l11.759 24.747c2.434 5.225 7.31 8.895 13.005 9.788l26.069 3.925v1.357l-18.721 18.962c-4.017 4.13-5.83 9.925-4.881 15.607l4.437 26.897c.059.296-.003.603-.171.853l-23.535-12.86c-5.05-2.767-11.163-2.767-16.213 0l-23.39 12.885s-.435-.171-.307-.913l4.437-26.897c.946-5.687-.876-11.485-4.907-15.607l-18.697-18.944-6.076 5.973z"/><path id="Shape_23_" d="m9.613 494.893c1.938.001 3.819-.658 5.333-1.869 1.758-1.408 43.23-34.628 60.433-51.831 66.603-66.62 115.994-74.3 147.354-74.3 11.838-.069 23.321 4.041 32.427 11.605 4.47 3.595 10.051 5.526 15.787 5.461h86.912c9.446-.259 17.492 6.813 18.449 16.213.234 4.672-1.46 9.236-4.687 12.623-3.226 3.388-7.702 5.302-12.38 5.297h-93.867c-4.713 0-8.533 3.821-8.533 8.533 0 4.713 3.821 8.533 8.533 8.533h93.867c9.357-.002 18.303-3.844 24.746-10.629s9.818-15.918 9.336-25.262c0-.119-.051-.222-.051-.341l74.24-62.182c3.499-2.931 8.021-4.35 12.567-3.943s8.744 2.605 11.668 6.111c5.609 6.825 5.22 16.768-.905 23.134l-106.479 108.374c-4.372 4.5-10.303 7.151-16.572 7.407h-154.154c-11.989-.007-23.867 2.293-34.987 6.775l-27.127 10.906c-4.374 1.758-6.494 6.728-4.736 11.102s6.728 6.494 11.102 4.736l27.127-10.914c9.098-3.66 18.814-5.54 28.621-5.538h154.377c10.763-.307 20.99-4.769 28.535-12.45l106.496-108.425c12.828-13.044 13.159-33.862.751-47.307s-33.185-14.783-47.215-3.04l-43.614 36.506-2.56-15.684c-.63-3.758.553-7.593 3.191-10.342l40.004-40.644c7.653-7.756 10.261-19.173 6.733-29.483-3.135-9.889-11.589-17.157-21.837-18.773l-55.799-8.448c-3.395-.566-6.293-2.769-7.748-5.888l-25.165-53.069c-4.316-9.629-13.884-15.825-24.435-15.825-10.552 0-20.119 6.196-24.435 15.825l-25.122 52.966c-1.45 3.157-4.366 5.393-7.791 5.973l-55.782 8.448c-10.258 1.605-18.725 8.876-21.862 18.773-3.528 10.298-.927 21.706 6.716 29.457l40.004 40.602c2.616 2.722 3.809 6.51 3.226 10.24l-1.254 7.45c-5.341-1.297-10.819-1.944-16.316-1.929-34.398 0-88.337 8.218-159.42 79.3-16.539 16.529-58.608 50.236-59.035 50.568-2.831 2.264-3.923 6.07-2.723 9.49s4.431 5.71 8.056 5.708zm239.642-172.732-40.047-40.602c-3.094-3.201-4.121-7.872-2.654-12.075 1.098-3.805 4.291-6.637 8.201-7.27l55.817-8.448c8.976-1.468 16.664-7.238 20.582-15.445l25.182-53.086c1.488-3.671 5.054-6.074 9.015-6.074s7.527 2.402 9.015 6.074l25.225 53.197c3.924 8.169 11.594 13.905 20.54 15.36l55.834 8.448c3.897.641 7.079 3.467 8.175 7.262 1.452 4.201.419 8.862-2.671 12.058l-40.03 40.627c-6.434 6.632-9.357 15.914-7.885 25.037l4.267 25.685-10.624 8.892c-6.785-9.431-17.72-14.987-29.338-14.908h-86.938c-1.768.064-3.505-.485-4.915-1.553-3.332-2.731-6.918-5.137-10.709-7.185l1.852-11.008c1.451-9.107-1.474-18.366-7.894-24.986z"/></g></g></g></svg>