<?xml version="1.0" encoding="utf-8"?>
<!-- Generator: Adobe Illustrator 24.3.0, SVG Export Plug-In . SVG Version: 6.00 Build 0)  -->
<svg version="1.1"
	 id="svg2" sodipodi:docname="sent.eps" xmlns:cc="http://creativecommons.org/ns#" xmlns:dc="http://purl.org/dc/elements/1.1/" xmlns:inkscape="http://www.inkscape.org/namespaces/inkscape" xmlns:rdf="http://www.w3.org/1999/02/22-rdf-syntax-ns#" xmlns:sodipodi="http://sodipodi.sourceforge.net/DTD/sodipodi-0.dtd" xmlns:svg="http://www.w3.org/2000/svg"
	 xmlns="http://www.w3.org/2000/svg" xmlns:xlink="http://www.w3.org/1999/xlink" x="0px" y="0px" viewBox="0 0 511 256.6"
	 style="enable-background:new 0 0 511 256.6;" xml:space="preserve">
<style type="text/css">
	.st0{fill:#050607;}
</style>
<sodipodi:namedview  bordercolor="#666666" borderopacity="1" gridtolerance="10" guidetolerance="10" id="namedview4" inkscape:pageopacity="0" inkscape:pageshadow="2" inkscape:window-height="480" inkscape:window-width="640" objecttolerance="10" pagecolor="#ffffff">
	</sodipodi:namedview>
<g id="g10" transform="matrix(1.3333333,0,0,-1.3333333,0,256.56)" inkscape:groupmode="layer" inkscape:label="ink_ext_XXXXXX">
	<g id="g12" transform="scale(0.1)">
		<path id="path14" class="st0" d="M447.6,723.1c1.5,2.2,3.5,4.3,4.4,6.7c32.4,87.5,127,107.5,192.3,40.2
			c81.5-84,161.9-169.3,244.3-252.5c36.1-36.5,75.7-69.4,114.4-104.5c88.9,87.9,184.4,182.4,279.9,277
			c175.7,174,351.2,348.1,527,522c66.7,66,169.4,40.8,191.4-47.2c10.7-42.9-3-79.5-34.2-110.3c-101.3-100.1-202.4-200.4-303.6-300.7
			c-193.1-191.3-386.2-382.6-579.3-573.9c-60.9-60.3-122.8-59.8-182.2,1.9c-138.9,144.2-277.7,288.6-417,432.4
			c-16.4,16.9-25.3,37.6-37.3,56.9C447.6,688.4,447.6,705.7,447.6,723.1"/>
		<path id="path16" class="st0" d="M1663.3,405.9c146.6,145.3,291.9,289.3,437.2,433.2c124.3,123.1,248.5,246.3,372.9,369.4
			c47.4,46.9,115.9,48.4,160.6,3.7c45.5-45.4,43.6-114.5-4.7-162.5c-294.5-291.8-589.1-583.6-883.8-875.3
			c-53.7-53.1-119.6-52.1-171.4,2.1c-32,33.5-64.3,66.6-95.9,100.3c-46.9,50.1-47.1,119-1,162.7c46.3,43.8,112.6,40.7,160.6-7.6
			C1645.8,423.8,1653.8,415.5,1663.3,405.9"/>
	</g>
</g>
</svg>
