<?xml version="1.0" encoding="UTF-8" standalone="no"?>
<svg
   xmlns:dc="http://purl.org/dc/elements/1.1/"
   xmlns:cc="http://creativecommons.org/ns#"
   xmlns:rdf="http://www.w3.org/1999/02/22-rdf-syntax-ns#"
   xmlns:svg="http://www.w3.org/2000/svg"
   xmlns="http://www.w3.org/2000/svg"
   xmlns:sodipodi="http://sodipodi.sourceforge.net/DTD/sodipodi-0.dtd"
   xmlns:inkscape="http://www.inkscape.org/namespaces/inkscape"
   version="1.1"
   id="svg2"
   xml:space="preserve"
   width="1266.6667"
   height="959.53333"
   viewBox="0 0 1266.6667 959.53333"
   sodipodi:docname="splash sc.eps"><metadata
     id="metadata8"><rdf:RDF><cc:Work
         rdf:about=""><dc:format>image/svg+xml</dc:format><dc:type
           rdf:resource="http://purl.org/dc/dcmitype/StillImage" /></cc:Work></rdf:RDF></metadata><defs
     id="defs6" /><sodipodi:namedview
     pagecolor="#ffffff"
     bordercolor="#666666"
     borderopacity="1"
     objecttolerance="10"
     gridtolerance="10"
     guidetolerance="10"
     inkscape:pageopacity="0"
     inkscape:pageshadow="2"
     inkscape:window-width="640"
     inkscape:window-height="480"
     id="namedview4" /><g
     id="g10"
     inkscape:groupmode="layer"
     inkscape:label="ink_ext_XXXXXX"
     transform="matrix(1.3333333,0,0,-1.3333333,0,959.53333)"><g
       id="g12"
       transform="scale(0.1)"><path
         d="m 2874.81,3970.49 c 29.93,-8.91 59.2,-19.9 87.6,-32.9 3,-1.02 5.62,-2.94 7.5,-5.5 3.4,-5.5 -0.9,-12.4 -4.8,-17.6 -37.3,-49 -58.2,-143.4 -86.3,-198.2 -8.8,-17.1 -23.5,0 -42.7,0 -11.08,0.64 -21.28,6.22 -27.8,15.2 -6.3,8.91 -11.22,18.72 -14.6,29.1 -16.09,37.83 -27.18,77.6 -33,118.3 -1.7,16.3 -2.8,34.9 -15.4,45.3 l 129.5,46.3"
         style="fill:#ffffff;fill-opacity:1;fill-rule:nonzero;stroke:none"
         id="path14" /><path
         d="M 7862.7,3731.19 H 1800.01 c -51.6,0 -103.1,0 -154.7,0 -59,0.5 -105.2,39.2 -107.6,100 -0.8,20.9 0,41.9 0,62.8 v 3157.6 c 0,7.1 0,14.3 0,21.4 0.1,55.05 44.17,99.91 99.2,101 h 27.6 6138.59 52.21 c 59.09,-0.5 104.4,-40 106.59,-101 2.5,-71.9 0,-144.3 0,-216.3 v -3002.5 -21.6 c 0.07,-55.18 -44.03,-100.26 -99.2,-101.4 -14.29,-0.5 -14.29,-22.8 0,-22.3 76.01,3 121.41,62.3 121.41,134.5 v 3010 c 0,73.2 2,146.7 0,220 -0.5,68.14 -55.96,123.07 -124.1,122.9 -14.3,0 -28.7,0 -43,0 h -6155.3 c -13.85,0.52 -27.71,0.09 -41.5,-1.3 -70,-10 -104.3,-70 -104.3,-135.1 v -3164.5 c 0,-21.2 -0.6,-42.6 0,-63.8 0.6,-68.37 56.52,-123.31 124.89,-122.7 h 0.01 c 45.9,-1 91.9,0 137.8,0 H 7862.7 c 6.17,0.58 10.69,6.05 10.1,12.2 -0.51,5.36 -4.74,9.59 -10.1,10.1"
         style="fill:#ffffff;fill-opacity:1;fill-rule:nonzero;stroke:none"
         id="path16" /><path
         d="m 2951.01,3903.39 c -10.96,-12.88 -19.47,-27.66 -25.1,-43.6 -7,-16.2 -13.2,-32.8 -18.8,-50 -11.5,-34.8 -21.4,-70 -31.7,-105.4 -1.56,-5.93 1.98,-12 7.9,-13.56 5.84,-1.54 11.83,1.86 13.5,7.66 10,34 20,68.2 30.5,102.1 5,16 10,31.9 16.7,47.3 6.7,15.4 16.4,30.7 21.2,46.8 1.02,4.64 -1.91,9.23 -6.55,10.25 -2.73,0.6 -5.58,-0.16 -7.65,-2.05 v 0.5"
         style="fill:#040606;fill-opacity:1;fill-rule:nonzero;stroke:none"
         id="path18" /><path
         d="m 3350.59,3447.35 c -144.84,11.97 -288.85,31 -431.68,61.04 -225.05,47.31 -445.55,121.75 -672.02,157.25 3.39,5.03 6.9,9.98 10.52,14.85 8.8,10.95 18.95,20.32 30.04,28.4 h 578.16 c 0.85,-0.13 1.68,-0.2 2.48,-0.2 0.76,0 1.5,0.06 2.22,0.2 h 6.41 c -0.44,-1.5 -0.87,-3 -1.31,-4.5 -1.56,-5.93 1.98,-12 7.9,-13.56 0.95,-0.25 1.9,-0.37 2.84,-0.37 4.83,0 9.26,3.17 10.66,8.03 1.02,3.46 2.04,6.93 3.06,10.4 h 89.72 l -4.48,-26.9 c -1.83,-7.4 2.69,-14.88 10.09,-16.71 0.95,-0.23 1.93,-0.36 2.91,-0.39 49.29,-5.44 98.23,-13.66 146.6,-24.6 23.9,-5.3 47.8,-11.1 71.2,-18 20.84,-5.1 40.35,-14.62 57.2,-27.9 31.4,-27.5 46.3,-70 61.6,-107.3 5.67,-13.1 10.97,-26.35 15.88,-39.74 m -356.9,283.84 h -87.26 c 1.82,6.16 3.64,12.32 5.47,18.48 1.1,-0.02 2.21,-0.05 3.31,-0.08 22.16,-0.34 44.25,-2.65 66,-6.9 4.7,-0.9 11.2,-1.1 12.6,-6.9 0.04,-1.54 0,-3.07 -0.12,-4.6 m -185.16,0 h -481.78 c 9.99,4.42 20.27,8.24 30.66,11.6 18.8,6.1 38.1,10.9 57.4,15.3 7.46,1.7 10.74,6.92 10.88,12.45 l 343.57,-26.98 c -0.07,-0.99 0.02,-2.01 0.3,-3.02 1.08,-3.91 4.63,-6.47 8.49,-6.47 0.78,0 1.57,0.1 2.36,0.32 h -0.4 c 7.63,1.96 15.31,3.74 23.02,5.33 1.64,-2.82 3.4,-5.57 5.28,-8.23 0.07,-0.1 0.15,-0.2 0.22,-0.3"
         style="fill:#ffffff;fill-opacity:1;fill-rule:nonzero;stroke:none"
         id="path20" /><path
         d="m 2868.09,3708.69 c -0.8,0 -1.63,0.07 -2.48,0.2 h 4.7 c -0.72,-0.14 -1.46,-0.2 -2.22,-0.2 m 15.08,22.5 h -74.64 c -0.07,0.1 -0.15,0.2 -0.22,0.3 -1.88,2.66 -3.64,5.41 -5.28,8.23 28.16,5.8 56.77,9.1 85.51,9.88 -1.8,-6.13 -3.59,-12.27 -5.37,-18.41"
         style="fill:#ffffff;fill-opacity:1;fill-rule:nonzero;stroke:none"
         id="path22" /><path
         d="m 2989.59,3708.89 h -89.72 c 2.18,7.43 4.37,14.86 6.56,22.3 h 87.26 c -0.28,-3.47 -0.98,-6.89 -2.08,-10.2 l -2.02,-12.1 m -112.87,0 h -6.41 -4.7 -578.16 c 12.15,8.85 25.43,16.16 39.3,22.3 h 481.78 74.64 c -2.15,-7.42 -4.29,-14.86 -6.45,-22.3"
         style="fill:#ffffff;fill-opacity:1;fill-rule:nonzero;stroke:none"
         id="path24" /><path
         d="m 2886.15,3690.46 c -0.94,0 -1.89,0.12 -2.84,0.37 -5.92,1.56 -9.46,7.63 -7.9,13.56 0.44,1.5 0.87,3 1.31,4.5 2.16,7.44 4.3,14.88 6.45,22.3 1.78,6.14 3.57,12.28 5.37,18.41 4.39,0.12 8.79,0.18 13.19,0.18 3.39,0 6.78,-0.04 10.17,-0.11 -1.83,-6.16 -3.65,-12.32 -5.47,-18.48 -2.19,-7.44 -4.38,-14.87 -6.56,-22.3 -1.02,-3.47 -2.04,-6.94 -3.06,-10.4 -1.4,-4.86 -5.83,-8.03 -10.66,-8.03"
         style="fill:#28292a;fill-opacity:1;fill-rule:nonzero;stroke:none"
         id="path26" /><path
         d="m 2780.01,3734.39 c 44.14,11.34 89.64,16.46 135.2,15.2 22.16,-0.34 44.25,-2.65 66,-6.9 4.7,-0.9 11.2,-1.1 12.6,-6.9 0.14,-5.02 -0.61,-10.03 -2.2,-14.8 l -6.5,-39 c -1.83,-7.4 2.69,-14.88 10.09,-16.71 0.95,-0.23 1.93,-0.36 2.91,-0.39 49.29,-5.44 98.23,-13.66 146.6,-24.6 23.9,-5.3 47.8,-11.1 71.2,-18 20.84,-5.1 40.35,-14.62 57.2,-27.9 31.4,-27.5 46.3,-70 61.6,-107.3 14.85,-34.31 27.15,-69.68 36.8,-105.81 18.8,-75.79 20,-162.89 -16.6,-233.69 -38.1,-73.1 -112.9,-118.2 -188.2,-145.4 -177.2,-64.1 -371.3,-41.8 -546.1,18.8 -83.63,28.41 -164.22,65.05 -240.6,109.4 -70,41.1 -136.1,92.7 -181.9,160.6 -12.81,18 -23.08,37.69 -30.5,58.5 -6.89,22.31 -8.83,45.86 -5.7,69 6.82,48.74 18.72,96.63 35.5,142.9 12.97,42.87 33.26,83.17 60,119.1 25.4,31.6 62,50 100,62.3 18.8,6.1 38.1,10.9 57.4,15.3 19.3,4.4 10.6,32.3 -7.9,28.4 -86,-18.2 -174,-52.2 -211.4,-138.5 -19.37,-46.29 -34.92,-94.08 -46.5,-142.9 -12.2,-49.21 -25.3,-102.8 -12.1,-153.1 11.3,-43 38.1,-81.4 66.4,-114.9 28.16,-32.67 60.04,-61.93 95,-87.2 73.4,-54.1 157,-93.9 241.1,-128.4 183.2,-75.1 388.4,-114.4 583.2,-62.4 84.3,22.5 172,61.9 228.4,131 56.4,69.1 70,162.7 58.8,250.6 -4.93,36.7 -13.85,72.74 -26.6,107.5 -14.28,42.64 -32.35,83.9 -54,123.3 -10.53,18.69 -24.39,35.3 -40.9,49 -18.04,13.34 -38.37,23.24 -60,29.2 -50.45,14.84 -101.92,25.97 -154,33.3 -25.2,3.67 -50.47,6.66 -75.8,9 l 13,-17.1 6.6,44.1 c 1.8,12.4 3.9,25.1 -4.7,35.5 -7.29,7.43 -17.11,11.85 -27.5,12.4 -14.1,2.1 -28.3,3.6 -42.5,4.5 -56.65,3.54 -113.48,-3.24 -167.7,-20 -4.7,-1.3 -7.45,-6.16 -6.15,-10.85 1.3,-4.69 6.15,-7.45 10.85,-6.15 h -0.4"
         style="fill:#040606;fill-opacity:1;fill-rule:nonzero;stroke:none"
         id="path28" /><path
         d="m 3131.81,4456.49 c 11.21,-70.14 39.09,-136.57 81.3,-193.7 14.2,-19.2 30,-47.5 12.2,-63.8 -5.47,-4.07 -11.33,-7.59 -17.5,-10.5 -25,-15.8 -25.4,-51.4 -23.9,-81 3.3,-62.9 -1.2,-133.6 -47.1,-176.7 -45.9,-43.1 -115,-43.4 -175.9,-32.1 -167.3,31.1 -325.9,149.5 -365.9,314.9 -18.7,77.4 -10.8,159.5 11.8,235.9 16.9,56.8 42.8,112.7 86,153.4 77.9,73.4 201.5,83.3 301,43.9 68.1,-27 133.7,-117.2 138,-190"
         style="fill:#ffffff;fill-opacity:1;fill-rule:nonzero;stroke:none"
         id="path30" /><path
         d="m 2602.81,4215.69 c -14.6,71.2 -7.1,145.3 11.5,215 16.6,62.2 43.3,125.1 92.6,168.5 43.84,36.52 98.85,56.96 155.9,57.9 54.2,1.9 115.3,-8.6 160,-40.6 50.6,-36 91.4,-98 99.5,-160 1.5,-11.3 18.5,-12.2 18.4,0 -0.8,61.2 -38.1,121.5 -82.1,162 -45.8,42.1 -106.9,60 -168.2,63 -63.07,4.3 -125.8,-12.29 -178.5,-47.2 -56.8,-40 -91.1,-101.2 -112.3,-165.7 -27.4,-83.1 -35.2,-171.9 -12.6,-257.1 1.16,-4.28 5.57,-6.81 9.85,-5.65 4.28,1.16 6.81,5.57 5.65,9.85 h 0.3"
         style="fill:#040606;fill-opacity:1;fill-rule:nonzero;stroke:none"
         id="path32" /><path
         d="m 3123.81,4456.49 c 6.16,-54.26 22.91,-106.79 49.3,-154.6 12.8,-22.7 31,-42.8 42.4,-66.2 4.7,-10 9.1,-21.9 -1,-29.4 -10.1,-7.5 -20,-10.7 -27.9,-21 -11.33,-17.58 -16.76,-38.32 -15.5,-59.2 0,-23.8 2.1,-47.5 0.8,-71.4 -2.6,-46.5 -15.4,-96.6 -55.5,-124.9 -45,-31.7 -103.6,-27.3 -155.5,-21.9 -10,1.1 -12.2,-15.5 -2.4,-18 47.8,-12.5 102.3,-13.7 148.2,6.6 45.9,20.3 74.5,64.6 84.4,113.8 4.71,25.28 6.69,51 5.9,76.7 0,23.2 -4.5,48.2 2.8,70.8 3.46,10.64 11.22,19.34 21.4,24 10.77,4.74 19.02,13.83 22.7,25 7.1,25.4 -11.5,50 -25.3,69.2 -38.54,54.64 -65.3,116.68 -78.6,182.2 -1.8,8.7 -16.9,6.9 -15.7,-2.1 l -0.5,0.4"
         style="fill:#040606;fill-opacity:1;fill-rule:nonzero;stroke:none"
         id="path34" /><path
         d="m 3110.01,4333.29 c -1.16,-0.54 -2.3,-1.14 -3.4,-1.8 -1.76,-0.99 -3.4,-2.16 -4.9,-3.5 -2.59,-2.07 -4.68,-4.7 -6.1,-7.7 -0.96,-1.68 -1.64,-3.5 -2,-5.4 -0.35,-1.44 -0.55,-2.92 -0.6,-4.4 0.09,-1.48 0.3,-2.95 0.6,-4.4 0.83,-3.89 2.9,-7.4 5.9,-10 l 2.4,-1.9 c 1.35,-0.85 2.9,-1.34 4.5,-1.4 2.62,-0.39 5.29,0.1 7.6,1.4 l 2.4,1.7 2.3,2 c 1.98,2.2 3.47,4.79 4.4,7.6 0.73,1.95 1.07,4.02 1,6.1 0.03,1.48 -0.14,2.96 -0.5,4.4 v 1.7 c -0.61,2.07 -1.71,3.95 -3.2,5.5 l -2.6,1.9 c -5.91,3.46 -13.5,1.48 -16.97,-4.43 l -0.73,-1.47 c -1.72,-3.46 -1.76,-7.51 -0.1,-11 l -1.2,3 0.5,-2 -0.5,3.3 v -2 l 0.5,3.3 -0.6,-1.9 1.3,2.9 -1,-1.8 1.9,2.5 -1.4,-1.4 2.4,1.8 h -0.5 12.1 l 2.5,-1.8 -1.4,1.4 1.8,-2.4 -1,1.7 1.2,-2.8 c -0.47,1.26 -0.81,2.57 -1,3.9 v -3 c -0.1,1.07 -0.1,2.14 0,3.2 v -2.9 c 0.22,1.2 0.56,2.37 1,3.5 l -1,-2.4 c 1.54,3.1 3.39,6.05 5.5,8.8 l 0.8,1.9 c 0.3,1.08 0.3,2.22 0,3.3 -0.17,1.77 -0.94,3.43 -2.2,4.7 -2.73,2.51 -6.76,3 -10,1.2 l 0.3,-0.9"
         style="fill:#040606;fill-opacity:1;fill-rule:nonzero;stroke:none"
         id="path36" /><path
         d="m 2854.41,4298.19 c 1.1,0 0,0 -0.6,0 h 1.2 -0.6 1 c 0.9,0 -1.5,0.9 0,0 l 0.9,-0.6 c 0.9,-0.5 0,0 0,0 l 1,-0.9 0.7,-0.7 c 0.6,-0.7 -1,1.6 0,0 l 1.1,-1.9 0.5,-1.1 c 0,1.1 -0.5,1.3 0,0.7 v -0.5 l 0.7,-2.5 c 0,-1.5 0.8,-3.1 1.1,-4.7 0.3,-1.6 0,-0.7 0,-1.1 0,-0.4 0,2.2 0,0 0,-2.2 0,-1.5 0,-2.3 v -2.5 -1.1 l -0.5,-2.2 c -0.5,-0.7 -0.8,-1.8 0,-0.6 0.8,1.2 0,0 0,-0.5 l 11.8,3.1 c 1.1,-0.9 1.4,-1.2 1,-0.7 -0.4,0.5 0,0 0.7,-1 0,0 -0.7,1.5 0,0 0.7,-1.5 0,0 0,0 0,-1.6 0,-2.1 0,-1.4 v 0.6 c 0,0 -0.6,-2.6 0,-1 0.6,1.6 0,-0.8 0,-0.8 v 0.5 l -0.8,-1.1 c 1,1.1 -1.9,-1.2 -0.6,0 4.24,2.59 5.66,8.08 3.2,12.4 -2.52,4.27 -8.02,5.7 -12.3,3.2 -2.11,-1.36 -3.86,-3.21 -5.1,-5.4 -1.16,-2.29 -1.75,-4.83 -1.7,-7.4 0.13,-5.04 2.7,-9.7 6.9,-12.5 4.12,-2.36 9.37,-0.98 11.8,3.1 2.24,4.77 3.24,10.04 2.9,15.3 -0.28,4.74 -1.22,9.42 -2.8,13.9 -1.65,5.37 -4.93,10.09 -9.4,13.5 -4.44,3.14 -10.04,4.16 -15.3,2.8 -4.22,-1.12 -6.72,-5.46 -5.6,-9.67 l 0.1,-0.33 c 1.19,-4.25 5.61,-6.73 9.87,-5.54 l 0.13,0.04 -1.3,0.9"
         style="fill:#040606;fill-opacity:1;fill-rule:nonzero;stroke:none"
         id="path38" /><path
         d="m 2592.41,3760.39 c 20,45.07 38.1,90.96 54.3,137.7 8.1,23.7 15.5,47.7 22.5,71.8 7,24.1 15,48.2 19.5,72.7 2.7,14.5 -18.4,20.8 -22.3,6.2 -6.5,-24.3 -10.6,-49.2 -16.9,-73.4 -6.3,-24.2 -13,-46.9 -20,-70 -14.8,-47.07 -31.8,-93.37 -51,-138.9 -3.4,-8 10.6,-14 14.2,-6 l -0.3,-0.1"
         style="fill:#040606;fill-opacity:1;fill-rule:nonzero;stroke:none"
         id="path40" /><path
         d="m 3071.51,4375.49 c 1.69,0.33 3.36,0.76 5,1.3 l 4.8,1.8 c 3.4,1.1 6.9,2.1 10,2.9 l 5.1,1 h 2.6 c -1.5,0 -1.6,0 -0.5,0 h 2.1 2.1 c -1.5,0 -1.7,0 -0.5,0 h 2.6 5.5 c 5.69,0 10.3,4.61 10.3,10.3 0,5.69 -4.61,10.3 -10.3,10.3 -8.22,-0.42 -16.36,-1.9 -24.2,-4.4 -4,-1.3 -8,-2.9 -11.9,-4.6 -1.7,-0.8 -3.4,-1.5 -5,-2.4 -2.05,-1.3 -3.96,-2.81 -5.7,-4.5 -2.52,-2.51 -3.06,-6.4 -1.3,-9.5 1.85,-3.03 5.45,-4.52 8.9,-3.7 l 0.4,1.5"
         style="fill:#040606;fill-opacity:1;fill-rule:nonzero;stroke:none"
         id="path42" /><path
         d="m 3078.41,4146.89 c -0.29,-2.64 -0.12,-5.32 0.5,-7.9 0.53,-2.07 1.16,-4.1 1.9,-6.1 1.71,-4.45 3.82,-8.73 6.3,-12.8 2.6,-4.04 5.62,-7.79 9,-11.2 1.5,-1.5 3.1,-2.9 4.7,-4.3 1.25,-1.11 2.58,-2.11 4,-3 1.6,-0.8 3.4,-1.4 5,-2.1 5.31,-1.52 10.84,1.56 12.36,6.87 0.97,3.4 0.08,7.06 -2.36,9.63 -1.91,1.74 -3.91,3.38 -6,4.9 l -2.4,1.7 c 2.6,-1.8 0,0 -0.7,0.6 l -4.2,3.9 -1.9,2.2 -1.1,1.3 c 0,0 -1.3,1.6 0,0 l -0.8,1.2 -1.6,2.4 c -1,1.7 -2,3.4 -2.8,5.1 l -0.6,1.3 c 0,0 0,1.8 0,0.6 0,-1.2 0,0 0,0.5 l -0.5,1.4 c -0.9,2.4 -2.2,4.5 -3.3,6.8 -1.79,2.81 -5.16,4.18 -8.4,3.4 -3.17,-1 -5.36,-3.88 -5.5,-7.2 l -1.6,0.8"
         style="fill:#040606;fill-opacity:1;fill-rule:nonzero;stroke:none"
         id="path44" /><path
         d="m 2681.81,4640.19 c 39,69 126.4,100 205.1,90.7 78.7,-9.3 149.5,-53 210.5,-103.6 16.7,-13.8 34,-30 36.6,-51.9 3.4,-30 -21.9,-54.1 -46.2,-71.1 -42.03,-29.5 -88.11,-52.78 -136.8,-69.1 -6.82,-1.36 -12.88,-5.21 -17,-10.8 -4.6,-8.5 1.1,-19 0,-28.7 -0.9,-13.4 -13.3,-22.5 -22.3,-32.5 -9,-10 -14,-27.9 -2.8,-35.3 -13.94,34.16 -52.92,50.56 -87.08,36.63 -34.16,-13.94 -50.56,-52.93 -36.63,-87.09 0.59,-1.43 1.23,-2.85 1.91,-4.24 9.72,-17.77 24.56,-32.2 42.6,-41.4 7.03,-3.04 13.06,-8 17.4,-14.3 2.48,-5.73 3.35,-12.02 2.5,-18.2 -1.7,-26.8 -9.2,-53.7 -4.7,-80 8,-46.9 52.2,-84.6 50,-132.1 -1.7,-33 -25.9,-60.8 -32,-93.2 -6.4,-34.1 7.7,-68.8 6.1,-103.5 -2.8,-57.4 -50.9,-106 -106.2,-121.7 -55.3,-15.7 -115.4,-3.3 -167.7,20.7 -29.2,13.5 -57.3,30.8 -89,36.7 -22.2,4.2 -45.2,2.6 -67.7,5.6 -56.77,8.06 -105.65,44.19 -130,96.1 -10.6,23.4 -17.1,50.8 -37.9,65.9 -10.42,6.17 -21.24,11.61 -32.4,16.3 -37.3,20 -54.5,66.9 -48.9,108.9 5.6,42 30,79.3 58.6,110.5 28.6,31.2 62,57.7 91,88.6 40.19,42.66 71.53,92.86 92.2,147.7 15.5,41.3 24.9,84.9 41.7,125.8 33,80 105.5,152.6 192.3,151.8"
         style="fill:#040606;fill-opacity:1;fill-rule:nonzero;stroke:none"
         id="path46" /><path
         d="m 2688.71,4636.19 c 28.5,47.4 80,74.7 133.3,82.9 59.2,9 120,-9.1 172,-36.9 28.54,-15.44 55.58,-33.48 80.8,-53.9 20,-15.8 52.1,-37.6 44.8,-67.1 -7.3,-29.5 -41,-47.8 -64.3,-62.3 -27.63,-17.19 -56.82,-31.73 -87.2,-43.4 -14,-5.4 -34.2,-8.6 -43.6,-21.6 -4.05,-5.85 -5.96,-12.91 -5.4,-20 0,-7.3 3.8,-14.7 0.9,-21.8 -2.9,-7.1 -11.8,-13.6 -17.2,-20 -4.32,-4.95 -7.71,-10.64 -10,-16.8 -5.84,-12.63 -2.94,-27.57 7.2,-37.1 5.36,-4.94 13.71,-4.6 18.65,0.77 3.8,4.12 4.58,10.18 1.95,15.13 -14.97,30.07 -46.47,48.27 -80,46.2 -33.49,-3.08 -61.25,-27.25 -68.9,-60 -8.9,-36.6 8.7,-68.6 38,-90 8.63,-4.53 16.86,-9.78 24.6,-15.7 7.8,-8.3 2.3,-25.5 0.7,-35.4 -4.58,-22.15 -5.22,-44.93 -1.9,-67.3 7.6,-37.2 35.4,-66 45.3,-102.2 11.2,-41.1 -22,-73.6 -30,-112 -8.6,-43.2 13.6,-86.8 1,-129.4 -11.71,-34.62 -37.44,-62.71 -70.9,-77.4 -39.5,-18.5 -85.9,-16.6 -127.1,-5.6 -43.9,11.6 -81.3,37.9 -124.3,51.3 -41.1,12.7 -85,3.5 -125.1,20.6 -34.41,14.68 -62.41,41.22 -78.9,74.8 -6.7,17.26 -14.31,34.15 -22.8,50.6 -10.94,16.48 -26.84,29.05 -45.4,35.9 -33.21,15.51 -53.69,49.6 -51.8,86.2 1.1,90 94.5,146.9 149,206 29.41,31.84 54.18,67.65 73.6,106.4 20,40.8 32.1,84.2 45.8,127.4 22.8,72.4 65.9,147.3 141.2,174.9 16.83,6.23 34.49,9.97 52.4,11.1 7.04,0.62 12.24,6.84 11.62,13.88 -0.55,6.18 -5.45,11.07 -11.62,11.62 -78.3,3.8 -145,-52.5 -183.9,-116 -23.2,-37.9 -35.5,-80.6 -48.3,-122.8 -12.35,-43.78 -30.62,-85.67 -54.3,-124.5 -25.53,-38.5 -56.03,-73.47 -90.7,-104 -33.2,-30.7 -67,-61.8 -90,-101.4 -21.29,-34.26 -28.93,-75.27 -21.4,-114.9 7.92,-37 33.53,-67.74 68.5,-82.2 18.37,-7.95 32.46,-23.39 38.7,-42.4 6.5,-18.01 14.85,-35.3 24.9,-51.6 22.09,-32.03 53.51,-56.48 90,-70 41.6,-15.7 86.8,-6.5 128.3,-21.7 22.2,-8.1 42.6,-20 64.2,-30 20.77,-9.54 42.49,-16.88 64.8,-21.9 80,-17.3 172.9,5.1 213.2,82.8 8.65,16.56 13.76,34.75 15,53.4 1.5,23.5 -4.5,46.3 -7,70 -2.46,22.55 1.56,45.35 11.6,65.7 9.65,17.96 16.4,37.33 20,57.4 4.4,39.4 -20,72.2 -37.3,105.4 -10.58,19.3 -15.34,41.25 -13.7,63.2 1.5,21.3 9.4,46.7 3.1,67.7 -5.8,19.4 -28.1,25.5 -42.3,37.1 -14.95,10.91 -24.03,28.1 -24.6,46.6 -0.53,29.49 22.95,53.82 52.44,54.34 5.4,0.1 10.78,-0.62 15.96,-2.14 16.07,-4.78 29.14,-16.53 35.6,-32 l 20.6,15.9 c -10,8.2 10.8,24.5 15.8,30 10.07,10.38 14.63,24.92 12.3,39.2 -1.3,10 -2,12.2 7.8,15.8 9.8,3.6 16.6,5.8 24.8,9 16.13,6.2 31.93,13.16 47.4,20.9 30.64,14.47 59.41,32.6 85.7,54 22.1,18.9 40.6,46.1 34.1,76.5 -6.5,30.4 -35.1,51.3 -58.5,69.4 -25.33,19.83 -52.33,37.44 -80.7,52.6 -55.9,29.2 -117.3,45.2 -180,36.3 -62.7,-8.9 -121,-41.4 -152.1,-96.9 -1.91,-3.98 -0.23,-8.76 3.75,-10.67 3.55,-1.71 7.81,-0.57 10.05,2.67 l -0.2,-0.6"
         style="fill:#040606;fill-opacity:1;fill-rule:nonzero;stroke:none"
         id="path48" /><path
         d="m 6627.51,4649.69 c -60,-74.3 -41.3,-198.2 -111.1,-263 -7.13,-5.43 -13.12,-12.24 -17.6,-20 -7.6,-16.7 2.2,-32.6 16.7,-45 27.59,-23.6 17.3,-69.5 15.3,-101.9 -2,-34.1 -6.7,-68.5 -6.8,-102.7 0,-29.3 6,-60 25.1,-81.5 15.71,-16.49 36.61,-27.08 59.2,-30 33.2,-5.3 66.89,1.9 100,-2.5 11.53,-0.02 22.6,-4.58 30.8,-12.7 4.1,-6.71 6.44,-14.34 6.8,-22.2 5.6,-44 10.6,-88.07 15,-132.2 0.14,-11.54 3.62,-22.79 10,-32.4 9.1,-11.1 24.69,-13.1 38.8,-13.6 109.33,-2.82 215.06,39.16 292.7,116.2 7.77,6.35 13.15,15.17 15.2,25 -0.37,10.14 -3.87,19.91 -10,28 -43.91,80.38 -68.11,170.04 -70.6,261.6 -5.9,144.5 88,314.7 7.1,450 -19.09,31.83 -47.56,56.97 -81.5,72 -57.43,23.81 -120.81,29.33 -181.5,15.8 -53.6,-11.3 -125.3,-39.3 -144.9,-98.7"
         style="fill:#ffffff;fill-opacity:1;fill-rule:nonzero;stroke:none"
         id="path50" /><path
         d="m 6621.41,4655.69 c -51.4,-63.1 -46.9,-148.5 -82.4,-218.8 -8.36,-16.78 -19.83,-31.81 -33.81,-44.3 -16.09,-14.5 -26.69,-32.8 -17.39,-54.5 8.2,-19.1 28,-27.9 32.5,-49.1 2.5,-18.84 2.2,-37.95 -0.9,-56.7 -2.5,-26 -4.5,-52.2 -6.4,-78.3 -2.68,-25.33 -1.83,-50.9 2.5,-76 9.1,-45.05 46.23,-79.07 91.9,-84.2 27.3,-4.1 54.6,-0.5 82,-1.2 11.11,0.5 22.22,-0.99 32.8,-4.4 13.1,-5.3 12,-22.3 13.5,-34.3 3.66,-29.33 6.99,-58.7 10,-88.1 2.3,-21.7 0.8,-50 14.49,-68 13.71,-18 35.4,-19.4 55.31,-20 23.13,-0.34 46.26,1.33 69.1,5 69.02,11.21 134.09,39.66 189.2,82.7 18.6,12.69 35.05,28.29 48.7,46.2 14.6,22.5 1.7,42.7 -9.41,63.3 -12.34,22.88 -22.81,46.72 -31.29,71.3 -17.05,49.31 -27.54,100.65 -31.21,152.7 -2.63,45.54 0.46,91.23 9.21,136 15.5,88.4 42,180.6 22.3,270.6 -8.78,43.87 -31.05,83.91 -63.7,114.5 -36.34,30.66 -81.1,49.62 -128.4,54.4 -45.43,5.67 -91.52,2.02 -135.5,-10.7 -36.5,-10 -73.7,-26.6 -100,-55.1 -12.29,-13.21 -21.54,-28.94 -27.1,-46.1 -3.6,-11.2 13.5,-15.5 17.5,-4.8 13,35 46.2,57 79.1,71.5 36.24,15.62 75.14,24.17 114.6,25.2 47.13,2.7 94.09,-7.68 135.7,-30 37.35,-22.31 65.3,-57.47 78.6,-98.9 27.4,-81 5.7,-169.3 -10,-250 -9.17,-41.45 -15.12,-83.54 -17.8,-125.9 -1.57,-92.87 18.29,-184.84 57.99,-268.8 4.71,-10 10,-19.4 15.31,-28.9 7.5,-13.5 8.6,-22.1 -2.3,-33.7 -15.15,-15.98 -31.9,-30.35 -50,-42.9 -35.59,-25.27 -75.09,-44.52 -116.9,-57 -41.48,-13.53 -85.25,-18.56 -128.7,-14.8 -9.53,-0.06 -18.38,4.97 -23.21,13.2 -3.93,12 -5.89,24.56 -5.79,37.2 -2.8,26.9 -5.91,53.9 -9.1,80.8 -2.4,20 -0.9,48.6 -14.6,65 -13.7,16.4 -35.51,16.7 -53.7,17.6 -45.2,2.3 -102.3,-11.5 -136.41,27.6 -31.09,35.7 -21.29,93.3 -17.5,136.3 1.91,22.1 3.51,44.1 5.31,66.2 2.27,17.69 1.33,35.65 -2.81,53 -2.06,7.53 -5.44,14.65 -10,21 -7.28,7.3 -14.19,14.98 -20.69,23 -11.9,20 14.09,33.9 25.1,47.5 46.6,57.6 45.59,136.5 70,203.5 6.2,17.41 15.04,33.76 26.2,48.5 6.6,8.6 -5.1,20.8 -12.2,12.1 l 0.3,-0.4"
         style="fill:#040606;fill-opacity:1;fill-rule:nonzero;stroke:none"
         id="path52" /><path
         d="m 6653.01,3716.39 c -17.1,34.8 -34.1,77.1 -14.2,110 8.8,12.8 20.26,23.55 33.6,31.5 118.8,80 263,113 405,132.8 25.69,5.11 52.08,5.48 77.9,1.1 25.4,-5.9 50,-22.5 58.1,-47.3 6.1,-18.9 5.09,-44.4 23.3,-52.3 7.6,-2.45 15.69,-2.87 23.49,-1.2 138.74,17.35 279.53,7.15 414.31,-30 48.3,-13.4 97.2,-31.1 133.6,-65.7 36.4,-34.6 57.3,-84.6 74,-133 46.2,-134.1 72.1,-288.4 4.4,-413 -37.3,-68.5 -98.81,-120 -160,-168.1 -123.1,-96.7 -254.1,-188.3 -403.7,-234.3 -104.31,-32 -214.2,-40.7 -323.1,-49.1 -163.6,-12.8 -327.4,-25.5 -491.5,-29.41 -45.3,-0.99 -91.4,-1.29 -135.2,10.51 -43.8,11.8 -85.71,37.5 -107.6,77.3 -20,36.2 -21.2,79.3 -22,120.6 l -6.11,313 c -1.39,73.3 -2.29,149.5 28.41,216 31.7,68.9 94.2,120 162.2,153.2 68,33.2 142.1,52.3 214.9,73.7 6.3,1.8 14,5.6 13.5,12.2 -0.5,6.6 -14.1,1.8 -8.5,-1.8 l 5.2,-26.7"
         style="fill:#040606;fill-opacity:1;fill-rule:nonzero;stroke:none"
         id="path54" /><path
         d="m 6661.31,3721.29 c -14.7,31.8 -34.1,77.3 -5.71,107.4 13.49,12.69 28.59,23.55 44.91,32.3 17.1,10 34.69,20 52.59,28.5 71.31,32.69 146.48,56.21 223.71,70 39.3,7.8 79.1,14.7 118.9,19.1 33.9,3.7 78.4,3.9 99.1,-28.8 15.7,-25 6.3,-65.4 43.6,-73.4 18.8,-4 40.7,2.2 60,3.9 22.1,1.9 44.2,3.2 66.4,3.7 86.61,2.23 173.16,-6.24 257.7,-25.2 75.1,-17 157.5,-38.5 202.5,-106.4 19.24,-31.27 34.39,-64.88 45.1,-100 12.27,-36.61 22.26,-73.95 29.9,-111.8 15,-73.6 19,-151.6 -2.6,-224.3 -22.21,-75.1 -73.1,-133.1 -131.5,-183.2 -60.06,-51.37 -123.14,-99.08 -188.9,-142.9 -66.29,-45.75 -137.63,-83.7 -212.61,-113.1 -80.25,-28.56 -163.82,-46.77 -248.69,-54.2 -88.1,-9.2 -176.6,-14.9 -264.9,-21.3 -90.9,-6.6 -182,-12.3 -273.11,-15.7 -44.19,-1.6 -88.79,-4 -133.09,-1.9 -38.83,0.41 -77.03,9.82 -111.6,27.5 -31.79,16.72 -55.48,45.57 -65.7,80 -11,40 -8.7,82 -10,122.5 l -5.4,270.8 c -1.6,78.9 -4.21,163.4 36.6,233.99 35.9,62.01 96.9,105.01 160.9,134.41 39.19,17.3 79.51,31.9 120.7,43.7 20,6.1 40,11.9 60,17.8 13.5,4.1 34.1,7.6 38.4,23.9 2.81,9.59 -2.69,19.65 -12.29,22.46 -3.26,0.95 -6.74,0.97 -10.01,0.04 -8.84,-1.39 -14.88,-9.68 -13.5,-18.51 0.55,-3.46 2.19,-6.65 4.7,-9.09 5.62,-4.99 14.21,-4.48 19.2,1.13 4.58,5.16 4.58,12.92 0,18.07 l 2.2,-3.8 -1.4,-10.5 c -6.6,-11.1 -10,10 -14.2,10 -1,0 -2.3,-1.4 -3.5,-1.6 -5.01,-1.14 -9.95,-2.58 -14.8,-4.3 l -31.3,-8.8 c -20.9,-5.9 -41.8,-11.8 -62.5,-18.3 -40.48,-12.33 -79.82,-28.12 -117.6,-47.2 -63.9,-32.9 -123.5,-81.4 -156.6,-146.3 -37.7,-74 -36.1,-158.8 -34.6,-240 1.8,-92.7 3.4,-185.4 5.3,-278.2 0.8,-40.7 0,-83.1 11.1,-122.6 10.47,-35.18 32.71,-65.67 63,-86.4 70,-49 160,-43.2 241.2,-40.7 92.8,3 185.5,8.5 278.09,15.1 92.61,6.6 182.41,12.8 273.41,21.6 86.99,8.5 174.3,21.2 257.2,50 77.49,27.68 151.36,64.61 220,110 68.12,44.45 133.65,92.72 196.3,144.6 60,49.2 116,105.21 146.39,177.9 30.41,72.69 33.11,150.8 22.91,226.8 -10.23,78.27 -31.96,154.59 -64.51,226.5 -14.95,34.77 -37.78,65.58 -66.7,90 -30.95,23.5 -66.01,41.03 -103.39,51.7 -83.6,25.72 -170.12,40.68 -257.5,44.5 -44.29,2.2 -88.68,1.6 -132.9,-1.8 -11.1,-0.8 -22.1,-1.9 -33.1,-3.1 -10.19,-1.91 -20.53,-2.98 -30.9,-3.2 -15.5,1.1 -15.5,22.5 -18.2,34.2 -8.24,32.92 -34.31,58.39 -67.4,65.9 -40,10.8 -84.8,0.8 -125.3,-5.6 -79.76,-11.39 -158.07,-31.27 -233.6,-59.3 -37.06,-14.11 -72.85,-31.34 -107,-51.5 -30,-17.9 -67,-38.4 -75.8,-75.1 -8.8,-36.7 7.99,-71.3 23.8,-102.1 5.7,-11.2 21.8,-1.4 16.6,10 v 0.2"
         style="fill:#040606;fill-opacity:1;fill-rule:nonzero;stroke:none"
         id="path56" /><path
         d="m 6614.71,4429.79 -1.7,-1.4 0.9,0.6 -2.2,-1 h 1.1 -2.61 l 4.51,0.5 h -2.8 1.7 -2.8 1.4 l -2.5,1 1.3,-0.8 -2.1,1.7 1.29,-1.4 -1.69,2.3 1.3,-2.3 -1.2,2.6 c 0.48,-1.12 0.82,-2.3 1,-3.5 l -0.5,3 c 0.2,-0.96 0.2,-1.94 0,-2.9 l 0.5,3.1 -0.7,-2.5 1.2,2.8 -1,-1.7 1.8,2.4 -1,-1 2.4,1.8 -1.2,-0.7 2.9,1.2 h -1.1 l 3.2,0.5 h -1.3 3.2 -1.5 l 2.89,-1.3 -1.3,0.8 2.5,-1.9 -0.89,0.9 1.9,-2.5 v 0.9 l 1.2,-2.9 v 0.7 c -0.64,2.1 -1.78,4.02 -3.3,5.6 l 1.8,-2.4 v 0.6 l 1.2,-2.7 v 0.6 c -1.08,3.79 -4.02,6.78 -7.8,7.9 -3.92,1.02 -8.09,-0.08 -11,-2.9 -1.72,-1.78 -2.99,-3.94 -3.7,-6.3 -0.66,-2.26 -0.66,-4.65 0,-6.9 0.41,-1.27 0.92,-2.5 1.5,-3.7 1.61,-2.73 3.97,-4.95 6.8,-6.4 2.32,-1.21 4.88,-1.9 7.5,-2 1.65,-0.3 3.34,-0.3 5,0 4.14,1.12 7.71,3.76 10,7.4 0.87,1.37 1.54,2.85 2,4.4 l 0.6,2.3 c 0.2,1.69 0.2,3.41 0,5.1 -0.09,1.71 -0.32,3.42 -0.71,5.1 -0.97,3.27 -2.68,6.28 -5,8.8 -2.22,2.49 -5.09,4.32 -8.3,5.3 -1.25,0.26 -2.52,0.43 -3.8,0.5 h -1.2 c -2.49,-0.1 -4.92,-0.78 -7.1,-2 -1.69,-0.99 -3.13,-2.36 -4.2,-4 l -0.49,-1 c -1.12,-1.95 -1.69,-4.16 -1.7,-6.4 0.06,-3.42 2.14,-6.49 5.3,-7.8 1.37,-0.64 2.9,-0.85 4.39,-0.6 1.88,0.22 3.63,1.02 5,2.3 l -0.89,0.2"
         style="fill:#040606;fill-opacity:1;fill-rule:nonzero;stroke:none"
         id="path58" /><path
         d="m 6592.51,4495.99 c 3.15,-2.56 7.15,-3.85 11.2,-3.6 3.4,0 -2.4,0.6 0,0 l 3.1,-0.8 -3.6,1.5 c 5.85,-2.89 11.9,-5.37 18.1,-7.4 l -4.5,2 5.5,-2.5 -4.1,3.1 0.6,-0.5 c 7.9,-7.93 20.72,-7.95 28.65,-0.05 7.92,7.9 7.95,20.72 0.05,28.65 -2.49,2.5 -5.6,4.29 -9,5.2 -4.63,1.82 -9.47,3.1 -14.4,3.8 -6.37,1.24 -12.82,1.97 -19.3,2.2 -11.32,0 -20.5,-9.17 -20.51,-20.49 0,-5.44 2.15,-10.66 6.01,-14.51 3.97,-3.65 9.1,-5.78 14.5,-6 l 6.5,-0.8 -5.4,0.8 c 12.08,-1.59 23.91,-4.71 35.2,-9.3 l -4.9,2.1 c 2.7,-1.38 5.51,-2.52 8.4,-3.4 l -4.9,37.7 -3.2,-1.5 c -5.74,-3.32 -9.25,-9.47 -9.2,-16.1 0.06,-6.58 3.55,-12.64 9.2,-16 l 3.2,-2 c 9.84,-5.7 22.43,-2.39 28.2,7.4 5.47,9.87 2.21,22.29 -7.4,28.2 -4.92,2.54 -10.12,4.48 -15.5,5.8 -3.9,1.2 -7.8,2.4 -11.7,3.4 -9.38,2.27 -18.9,3.84 -28.5,4.7 v -41 c 3.8,0 7.5,0 11.21,-0.9 l -5.51,0.7 c 5.83,-0.97 11.6,-2.24 17.3,-3.8 l 5.3,40 h -1.6 l 5.2,-0.7 c -10.8,1.5 -23.9,3.9 -33.5,-2.5 l 3.61,1.5 c -3.54,-1.32 -6.9,-3.07 -10,-5.2 -2.75,-1.67 -4.94,-4.1 -6.31,-7 -1.91,-4.17 -1.07,-9.09 2.1,-12.4 l -0.1,-0.3"
         style="fill:#040606;fill-opacity:1;fill-rule:nonzero;stroke:none"
         id="path60" /><path
         d="m 6895.51,4411.39 c -10.24,-0.49 -19.27,-6.84 -23.2,-16.3 -3.49,-5.58 -4.47,-12.36 -2.7,-18.7 1.61,-4.49 5.65,-7.68 10.4,-8.2 5.14,-0.19 9.76,3.09 11.3,8 1.46,4.89 -0.29,10.17 -4.41,13.2 -5.05,3.74 -12.02,3.49 -16.79,-0.6 -3.68,-3.75 -3.63,-9.76 0.12,-13.43 1.14,-1.13 2.54,-1.94 4.08,-2.37 2.07,-0.55 4.23,-0.55 6.29,0 h -2.59 2 -2.6 0.8 l -2.3,1 0.9,-0.5 -2,1.5 v -0.5 l -1.5,2 v -0.8 l -1,2.3 v -0.6 2.5 -0.6 2.6 -0.6 l 1,2.3 1.5,1.9 1.9,1.5 2.2,1 h 2.5 -1.4 2.5 l 2.29,-1 h -0.79 l 1.9,-1.4 1.5,-1.9 -0.51,0.9 1.01,-2.3 v 1.2 -2.5 1.6 -2.5 c 0.56,3.44 1.53,6.8 2.9,10 l -0.9,-2.1 c 0.79,1.76 1.76,3.44 2.9,5 l -1.4,-1.8 c 0.97,1.25 2.08,2.39 3.3,3.4 l -1.7,-1.3 c 1.1,0.91 2.35,1.62 3.7,2.1 l -2,-0.8 c 1.07,0.4 2.17,0.69 3.3,0.9 h -2.1 c 2.09,0.05 4.08,0.87 5.59,2.3 1.45,1.47 2.27,3.44 2.31,5.5 -0.06,4.34 -3.57,7.85 -7.9,7.9 l -0.4,0.2"
         style="fill:#040606;fill-opacity:1;fill-rule:nonzero;stroke:none"
         id="path62" /><path
         d="M 1209.82,11.1914 C 668.188,11.1914 199.129,387.211 81.3086,915.891 55.0078,1033.69 33.3125,1154.18 16.2109,1279.18 c -34.1015,249.01 -30.1015,546.01 170.2971,697.91 112.203,84.9 260,101.8 400,114.9 96.484,9.03 193.984,17.51 291.586,22.57 28.25,-401.95 93.886,-800.51 196.116,-1190.47 106.49,-403.277 407.21,-714.578 785.66,-844.2306 1.88,-2 4.53,-3.1797 7.33,-3.1797 0.55,0 1.11,0.0508 1.67,0.1406 C 1991.13,36 2121.39,14.0898 2255.71,14.0898 l 342.75,-0.3203 c 0.15,-0.8672 0.3,-1.707 0.45,-2.5781 h -1388.9 c -0.07,0 -0.12,0 -0.19,0 m 157.75,115.3206 c -1.13,0 -2.28,-0.231 -3.36,-0.723 l -37.2,-25.098 c -3.87,-2.0113 -5.38,-6.7808 -3.37,-10.6519 1.41,-2.7071 4.17,-4.2578 7.02,-4.2578 1.23,0 2.47,0.2773 3.64,0.8906 l 0.71,0.4179 37.4,24.6012 c 3.65,2.668 4.45,7.801 1.78,11.457 -1.58,2.172 -4.07,3.364 -6.62,3.364 m -371.961,-0.633 c -4.222,-0.469 -7.261,-4.289 -6.777,-8.508 0.41,-3.57 3.219,-6.383 6.777,-6.781 4.227,0.48 7.251,4.301 6.771,8.531 -0.4,3.551 -3.212,6.359 -6.771,6.758 M 446.102,1981.39 c -3.497,0 -6.875,-1.8 -7.493,-5.8 -40.898,-266.4 -8.699,-538.3 53.403,-798.8 31.699,-132.7 71.297,-263.399 114.297,-392.7 21.199,-63.5 42.8,-127 65.601,-190 17.699,-48.801 38.195,-99.012 74.5,-137.301 9.719,-10.258 20.586,-19.348 32.399,-27.098 12.097,-8.011 25.8,-13.601 37.601,-22.199 31,-22.402 16.899,-59.402 15.602,-91.301 -0.934,-57.293 33.836,-109.121 87.199,-130 1.273,-0.511 2.473,-0.742 3.574,-0.742 9.133,0 12.059,15.641 1.621,19.742 -52.195,20 -77.593,74 -71.398,127.7 3.004,25.8 7.5,53.699 -10,75.898 -15.403,20 -40.996,27.801 -60.899,42.301 -42.5,31.101 -66.402,81.402 -84.8,129.301 -22,57.8 -41.7,117.8 -61.801,177 -85,251.499 -159.399,509.399 -186.195,774.299 -15.426,146.97 -13.684,295.23 5.199,441.8 0.668,4.99 -3.961,7.9 -8.41,7.9 M 1116.23,771.73 c -4.75,0 -9.84,-3.921 -8.52,-10.039 38.98,-182.711 101.5,-359.582 186,-526.203 1.59,-3.109 4.12,-4.398 6.71,-4.398 5.75,0 11.8,6.34 8.49,13.301 -84.15,165.121 -146.54,340.441 -185.6,521.597 -0.88,4.004 -3.9,5.742 -7.08,5.742"
         style="fill:#ffffff;fill-opacity:1;fill-rule:nonzero;stroke:none"
         id="path64" /><path
         d="m 8283.49,22.3594 c -2.93,0 -5.85,0.0117 -8.78,0.0312 h -885.55 c 267.42,31.3008 512.05,149.5784 700.62,329.2614 -13.28,-45.55 -32.67,-89.281 -57.77,-129.961 -11.41,-18.3 -23.8,-36.101 -36.9,-53.203 -5.05,-6.558 2,-14.59 8.86,-14.59 2.24,0 4.46,0.852 6.23,2.891 55.55,63.512 92.45,142.16 110.3,225.191 141.89,145.09 248.72,326.532 304.87,532.301 0.5,-0.07 0.99,-0.101 1.48,-0.101 4.57,0 8.78,2.812 10.46,7.211 l 0.3,0.289 c 82.47,315.18 141.3,636.08 176,960.01 8.2,77.24 15.25,154.68 20.77,232.2 93.44,-5.11 186.75,-13.25 279.13,-21.9 139.99,-13.1 287.8,-30 400,-114.9 200.6,-151.9 204.59,-448.6 170,-697.91 -16.57,-121.12 -37.47,-238.02 -62.67,-352.34 -1.02,0.262 -2.05,0.398 -3.08,0.398 -4.36,0 -8.52,-2.429 -9.75,-8.039 v -0.41 C 9312.05,487.871 8977.03,150.441 8546.81,51.3906 8460.36,32.0898 8372.05,22.3594 8283.49,22.3594 M 8907.01,2022.69 c 83.59,-260 47.2,-540.5 5.6,-804.8 -22.13,-140.4 -48.8,-279.941 -80,-418.601 -13.6,-60 -24.51,-124.098 -49.2,-181.289 -9.88,-24.309 -24.27,-46.539 -42.4,-65.508 -19.21,-19.301 -43.8,-30.601 -65,-47.101 -24.75,-18.731 -38.94,-48.262 -38.1,-79.301 0.53,-33.281 -2.82,-66.5 -10,-99 -16.47,-63.461 -51.25,-120.668 -100,-164.5 -7.83,-7.039 -0.59,-17.391 7.77,-17.391 2.32,0 4.73,0.789 6.93,2.692 44.24,38.55 77.8,87.879 97.4,143.199 9.67,26.949 15.95,55 18.7,83.5 2.8,29.301 -5,65.699 11,91.902 14,23 41.2,34.399 62.5,49.297 21.66,15.391 39.96,35.031 53.8,57.699 30,49.004 42.6,107.012 55.7,162.391 33.33,141.48 61.67,284.051 85,427.711 22.2,136.1 42.5,273.4 48.89,411.3 7.01,152.3 -3.79,306.8 -52.09,452.3 -1.35,3.97 -4.69,5.71 -8.02,5.71 -5.05,0 -10.07,-4 -8.08,-10.21 h -0.4"
         style="fill:#ffffff;fill-opacity:1;fill-rule:nonzero;stroke:none"
         id="path66" /><path
         d="m 9408.01,918.789 c -95.96,-430.918 -430.98,-768.348 -861.2,-867.3984 -89.31,-19.9414 -180.6,-29.6718 -272.1,-29 h -1373.6 l 10.8,-14.10154 c 51.92,295.76194 126.3,587.14094 222.5,871.60194 48.5,143.999 102.3,286.399 162.2,426.099 56.75,136.27 120.91,269.34 192.2,398.6 40,71.7 87.9,139 151.9,191.5 63.33,49.74 134.23,89 210,116.3 13.3,5.1 7.5,26.6 -5.91,21.5 -66.93,-24.5 -130.42,-57.54 -188.89,-98.3 -58.71,-42.97 -109.08,-96.31 -148.61,-157.4 -39.61,-62.7 -75.46,-127.71 -107.29,-194.7 -33.33,-67.4 -65.4,-135.56 -96.2,-204.5 -61.87,-140 -117.97,-282.07 -168.3,-426.201 -50.74,-145.726 -95.9,-293.258 -135.5,-442.598 -38.94,-146.062 -72.27,-293.5 -100,-442.3004 -3.33,-17.9297 -6.67,-35.8281 -10,-53.6992 -1.55,-6.05077 2.1,-12.19921 8.14,-13.742181 l 2.56,-0.3593752 h 1356.5 c 69.5,-0.8085938 138.96,3.6093762 207.8,13.1992562 437.35,66.2422 799.7,374.0199 935.8,794.9019 11.2,34.598 20.76,69.641 28.7,105.098 3.1,14 -18.4,20 -21.5,5.91 v -0.41"
         style="fill:#040606;fill-opacity:1;fill-rule:nonzero;stroke:none"
         id="path68" /><path
         d="m 5418.31,11.0898 -667.2,0.6993 -667.2,-0.6993 v 1.3008 L 2598.46,13.7695 C 2503.21,560.039 2313.11,1147.77 2058.41,1640.19 c -41.9,80.9 -86.6,161.8 -150.5,226.7 -70.6,71.7 -161.5,120 -255.5,156.2 -51.55,19.7 -103.95,35.77 -157.05,48.73 -4.62,37.1 -9.1,74.23 -13.45,111.37 -25.7,220 -53.2,441.1 -57.3,662.4 -3.8,203.1 16.8,413.2 108.6,597.4 11.4,22.9 23.9,45.2 37.3,67 3.61,5.98 -1.76,11.57 -7.15,11.57 -2.36,0 -4.73,-1.08 -6.35,-3.67 v 0.3 c -107.2,-173.8 -144.3,-377.9 -149.5,-579.5 -5.6,-218.9 20,-438.7 44.1,-655.9 7.52,-68.82 15.52,-137.6 23.99,-206.3 -138.19,31.66 -280.8,42.85 -424.59,42.85 -57.518,0 -115.237,-1.79 -172.916,-4.78 -3.164,45.01 -5.86,90.04 -8.086,135.13 -16,326.1 -2.098,671.8 171.202,948.5 200.4,320.86 590.4,487.27 970.84,487.27 29.8,0 59.58,-1.02 89.16,-3.07 35.65,-2.47 71.1,-6.22 106.39,-11 -4.46,-7.35 -8.51,-15.13 -12.09,-23.4 -19.37,-46.29 -34.92,-94.08 -46.5,-142.9 -12.2,-49.21 -25.3,-102.8 -12.1,-153.1 11.3,-43 38.1,-81.4 66.4,-114.9 19.02,-22.07 39.74,-42.57 61.95,-61.35 0.7,-42.09 4.26,-83.62 8.45,-122.25 26.1,-240 54.6,-480.8 82.2,-721.1 27.6,-240.3 56.1,-483.4 84.5,-725.1 28.4,-241.7 57.5,-485.6 86.6,-728.399 29.1,-242.801 57.1,-483.301 87.6,-724.801 3.8,-30.602 7.67,-61.1994 11.6,-91.8009 0.75,-6.0196 5.91,-9.0703 10.68,-9.0703 4.73,0 9.07,3 8.32,9.0703 -28,238.2109 -57.5,476.3009 -86.1,714.4999 -28.6,238.201 -57.3,478.801 -85.6,718.201 -28.3,239.4 -56.1,476.6 -84,714.9 -27.9,238.3 -55.6,476.6 -83.1,715 -9.01,78.37 -20.47,157.06 -22.85,236.04 4.85,-3.76 9.77,-7.44 14.75,-11.04 73.4,-54.1 157,-93.9 241.1,-128.4 125.5,-51.45 261.35,-86.1 397.08,-86.1 62.4,0 124.77,7.32 186.12,23.7 72.15,19.26 146.78,50.89 202.16,102.93 -22.11,-311.5 -5.89,-625.29 16.94,-936.83 31.7,-430 66.9,-860.5 100.5,-1290.698 18.9,-241.902 36.4,-484.101 57,-725.902 0.55,-6.379 5.81,-9.5978 10.8,-9.5978 4.96,0 9.64,3.1678 9.2,9.5978 -30.7,431.801 -67.4,863.301 -101.2,1294.9 -16.74,212.93 -33.4,425.8 -50,638.6 -16.4,211 -31,422.4 -34.3,634.1 -2.05,135.09 0.36,270.44 9.93,405.24 2.51,2.83 4.97,5.72 7.37,8.66 56.4,69.1 70,162.7 58.8,250.6 -4.76,35.46 -13.25,70.32 -25.33,103.99 187,-14.05 375.31,-16.85 564.02,-16.85 62.61,0 125.29,0.31 187.96,0.62 62.66,0.3 125.32,0.61 187.98,0.61 142.26,0 284.45,-1.59 426.17,-8.37 141.66,6.78 283.79,8.37 426.05,8.37 62.64,0 125.31,-0.31 187.97,-0.61 62.69,-0.31 125.32,-0.62 187.97,-0.62 227.9,0 455.27,4.09 680.43,27.14 -12.9,-56.08 -11.78,-115.48 -10.72,-173.08 1.8,-92.7 3.4,-185.4 5.3,-278.2 0.8,-40.7 0,-83.1 11.1,-122.6 10.47,-35.18 32.71,-65.67 63,-86.4 4.79,-3.35 9.68,-6.45 14.65,-9.31 18.93,-223.85 31.85,-448.18 38.75,-672.79 12.49,-421.26 3.11,-842.91 -28.1,-1263.199 -17.73,-236.532 -42.37,-472.371 -73.9,-707.5 -0.85,-6.422 3.74,-9.602 8.74,-9.602 5.04,0 10.5,3.223 11.25,9.602 56.44,420 90.72,842.691 102.71,1266.299 11.85,423.43 1.26,847.19 -31.7,1269.5 -2.55,32.6 -5.24,65.18 -8.07,97.75 43.16,-18.98 91.38,-23.05 139.27,-23.05 22.8,0 45.52,0.92 67.6,1.6 92.8,3 185.5,8.5 278.09,15.1 92.61,6.6 182.41,12.8 273.41,21.6 86.99,8.5 174.3,21.2 257.2,50 6.2,2.21 12.37,4.49 18.52,6.82 23.83,-211.34 33.81,-424.04 29.88,-636.72 -4.16,-234.23 -25.35,-467.84 -63.4,-699 -5.54,-33.47 -11.94,-66.98 -18.27,-100.53 -4.88,-10.74 -9.72,-21.49 -14.53,-32.27 -61.87,-140 -117.97,-282.07 -168.3,-426.201 -50.74,-145.726 -95.9,-293.258 -135.5,-442.598 -38.94,-146.062 -72.27,-293.5 -100,-442.3004 -3.33,-17.9297 -6.67,-35.8281 -10,-53.6992 -0.04,-0.1523 -0.07,-0.293 -0.1,-0.4297 L 5418.31,12.3906 V 11.0898 M 5300.86,3383.8 c -4.05,0 -7.95,-2.5 -7.65,-7.5 v -0.01 c 24.6,-426.67 40.67,-853.8 48.2,-1281.4 7.53,-427.6 6.36,-855.03 -3.5,-1282.3 -5.66,-240 -14.06,-479.731 -25.21,-719.1994 -0.34,-6.6523 4.66,-9.9687 9.82,-9.9687 5.16,0 10.49,3.3164 10.79,9.9687 20,427.0004 30.97,854.2574 32.9,1281.7994 1.93,427.53 -4.97,854.93 -20.7,1282.2 -9.2,240 -21.23,479.64 -36.1,718.91 -0.3,5 -4.5,7.5 -8.55,7.5 m -963.98,-733.21 c 10.61,-193.24 20.49,-386.56 29.63,-579.9 19.2,-406.07 34,-812.3 44.4,-1218.698 6,-228.101 10,-456.203 14.1,-684.301 0,-5.961 4.83,-10.8 10.8,-10.8 5.97,0 10.8,4.839 10.8,10.8 -4.6,406.5 -16.4,813 -30.9,1219.199 -14.5,406.2 -33.5,812.3 -56.8,1218.2 -0.47,8.05 -0.94,16.11 -1.42,24.16 6.08,-3.07 12.77,-4.8 19.37,-4.8 6.54,0 12.99,1.69 18.65,5.44 -10.9,-13.4 -22.4,-30 -18.7,-46.4 4.5,-20 28.8,-30 50,-31.81 6.15,-0.57 12.33,-0.85 18.5,-0.85 6.17,0 12.34,0.28 18.5,0.85 0.31,0 0.62,-0.01 0.93,-0.01 9.92,0 19.46,3.88 26.57,10.82 4.24,5.31 4.22,13.84 0.68,19.16 9.98,-5.16 21.23,-7.14 32.84,-7.14 14.07,0 28.66,2.91 42.18,6.58 46.05,12.41 90.12,31.27 130.9,56 l 5.9,258.41 c -37.31,31.74 -78.51,58.63 -122.6,79.99 -29.76,14.4 -61.87,26.37 -94.88,26.37 -2.27,0 -4.54,-0.06 -6.82,-0.17 -35.4,-1.8 -71.6,-21.1 -84.8,-53.9 -5.76,-12.43 -5.47,-26.82 0.8,-39 0.49,-0.85 1.03,-1.65 1.6,-2.42 -19.85,-7.78 -38.32,-18.85 -54.6,-32.78 -8.79,138.23 -18.13,276.44 -28,414.6 -0.35,5 -4.33,7.5 -8.14,7.5 -3.81,0 -7.46,-2.5 -7.16,-7.5 9.09,-143.68 17.78,-287.4 26.06,-431.14 -11.25,-10.68 -17.84,-25.41 -18.26,-40.96 0.83,-11.95 10.97,-23.22 22.03,-25.03 0.22,-3.84 0.44,-7.69 0.66,-11.53 -6.48,-11.34 -8.99,-24.72 -6.79,-37.94 1.57,-6.32 5.14,-12.16 9.86,-16.76 0.87,-15.48 1.73,-31.01 2.58,-46.49 -1.65,-7.71 -1.68,-15.86 0.16,-23.95 0.39,-1.3 0.85,-2.56 1.37,-3.8"
         style="fill:#ffffff;fill-opacity:1;fill-rule:nonzero;stroke:none"
         id="path70" /><path
         d="m 2937.13,2963.58 c -107.3,0 -215.14,22.26 -316.52,57.41 -83.63,28.41 -164.22,65.05 -240.6,109.4 -33.81,19.85 -66.71,42.15 -96.86,67.56 0.06,5.94 0.18,11.89 0.36,17.84 2.6,81.5 17.5,169 71.2,233.5 13.2,15.71 28.36,29.65 45.1,41.5 6.55,4.73 2.23,14.69 -3.83,14.69 -1.24,0 -2.56,-0.42 -3.87,-1.39 -95.24,-66.68 -123.44,-178.16 -126.65,-290.56 -25.23,23.23 -48.09,48.9 -67.35,77.46 -12.81,18 -23.08,37.69 -30.5,58.5 -6.89,22.31 -8.83,45.86 -5.7,69 6.82,48.74 18.72,96.63 35.5,142.9 11.21,37.06 27.89,72.19 49.48,104.25 226.47,-35.5 446.97,-109.94 672.02,-157.25 142.83,-30.04 286.84,-49.07 431.68,-61.04 6.19,-16.84 11.79,-33.9 16.77,-51.15 -1.54,-0.86 -2.73,-2.43 -3.15,-4.81 h -0.2 c -16.23,-94.35 -27.84,-189.03 -35.74,-283.97 -41.07,-50.08 -101.15,-83.41 -161.56,-105.23 -74.43,-26.92 -151.86,-38.6 -229.58,-38.61 m 410.7,171.42 c 6.56,76.76 15.57,153.31 27.51,229.49 14.94,-71.65 13.49,-151.28 -20.43,-216.9 -2.24,-4.29 -4.6,-8.48 -7.08,-12.59"
         style="fill:#ffffff;fill-opacity:1;fill-rule:nonzero;stroke:none"
         id="path72" /><path
         d="m 2936.49,2935.39 c -135.73,0 -271.58,34.65 -397.08,86.1 -84.1,34.5 -167.7,74.3 -241.1,128.4 -4.98,3.6 -9.9,7.28 -14.75,11.04 -0.37,12.33 -0.52,24.67 -0.41,37.02 30.15,-25.41 63.05,-47.71 96.86,-67.56 76.38,-44.35 156.97,-80.99 240.6,-109.4 101.38,-35.15 209.22,-57.41 316.52,-57.41 77.72,0.01 155.15,11.69 229.58,38.61 60.41,21.82 120.49,55.15 161.56,105.23 -1.26,-15.13 -2.42,-30.27 -3.5,-45.4 -55.38,-52.04 -130.01,-83.67 -202.16,-102.93 -61.35,-16.38 -123.72,-23.7 -186.12,-23.7 m 407.15,146.04 c 1.27,17.88 2.66,35.72 4.19,53.57 2.48,4.11 4.84,8.3 7.08,12.59 33.92,65.62 35.37,145.25 20.43,216.9 1.19,7.6 2.42,15.2 3.67,22.8 0.89,5.97 -3.95,9.73 -8.35,9.73 -1.17,0 -2.31,-0.26 -3.3,-0.82 -4.98,17.25 -10.58,34.31 -16.77,51.15 11.3,-0.93 22.58,-1.82 33.89,-2.67 12.08,-33.67 20.57,-68.53 25.33,-103.99 11.2,-87.9 -2.4,-181.5 -58.8,-250.6 -2.4,-2.94 -4.86,-5.83 -7.37,-8.66 m -1078.38,94.31 c -22.21,18.78 -42.93,39.28 -61.95,61.35 -28.3,33.5 -55.1,71.9 -66.4,114.9 -13.2,50.3 -0.1,103.89 12.1,153.1 11.58,48.82 27.13,96.61 46.5,142.9 3.58,8.27 7.63,16.05 12.09,23.4 13.12,-1.78 26.21,-3.7 39.29,-5.75 -21.59,-32.06 -38.27,-67.19 -49.48,-104.25 -16.78,-46.27 -28.68,-94.16 -35.5,-142.9 -3.13,-23.14 -1.19,-46.69 5.7,-69 7.42,-20.81 17.69,-40.5 30.5,-58.5 19.26,-28.56 42.12,-54.23 67.35,-77.46 -0.36,-12.6 -0.41,-25.22 -0.2,-37.79"
         style="fill:#28292a;fill-opacity:1;fill-rule:nonzero;stroke:none"
         id="path74" /><path
         d="m 7354.67,1489.68 c 73.84,441.92 86.34,892.07 37.04,1337.61 -1.01,9.15 -2.05,18.28 -3.11,27.42 64.05,25.72 125.37,57.87 183.01,95.98 68.12,44.45 133.65,92.72 196.3,144.6 60,49.2 116,105.21 146.39,177.9 30.41,72.69 33.11,150.8 22.91,226.8 -4.51,34.5 -11.26,68.63 -20.18,102.17 89.12,-31.47 174.45,-73.27 253.18,-125.57 99.92,-65.51 186.63,-149.24 255.6,-246.8 78.3,-112.2 128.9,-241 158.8,-374 30,-135.7 40,-275.4 40,-414.2 0,-108.9 -5.18,-217.85 -12.97,-326.51 -54.25,2.67 -108.53,4.26 -162.63,4.26 -56.65,0 -113.1,-1.74 -169.19,-5.78 11.66,143.48 19.76,287.16 24.29,431.03 6.66,217 5.3,434.03 -4.1,651.1 -1.2,27.2 -2.6,54.3 -4.01,81.4 -0.29,5 -4.49,7.5 -8.56,7.5 -4.06,0 -7.98,-2.5 -7.73,-7.5 l 0.3,0.2 c 10.8,-214.93 13.63,-429.97 8.5,-645.1 -4.14,-173.69 -13.64,-347.07 -28.47,-520.15 -137.51,-11.28 -272.56,-36.84 -402.26,-85.11 -1.15,4.27 -4.39,7.74 -9.03,7.74 -1.22,0 -2.54,-0.24 -3.95,-0.78 -66.93,-24.5 -130.42,-57.54 -188.89,-98.3 -58.71,-42.97 -109.08,-96.31 -148.61,-157.4 -39.61,-62.7 -75.46,-127.71 -107.29,-194.7 -15.39,-31.11 -30.5,-62.38 -45.34,-93.81"
         style="fill:#ffffff;fill-opacity:1;fill-rule:nonzero;stroke:none"
         id="path76" /><path
         d="m 6481.76,2783.17 c -12.4,0 -24.79,0.23 -37.15,0.82 -38.83,0.41 -77.03,9.82 -111.6,27.5 -0.06,0.03 -0.11,0.06 -0.16,0.08 -17.12,190.28 -38.97,380.03 -65.54,569.22 -0.53,3.82 -3.83,5.57 -7.23,5.57 -3.19,0 -6.48,-1.54 -7.66,-4.35 1.56,25.87 4.89,51.5 11.47,76.24 102.96,11.35 205.47,26.82 307.35,47.83 1.37,-4.58 5.29,-8.56 10.83,-8.56 0.81,0 1.66,0.09 2.54,0.27 296.4,62.6 587.5,174.2 893.8,176.7 3.43,0.02 6.87,0.04 10.31,0.04 132.73,0 266.46,-20.07 393.37,-60.62 6.96,-24.18 12.94,-48.64 17.92,-73.32 15,-73.6 19,-151.6 -2.6,-224.3 -22.21,-75.1 -73.1,-133.1 -131.5,-183.2 -60.06,-51.37 -123.14,-99.08 -188.9,-142.9 -60.21,-41.56 -124.59,-76.68 -192.09,-104.81 -26.24,213.41 -66.88,424.83 -121.61,632.81 -7.5,28.6 -15.3,57 -23.3,85.5 -1.11,3.25 -4.14,5.29 -7.38,5.29 -0.84,0 -1.68,-0.13 -2.51,-0.41 -3.77,-1.28 -5.97,-5.2 -5.11,-9.08 v 0.2 c 62.49,-226.89 108.57,-457.99 137.9,-691.5 1.26,-10.08 2.49,-20.15 3.7,-30.24 -0.74,-0.29 -1.47,-0.58 -2.21,-0.86 -80.25,-28.56 -163.82,-46.77 -248.69,-54.2 -88.1,-9.2 -176.6,-14.9 -264.9,-21.3 -90.9,-6.6 -182,-12.3 -273.11,-15.7 -31.86,-1.15 -63.93,-2.72 -95.94,-2.72 m -168.77,41.25 c -21.67,16.94 -37.74,40.32 -45.68,67.07 -11,40 -8.7,82 -10,122.5 l -5.4,270.8 c -0.61,30.34 -1.38,61.51 0.23,92.4 24.37,-183.82 44.66,-368.11 60.85,-552.77"
         style="fill:#28292a;fill-opacity:1;fill-rule:nonzero;stroke:none"
         id="path78" /><path
         d="m 6475.31,2752.39 c -47.89,0 -96.11,4.07 -139.27,23.05 -1.04,12.05 -2.11,24.09 -3.19,36.13 0.05,-0.02 0.1,-0.05 0.16,-0.08 34.57,-17.68 72.77,-27.09 111.6,-27.5 12.36,-0.59 24.75,-0.82 37.15,-0.82 32.01,0 64.08,1.57 95.94,2.72 91.11,3.4 182.21,9.1 273.11,15.7 88.3,6.4 176.8,12.1 264.9,21.3 84.87,7.43 168.44,25.64 248.69,54.2 0.74,0.28 1.47,0.57 2.21,0.86 1.2,-10.14 2.38,-20.29 3.52,-30.44 -6.15,-2.33 -12.32,-4.61 -18.52,-6.82 -82.9,-28.8 -170.21,-41.5 -257.2,-50 -91,-8.8 -180.8,-15 -273.41,-21.6 -92.59,-6.6 -185.29,-12.1 -278.09,-15.1 -22.08,-0.68 -44.8,-1.6 -67.6,-1.6 m -158.95,32.99 c -4.97,2.86 -9.86,5.96 -14.65,9.31 -30.29,20.73 -52.53,51.22 -63,86.4 -11.1,39.5 -10.3,81.9 -11.1,122.6 -1.9,92.8 -3.5,185.5 -5.3,278.2 -1.06,57.6 -2.18,117 10.72,173.08 10.31,1.05 20.56,2.14 30.86,3.28 -6.58,-24.74 -9.91,-50.37 -11.47,-76.24 -0.4,-0.93 -0.56,-2.01 -0.41,-3.22 v -0.6 c 0.05,-0.33 0.09,-0.67 0.13,-1 -1.61,-30.89 -0.84,-62.06 -0.23,-92.4 l 5.4,-270.8 c 1.3,-40.5 -1,-82.5 10,-122.5 7.94,-26.75 24.01,-50.13 45.68,-67.07 1.15,-13 2.27,-26.04 3.37,-39.04 m 1072.24,69.33 c -1.19,10.23 -2.42,20.46 -3.68,30.67 67.5,28.13 131.88,63.25 192.09,104.81 65.76,43.82 128.84,91.53 188.9,142.9 58.4,50.1 109.29,108.1 131.5,183.2 21.6,72.7 17.6,150.7 2.6,224.3 -4.98,24.68 -10.96,49.14 -17.92,73.32 11.71,-3.75 23.36,-7.66 34.94,-11.75 8.92,-33.54 15.67,-67.67 20.18,-102.17 10.2,-76 7.5,-154.11 -22.91,-226.8 -30.39,-72.69 -86.39,-128.7 -146.39,-177.9 -62.65,-51.88 -128.18,-100.15 -196.3,-144.6 -57.64,-38.11 -118.96,-70.26 -183.01,-95.98"
         style="fill:#28292a;fill-opacity:1;fill-rule:nonzero;stroke:none"
         id="path80" /><path
         d="m 2598.46,13.7695 -342.75,0.3203 c -134.32,0 -264.58,21.9102 -386.84,62.7305 0.33,0.0508 0.66,0.1289 0.99,0.2188 5.35,1.4609 8.51,6.9922 7.05,12.3515 -60,228.8004 -114.6,458.8004 -163.8,690.0004 -49.2,231.199 -93.1,463.609 -131.7,697.199 -32.59,197.84 -61.27,396.25 -86.05,595.23 53.1,-12.96 105.5,-29.03 157.05,-48.73 94,-36.2 184.9,-84.5 255.5,-156.2 63.9,-64.9 108.6,-145.8 150.5,-226.7 254.7,-492.42 444.8,-1080.151 540.05,-1626.4205 M 1859.87,79.8594 C 1481.42,209.512 1180.7,520.813 1074.21,924.09 971.98,1314.05 906.344,1712.61 878.094,2114.56 c 57.679,2.99 115.398,4.78 172.916,4.78 143.79,0 286.4,-11.19 424.59,-42.85 20.58,-166.89 43.94,-333.41 70.11,-499.6 37.33,-236.86 80.13,-472.83 128.4,-707.898 48.2,-233.801 101.8,-466.433 160.8,-697.902 7.53,-29 15.07,-58 22.6,-87.0002 0.45,-1.6406 1.28,-3.0703 2.36,-4.2304"
         style="fill:#ffffff;fill-opacity:1;fill-rule:nonzero;stroke:none"
         id="path82" /><path
         d="m 7389.16,22.3906 h -474.75 c 51.79,290.9294 125.33,577.5504 220,857.5004 48.5,143.999 102.3,286.399 162.2,426.099 1.7,4.09 3.41,8.18 5.13,12.26 -8.34,-51.9 -14.51,-104.01 -15.13,-156.46 -0.6,-58.7 9.2,-115.91 17.29,-173.802 9.48,-58.308 9.24,-117.769 -0.69,-175.996 -10,-54.203 -27.61,-106.703 -40.6,-160 -12.78,-51.25 -19.22,-103.883 -19.2,-156.703 0.6,-100 21.2,-203.699 -5.31,-301.801 -6.79,-24.66 -17.06,-48.226 -30.49,-70 -4,-6.879 1.77,-12.808 7.65,-12.808 2.66,0 5.34,1.211 7.15,4.109 53.5,85.902 48.9,188.602 44.1,285.699 -3.85,51.532 -3.85,103.282 0,154.801 5.5,56.902 22.4,112 37.3,167 14.4,52.801 27.8,106.512 29.5,161.402 1.89,58 -9.3,115.399 -17.31,172.599 -16.43,118.86 3.02,233.61 24.06,350.18 45.46,101.36 95.09,200.82 148.75,298.12 40,71.7 87.9,139 151.9,191.5 63.33,49.74 134.23,89 210,116.3 6.64,2.54 8.52,9.17 7.07,14.54 129.7,48.27 264.75,73.83 402.26,85.11 -3.54,-41.3 -7.39,-82.59 -11.53,-123.85 -21.33,-215.07 -50.53,-429.2 -87.6,-642.4 -18.47,-105.87 -38.94,-211.44 -61.4,-316.7 -11.06,-52.129 -22.66,-104.129 -34.8,-156 -12,-51.301 -21.7,-98.899 -2.91,-150 15.51,-41.899 32.01,-81.899 40.01,-126 8.08,-42.449 10.84,-85.762 8.2,-128.899 -2.39,-39.632 -9.2,-78.711 -20.23,-116.539 C 7901.21,171.969 7656.58,53.6914 7389.16,22.3906 M 8120.5,381.98 c 18.19,84.559 16.61,173.661 -5.19,255.911 -5.72,21.261 -12.77,42.129 -21.1,62.5 -10,24.101 -20.71,48.3 -22.4,74.601 -0.11,28.219 3.82,56.309 11.69,83.387 6.21,26.41 12.21,52.902 18.21,79.41 23.6,105.871 45.23,212.231 64.9,319.101 39.13,212.4 70.14,426.13 93,641.2 7.63,71.78 14.37,143.6 20.21,215.47 56.09,4.04 112.54,5.78 169.19,5.78 54.1,0 108.38,-1.59 162.63,-4.26 -3.03,-42.32 -6.46,-84.58 -10.13,-126.79 -28.8,-319.05 -81.21,-635.51 -156.8,-946.8 -9.27,-38.2 -18.9,-76.271 -28.9,-114.201 -1.05,-6.09 3.04,-11.887 9.13,-12.949 0.14,-0.02 0.29,-0.051 0.43,-0.059 C 8369.22,708.512 8262.39,527.07 8120.5,381.98"
         style="fill:#ffffff;fill-opacity:1;fill-rule:nonzero;stroke:none"
         id="path84" /><path
         d="m 6889.91,13.7617 c 0.03,0.1367 0.06,0.2774 0.1,0.4297 3.33,17.8711 6.67,35.7695 10,53.6992 27.73,148.8004 61.06,296.2384 100,442.3004 39.6,149.34 84.76,296.872 135.5,442.598 50.33,144.131 106.43,286.201 168.3,426.201 4.81,10.78 9.65,21.53 14.53,32.27 -5.83,-30.95 -11.61,-61.94 -16.6,-93.01 -1.72,-4.08 -3.43,-8.17 -5.13,-12.26 -59.9,-139.7 -113.7,-282.1 -162.2,-426.099 -94.67,-279.95 -168.21,-566.571 -220,-857.5004 h 474.75 c -46.92,-5.4922 -94.5,-8.3008 -142.65,-8.3008 l -356.6,-0.3281 M 7340.06,1406.47 c 0.98,5.44 1.96,10.87 2.95,16.32 4.04,22.28 7.92,44.56 11.66,66.89 14.84,31.43 29.95,62.7 45.34,93.81 31.83,66.99 67.68,132 107.29,194.7 39.53,61.09 89.9,114.43 148.61,157.4 58.47,40.76 121.96,73.8 188.89,98.3 1.41,0.54 2.73,0.78 3.95,0.78 4.64,0 7.88,-3.47 9.03,-7.74 1.45,-5.37 -0.43,-12 -7.07,-14.54 -75.77,-27.3 -146.67,-66.56 -210,-116.3 -64,-52.5 -111.9,-119.8 -151.9,-191.5 -53.66,-97.3 -103.29,-196.76 -148.75,-298.12"
         style="fill:#28292a;fill-opacity:1;fill-rule:nonzero;stroke:none"
         id="path86" /><path
         d="m 4352.77,2708.21 c -0.13,2.25 -0.27,4.47 -0.4,6.73 1.12,-0.14 2.25,-0.22 3.38,-0.22 3.29,0 6.59,0.62 9.76,1.97 -4.71,-2.28 -8.98,-5.14 -12.74,-8.48"
         style="fill:#ffffff;fill-opacity:1;fill-rule:nonzero;stroke:none"
         id="path88" /><path
         d="m 1030.51,3204.39 c -73.401,-117.8 -120.002,-250 -145.6,-386.01 -26.504,-138.29 -33.601,-280 -31.902,-420 1.902,-155.19 12.898,-310 28.203,-464.79 15.801,-160 37.531,-319.57 65.199,-478.7 27.664,-159.13 61.3,-317.24 100.9,-474.3 4.9,-20 10,-39.199 15.1,-58.699 2.2,-5.782 8.68,-8.672 14.46,-6.461 5,1.902 7.95,7.09 7.04,12.359 -81.23,310.381 -139.351,626.341 -173.902,945.301 -16.801,154.7 -28.598,310 -33.195,465.7 -4.004,140 -0.907,281.2 20.593,420 23.606,152.8 70,302.4 152.604,434.3 7.6,12.2 -11.7,23.4 -19.2,11.3 h -0.3"
         style="fill:#040606;fill-opacity:1;fill-rule:nonzero;stroke:none"
         id="path90" /><path
         d="m 8437.61,921.68 c 82.47,315.18 141.3,636.08 176,960.01 16.59,156.4 28.5,313.6 32.5,470.8 5.32,141.42 -2.52,283.02 -23.41,423 -22.19,136.9 -63.3,271.7 -131.89,392.8 -60.97,106.89 -142.19,200.88 -239.1,276.7 -192.5,151.4 -434.7,233.2 -677.8,249 -302.8,20 -593.4,-78.6 -883.6,-149.2 -37.1,-9 -74.31,-17.6 -111.6,-25.5 -14,-2.9 -8.09,-24.4 5.9,-21.5 296.4,62.6 587.5,174.2 893.8,176.7 242.5,1.9 489,-63.2 691.8,-197.9 99.92,-65.51 186.63,-149.24 255.6,-246.8 78.3,-112.2 128.9,-241 158.8,-374 30,-135.7 40,-275.4 40,-414.2 0,-151.3 -10,-302.7 -23.1,-453.3 -28.8,-319.05 -81.21,-635.51 -156.8,-946.8 -9.27,-38.2 -18.9,-76.271 -28.9,-114.201 -1.05,-6.09 3.04,-11.887 9.13,-12.949 5.27,-0.91 10.46,2.039 12.37,7.051 l 0.3,0.289"
         style="fill:#040606;fill-opacity:1;fill-rule:nonzero;stroke:none"
         id="path92" /><path
         d="m 1808.81,3.08984 h 2239.2 c 7.8,0 23.4,-3.0976525 30.7,0 1.36,0.19922 2.74,0.19922 4.1,0 l -11.1,11.10156 v -1.3008 c 0.11,-6.08982 5.01,-10.99216 11.1,-11.10154 l 584.6,0.60157 c 158.73,0 317.46,0 476.2,0 h 273.6 c 6.08,0.10937 10.99,5.01953 11.1,11.09767 v 1.3008 l -11.1,-11.09769 h 242 577.9 698.7 l 606.6,0.5 h 198.19 c 30.81,0 64.41,-3.800785 95.11,0 h 4.3 c 6.15,0.57812 10.67,6.05079 10.09,12.19919 -0.51,5.3477 -4.74,9.5899 -10.09,10.1016 h -242 -577.9 -698.8 -606.51 -198.19 c -30.8,0 -64.5,3.7969 -95.1,0 h -4.1 c -6.1,-0.1133 -11.04,-5 -11.2,-11.1016 v -1.3008 l 11.2,11.1993 -584.6,0.5 c -158.73,0 -317.47,0 -476.2,0 h -273.6 l 11.2,-11.1993 v 1.2891 c -0.16,6.1133 -5.1,11 -11.2,11.1133 h -226.1 -543.2 -657.1 -568 -186.4 c -28.8,0 -60,3.7969 -89.1,0 -1.37,-0.1016 -2.73,-0.1016 -4.1,0 -6.16,-0.5938 -10.68,-6.0508 -10.09,-12.2109 0.5,-5.35161 4.74,-9.58208 10.09,-10.08989 l -0.2,-1.60157"
         style="fill:#040606;fill-opacity:1;fill-rule:nonzero;stroke:none"
         id="path94" /><path
         d="m 922.785,185.449 c -1.101,0 -2.301,0.231 -3.574,0.742 -53.363,20.879 -88.133,72.707 -87.199,130 1.297,31.899 15.398,68.899 -15.602,91.301 -11.801,8.598 -25.504,14.188 -37.601,22.199 -11.813,7.75 -22.68,16.84 -32.399,27.098 -36.305,38.289 -56.801,88.5 -74.5,137.301 -22.801,63 -44.402,126.5 -65.601,190 -43,129.301 -82.598,260 -114.297,392.7 -62.102,260.5 -94.301,532.4 -53.403,798.8 0.618,4 3.996,5.8 7.493,5.8 4.449,0 9.078,-2.91 8.41,-7.9 -18.883,-146.57 -20.625,-294.83 -5.199,-441.8 26.796,-264.9 101.195,-522.8 186.195,-774.299 20.101,-59.2 39.801,-119.2 61.801,-177 18.398,-47.899 42.3,-98.2 84.8,-129.301 19.903,-14.5 45.496,-22.301 60.899,-42.301 17.5,-22.199 13.004,-50.098 10,-75.898 -6.195,-53.7 19.203,-107.7 71.398,-127.7 10.438,-4.101 7.512,-19.742 -1.621,-19.742"
         style="fill:#ffffff;fill-opacity:1;fill-rule:nonzero;stroke:none"
         id="path96" /><path
         d="m 995.609,110.59 c -3.558,0.398 -6.367,3.211 -6.777,6.781 -0.484,4.219 2.555,8.039 6.777,8.508 3.559,-0.399 6.371,-3.207 6.771,-6.758 0.48,-4.23 -2.544,-8.051 -6.771,-8.531"
         style="fill:#ffffff;fill-opacity:1;fill-rule:nonzero;stroke:none"
         id="path98" /><path
         d="m 1300.42,231.09 c -2.59,0 -5.12,1.289 -6.71,4.398 -84.5,166.621 -147.02,343.492 -186,526.203 -1.32,6.118 3.77,10.039 8.52,10.039 3.18,0 6.2,-1.738 7.08,-5.742 39.06,-181.156 101.45,-356.476 185.6,-521.597 3.31,-6.961 -2.74,-13.301 -8.49,-13.301"
         style="fill:#ffffff;fill-opacity:1;fill-rule:nonzero;stroke:none"
         id="path100" /><path
         d="m 1330.66,85.7813 c -2.85,0 -5.61,1.5507 -7.02,4.2578 -2.01,3.8711 -0.5,8.6406 3.37,10.6519 l 37.2,25.098 c 1.08,0.492 2.23,0.723 3.36,0.723 2.55,0 5.04,-1.192 6.62,-3.364 2.67,-3.656 1.87,-8.789 -1.78,-11.457 l -37.4,-24.6012 -0.71,-0.4179 c -1.17,-0.6133 -2.41,-0.8906 -3.64,-0.8906"
         style="fill:#ffffff;fill-opacity:1;fill-rule:nonzero;stroke:none"
         id="path102" /><path
         d="m 1867.2,76.6797 c -2.8,0 -5.45,1.1797 -7.33,3.1797 3.01,-1.0313 5.97,-2.0274 9,-3.0391 -0.56,-0.0898 -1.12,-0.1406 -1.67,-0.1406"
         style="fill:#ffffff;fill-opacity:1;fill-rule:nonzero;stroke:none"
         id="path104" /><path
         d="m 1495.36,2071.82 c -6.56,1.6 -13.17,3.16 -19.76,4.67 -8.47,68.7 -16.47,137.48 -23.99,206.3 -24.1,217.2 -49.7,437 -44.1,655.9 5.2,201.6 42.3,405.7 149.5,579.5 v -0.3 c 1.62,2.59 3.99,3.67 6.35,3.67 5.39,0 10.76,-5.59 7.15,-11.57 -13.4,-21.8 -25.9,-44.1 -37.3,-67 -91.8,-184.2 -112.4,-394.3 -108.6,-597.4 4.1,-221.3 31.6,-442.4 57.3,-662.4 4.35,-37.14 8.83,-74.27 13.45,-111.37"
         style="fill:#ffffff;fill-opacity:1;fill-rule:nonzero;stroke:none"
         id="path106" /><path
         d="m 1868.87,76.8203 c -3.03,1.0117 -5.99,2.0078 -9,3.0391 -1.08,1.1601 -1.91,2.5898 -2.36,4.2304 -7.53,29.0002 -15.07,58.0002 -22.6,87.0002 -59,231.469 -112.6,464.101 -160.8,697.902 -48.27,235.068 -91.07,471.038 -128.4,707.898 -26.17,166.19 -49.53,332.71 -70.11,499.6 6.59,-1.51 13.2,-3.07 19.76,-4.67 24.78,-198.98 53.46,-397.39 86.05,-595.23 38.6,-233.59 82.5,-466 131.7,-697.199 49.2,-231.2 103.8,-461.2 163.8,-690.0004 1.46,-5.3593 -1.7,-10.8906 -7.05,-12.3515 -0.33,-0.0899 -0.66,-0.168 -0.99,-0.2188"
         style="fill:#ffffff;fill-opacity:1;fill-rule:nonzero;stroke:none"
         id="path108" /><path
         d="m 2636.89,53.2188 c -4.77,0 -9.93,3.0507 -10.68,9.0703 -3.93,30.6015 -7.8,61.1989 -11.6,91.8009 -30.5,241.5 -58.5,482 -87.6,724.801 -29.1,242.799 -58.2,486.699 -86.6,728.399 -28.4,241.7 -56.9,484.8 -84.5,725.1 -27.6,240.3 -56.1,481.1 -82.2,721.1 -4.19,38.63 -7.75,80.16 -8.45,122.25 5.99,-5.06 12.09,-10 18.3,-14.81 2.38,-78.98 13.84,-157.67 22.85,-236.04 27.5,-238.4 55.2,-476.7 83.1,-715 27.9,-238.3 55.7,-475.5 84,-714.9 28.3,-239.4 57,-480 85.6,-718.201 28.6,-238.199 58.1,-476.289 86.1,-714.4999 0.75,-6.0703 -3.59,-9.0703 -8.32,-9.0703"
         style="fill:#ffffff;fill-opacity:1;fill-rule:nonzero;stroke:none"
         id="path110" /><path
         d="m 2283.15,3197.95 c -6.01,5.07 -11.91,10.26 -17.69,15.58 3.21,112.4 31.41,223.88 126.65,290.56 1.31,0.97 2.63,1.39 3.87,1.39 6.06,0 10.38,-9.96 3.83,-14.69 -16.74,-11.85 -31.9,-25.79 -45.1,-41.5 -53.7,-64.5 -68.6,-152 -71.2,-233.5 -0.18,-5.95 -0.3,-11.9 -0.36,-17.84"
         style="fill:#ffffff;fill-opacity:1;fill-rule:nonzero;stroke:none"
         id="path112" /><path
         d="m 2283.56,3160.93 c -6.21,4.81 -12.31,9.75 -18.3,14.81 -0.21,12.57 -0.16,25.19 0.2,37.79 5.78,-5.32 11.68,-10.51 17.69,-15.58 -0.11,-12.35 0.04,-24.69 0.41,-37.02"
         style="fill:#4d5051;fill-opacity:1;fill-rule:nonzero;stroke:none"
         id="path114" /><path
         d="m 3510.01,98.9922 c -4.99,0 -10.25,3.2188 -10.8,9.5978 -20.6,241.801 -38.1,484 -57,725.902 -33.6,430.198 -68.8,860.698 -100.5,1290.698 -22.83,311.54 -39.05,625.33 -16.94,936.83 6.58,6.18 12.87,12.64 18.87,19.41 -9.57,-134.8 -11.98,-270.15 -9.93,-405.24 3.3,-211.7 17.9,-423.1 34.3,-634.1 16.6,-212.8 33.26,-425.67 50,-638.6 33.8,-431.599 70.5,-863.099 101.2,-1294.9 0.44,-6.43 -4.24,-9.5978 -9.2,-9.5978"
         style="fill:#ffffff;fill-opacity:1;fill-rule:nonzero;stroke:none"
         id="path116" /><path
         d="m 3328.27,3107.42 c 7.9,94.94 19.51,189.62 35.74,283.97 h 0.2 c 0.42,2.38 1.61,3.95 3.15,4.81 1.43,-4.96 2.82,-9.93 4.15,-14.92 1.37,-5.54 2.65,-11.14 3.83,-16.79 -11.94,-76.18 -20.95,-152.73 -27.51,-229.49 -5.88,-9.71 -12.44,-18.9 -19.56,-27.58"
         style="fill:#ffffff;fill-opacity:1;fill-rule:nonzero;stroke:none"
         id="path118" /><path
         d="m 3324.77,3062.02 c 1.08,15.13 2.24,30.27 3.5,45.4 7.12,8.68 13.68,17.87 19.56,27.58 -1.53,-17.85 -2.92,-35.69 -4.19,-53.57 -6,-6.77 -12.29,-13.23 -18.87,-19.41 m 50.57,302.47 c -1.18,5.65 -2.46,11.25 -3.83,16.79 -1.33,4.99 -2.72,9.96 -4.15,14.92 0.99,0.56 2.13,0.82 3.3,0.82 4.4,0 9.24,-3.76 8.35,-9.73 -1.25,-7.6 -2.48,-15.2 -3.67,-22.8"
         style="fill:#4d5051;fill-opacity:1;fill-rule:nonzero;stroke:none"
         id="path120" /><path
         d="m 4435.81,156.891 c -5.97,0 -10.8,4.839 -10.8,10.8 -4.1,228.098 -8.1,456.2 -14.1,684.301 -10.4,406.398 -25.2,812.628 -44.4,1218.698 -9.14,193.34 -19.02,386.66 -29.63,579.9 3.95,-9.26 11.6,-16.78 20.61,-21.34 0.48,-8.05 0.95,-16.11 1.42,-24.16 23.3,-405.9 42.3,-812 56.8,-1218.2 14.5,-406.199 26.3,-812.699 30.9,-1219.199 0,-5.961 -4.83,-10.8 -10.8,-10.8 M 4335.35,2678.34 c -0.85,15.48 -1.71,31.01 -2.58,46.49 5.45,-5.32 12.42,-8.99 19.6,-9.89 0.13,-2.26 0.27,-4.48 0.4,-6.73 -8.88,-7.88 -14.95,-18.39 -17.42,-29.87 m -5.65,101.19 c -0.22,3.84 -0.44,7.69 -0.66,11.53 1.01,-0.16 2.03,-0.25 3.05,-0.25 2.67,0 5.35,0.59 7.92,1.88 -4.11,-3.91 -7.57,-8.35 -10.31,-13.16 m -4.43,77.52 c -8.28,143.74 -16.97,287.46 -26.06,431.14 -0.3,5 3.35,7.5 7.16,7.5 3.81,0 7.79,-2.5 8.14,-7.5 9.87,-138.16 19.21,-276.37 28,-414.6 -5.6,-4.8 -10.95,-9.94 -16,-15.4 -0.42,-0.37 -0.83,-0.76 -1.24,-1.14"
         style="fill:#ffffff;fill-opacity:1;fill-rule:nonzero;stroke:none"
         id="path122" /><path
         d="m 4445.31,2550.83 c -6.17,0 -12.35,0.28 -18.5,0.85 -21.2,1.81 -45.5,11.81 -50,31.81 -3.7,16.4 7.8,33 18.7,46.4 -5.66,-3.75 -12.11,-5.44 -18.65,-5.44 -6.6,0 -13.29,1.73 -19.37,4.8 -9.01,4.56 -16.66,12.08 -20.61,21.34 -0.52,1.24 -0.98,2.5 -1.37,3.8 -1.84,8.09 -1.81,16.24 -0.16,23.95 2.47,11.48 8.54,21.99 17.42,29.87 3.76,3.34 8.03,6.2 12.74,8.48 -3.17,-1.35 -6.47,-1.97 -9.76,-1.97 -1.13,0 -2.26,0.08 -3.38,0.22 -7.18,0.9 -14.15,4.57 -19.6,9.89 -4.72,4.6 -8.29,10.44 -9.86,16.76 -2.2,13.22 0.31,26.6 6.79,37.94 2.74,4.81 6.2,9.25 10.31,13.16 -2.57,-1.29 -5.25,-1.88 -7.92,-1.88 -1.02,0 -2.04,0.09 -3.05,0.25 -11.06,1.81 -21.2,13.08 -22.03,25.03 0.42,15.55 7.01,30.28 18.26,40.96 0.41,0.38 0.82,0.77 1.24,1.14 5.05,5.46 10.4,10.6 16,15.4 16.28,13.93 34.75,25 54.6,32.78 -0.57,0.77 -1.11,1.57 -1.6,2.42 -6.27,12.18 -6.56,26.57 -0.8,39 13.2,32.8 49.4,52.1 84.8,53.9 2.28,0.11 4.55,0.17 6.82,0.17 33.01,0 65.12,-11.97 94.88,-26.37 44.09,-21.36 85.29,-48.25 122.6,-79.99 l -5.9,-258.41 c -40.78,-24.73 -84.85,-43.59 -130.9,-56 -13.52,-3.67 -28.11,-6.58 -42.18,-6.58 -11.61,0 -22.86,1.98 -32.84,7.14 3.54,-5.32 3.56,-13.85 -0.68,-19.16 -7.11,-6.94 -16.65,-10.82 -26.57,-10.82 -0.31,0 -0.62,0.01 -0.93,0.01 -6.16,-0.57 -12.33,-0.85 -18.5,-0.85"
         style="fill:#ffffff;fill-opacity:1;fill-rule:nonzero;stroke:none"
         id="path124" /><path
         d="m 5322.52,83.4219 c -5.16,0 -10.16,3.3164 -9.82,9.9687 11.15,239.4684 19.55,479.1994 25.21,719.1994 9.86,427.27 11.03,854.7 3.5,1282.3 -7.53,427.6 -23.6,854.73 -48.2,1281.4 v 0.01 c -0.3,5 3.6,7.5 7.65,7.5 4.05,0 8.25,-2.5 8.55,-7.5 14.87,-239.27 26.9,-478.91 36.1,-718.91 15.73,-427.27 22.63,-854.67 20.7,-1282.2 -1.93,-427.542 -12.9,-854.799 -32.9,-1281.7994 -0.3,-6.6523 -5.63,-9.9687 -10.79,-9.9687"
         style="fill:#ffffff;fill-opacity:1;fill-rule:nonzero;stroke:none"
         id="path126" /><path
         d="m 6261.85,132.289 c -5,0 -9.59,3.18 -8.74,9.602 31.53,235.129 56.17,470.968 73.9,707.5 31.21,420.289 40.59,841.939 28.1,1263.199 -6.9,224.61 -19.82,448.94 -38.75,672.79 6.42,-3.7 13,-7 19.68,-9.94 2.83,-32.57 5.52,-65.15 8.07,-97.75 32.96,-422.31 43.55,-846.07 31.7,-1269.5 -11.99,-423.608 -46.27,-846.299 -102.71,-1266.299 -0.75,-6.379 -6.21,-9.602 -11.25,-9.602"
         style="fill:#ffffff;fill-opacity:1;fill-rule:nonzero;stroke:none"
         id="path128" /><path
         d="m 6332.85,2811.57 c -7.03,3.71 -13.67,8.02 -19.86,12.85 -16.19,184.66 -36.48,368.95 -60.85,552.77 0.09,1.61 0.18,3.21 0.28,4.82 1.18,2.81 4.47,4.35 7.66,4.35 3.4,0 6.7,-1.75 7.23,-5.57 26.57,-189.19 48.42,-378.94 65.54,-569.22"
         style="fill:#4d5051;fill-opacity:1;fill-rule:nonzero;stroke:none"
         id="path130" /><path
         d="m 6336.04,2775.44 c -6.68,2.94 -13.26,6.24 -19.68,9.94 -1.1,13 -2.22,26.04 -3.37,39.04 6.19,-4.83 12.83,-9.14 19.86,-12.85 1.08,-12.04 2.15,-24.08 3.19,-36.13 m -83.9,601.75 c -0.04,0.33 -0.08,0.67 -0.13,1 v 0.6 c -0.15,1.21 0.01,2.29 0.41,3.22 -0.1,-1.61 -0.19,-3.21 -0.28,-4.82"
         style="fill:#4d5051;fill-opacity:1;fill-rule:nonzero;stroke:none"
         id="path132" /><path
         d="m 7318.34,1411.26 c 6.33,33.55 12.73,67.06 18.27,100.53 38.05,231.16 59.24,464.77 63.4,699 3.93,212.68 -6.05,425.38 -29.88,636.72 6.18,2.34 12.34,4.74 18.47,7.2 1.06,-9.14 2.1,-18.27 3.11,-27.42 49.3,-445.54 36.8,-895.69 -37.04,-1337.61 -12.3,-26.03 -24.41,-52.17 -36.33,-78.42"
         style="fill:#ffffff;fill-opacity:1;fill-rule:nonzero;stroke:none"
         id="path134" /><path
         d="m 7366.61,2877.95 c -1.21,10.09 -2.44,20.16 -3.7,30.24 -29.33,233.51 -75.41,464.61 -137.9,691.5 v -0.2 c -0.86,3.88 1.34,7.8 5.11,9.08 0.83,0.28 1.67,0.41 2.51,0.41 3.24,0 6.27,-2.04 7.38,-5.29 8,-28.5 15.8,-56.9 23.3,-85.5 54.73,-207.98 95.37,-419.4 121.61,-632.81 -6.07,-2.53 -12.19,-5.01 -18.31,-7.43"
         style="fill:#4d5051;fill-opacity:1;fill-rule:nonzero;stroke:none"
         id="path136" /><path
         d="m 7370.13,2847.51 c -1.14,10.15 -2.32,20.3 -3.52,30.44 6.12,2.42 12.24,4.9 18.31,7.43 1.26,-10.21 2.49,-20.44 3.68,-30.67 -6.13,-2.46 -12.29,-4.86 -18.47,-7.2"
         style="fill:#4d5051;fill-opacity:1;fill-rule:nonzero;stroke:none"
         id="path138" /><path
         d="m 7215.26,110.68 c -5.88,0 -11.65,5.929 -7.65,12.808 13.43,21.774 23.7,45.34 30.49,70 26.51,98.102 5.91,201.801 5.31,301.801 -0.02,52.82 6.42,105.453 19.2,156.703 12.99,53.297 30.6,105.797 40.6,160 9.93,58.227 10.17,117.688 0.69,175.996 -8.09,57.892 -17.89,115.102 -17.29,173.802 0.62,52.45 6.79,104.56 15.13,156.46 12.42,29.57 25.19,58.97 38.32,88.22 -21.04,-116.57 -40.49,-231.32 -24.06,-350.18 8.01,-57.2 19.2,-114.599 17.31,-172.599 -1.7,-54.89 -15.1,-108.601 -29.5,-161.402 -14.9,-55 -31.8,-110.098 -37.3,-167 -3.85,-51.519 -3.85,-103.269 0,-154.801 4.8,-97.097 9.4,-199.797 -44.1,-285.699 -1.81,-2.898 -4.49,-4.109 -7.15,-4.109"
         style="fill:#ffffff;fill-opacity:1;fill-rule:nonzero;stroke:none"
         id="path140" /><path
         d="m 7301.74,1318.25 c 4.99,31.07 10.77,62.06 16.6,93.01 11.92,26.25 24.03,52.39 36.33,78.42 -3.74,-22.33 -7.62,-44.61 -11.66,-66.89 -0.99,-5.45 -1.97,-10.88 -2.95,-16.32 -13.13,-29.25 -25.9,-58.65 -38.32,-88.22"
         style="fill:#4d5051;fill-opacity:1;fill-rule:nonzero;stroke:none"
         id="path142" /><path
         d="m 8003.97,153.898 c -6.86,0 -13.91,8.032 -8.86,14.59 13.1,17.102 25.49,34.903 36.9,53.203 25.1,40.68 44.49,84.411 57.77,129.961 10.42,9.93 20.65,20.028 30.72,30.328 -17.85,-83.031 -54.75,-161.679 -110.3,-225.191 -1.77,-2.039 -3.99,-2.891 -6.23,-2.891"
         style="fill:#ffffff;fill-opacity:1;fill-rule:nonzero;stroke:none"
         id="path144" /><path
         d="m 8260.04,2112.04 c 14.83,173.08 24.33,346.46 28.47,520.15 5.13,215.13 2.3,430.17 -8.5,645.1 l -0.3,-0.2 c -0.25,5 3.67,7.5 7.73,7.5 4.07,0 8.27,-2.5 8.56,-7.5 1.41,-27.1 2.81,-54.2 4.01,-81.4 9.4,-217.07 10.76,-434.1 4.1,-651.1 -4.53,-143.87 -12.63,-287.55 -24.29,-431.03 -6.58,-0.48 -13.21,-0.99 -19.78,-1.52"
         style="fill:#ffffff;fill-opacity:1;fill-rule:nonzero;stroke:none"
         id="path146" /><path
         d="m 8089.78,351.652 c 11.03,37.828 17.84,76.907 20.23,116.539 2.64,43.137 -0.12,86.45 -8.2,128.899 -8,44.101 -24.5,84.101 -40.01,126 -18.79,51.101 -9.09,98.699 2.91,150 12.14,51.871 23.74,103.871 34.8,156 22.46,105.26 42.93,210.83 61.4,316.7 37.07,213.2 66.27,427.33 87.6,642.4 4.14,41.26 7.99,82.55 11.53,123.85 6.57,0.53 13.2,1.04 19.78,1.52 -5.84,-71.87 -12.58,-143.69 -20.21,-215.47 -22.86,-215.07 -53.87,-428.8 -93,-641.2 -19.67,-106.87 -41.3,-213.23 -64.9,-319.101 -6,-26.508 -12,-53 -18.21,-79.41 -7.87,-27.078 -11.8,-55.168 -11.69,-83.387 1.69,-26.301 12.4,-50.5 22.4,-74.601 8.33,-20.371 15.38,-41.239 21.1,-62.5 21.8,-82.25 23.38,-171.352 5.19,-255.911 -10.07,-10.3 -20.3,-20.398 -30.72,-30.328"
         style="fill:#ffffff;fill-opacity:1;fill-rule:nonzero;stroke:none"
         id="path148" /><path
         d="m 8535.68,145.199 c -8.36,0 -15.6,10.352 -7.77,17.391 48.75,43.832 83.53,101.039 100,164.5 7.18,32.5 10.53,65.719 10,99 -0.84,31.039 13.35,60.57 38.1,79.301 21.2,16.5 45.79,27.8 65,47.101 18.13,18.969 32.52,41.199 42.4,65.508 24.69,57.191 35.6,121.289 49.2,181.289 31.2,138.66 57.87,278.201 80,418.601 41.6,264.3 77.99,544.8 -5.6,804.8 h 0.4 c -1.99,6.21 3.03,10.21 8.08,10.21 3.33,0 6.67,-1.74 8.02,-5.71 48.3,-145.5 59.1,-300 52.09,-452.3 -6.39,-137.9 -26.69,-275.2 -48.89,-411.3 -23.33,-143.66 -51.67,-286.231 -85,-427.711 -13.1,-55.379 -25.7,-113.387 -55.7,-162.391 -13.84,-22.668 -32.14,-42.308 -53.8,-57.699 -21.3,-14.898 -48.5,-26.297 -62.5,-49.297 -16,-26.203 -8.2,-62.601 -11,-91.902 -2.75,-28.5 -9.03,-56.551 -18.7,-83.5 -19.6,-55.32 -53.16,-104.649 -97.4,-143.199 -2.2,-1.903 -4.61,-2.692 -6.93,-2.692"
         style="fill:#ffffff;fill-opacity:1;fill-rule:nonzero;stroke:none"
         id="path150" /><path
         d="m 6788.51,4493.79 c -1.64,-34.92 -6.35,-69.61 -14.1,-103.7 14.4,-9.08 30.55,-15.01 47.4,-17.4 7.12,22.9 20.04,43.57 37.5,60 18.39,15.3 46.2,21.6 66.7,9.3 30.7,-18.3 28.9,-64.6 12.5,-96.3 -16.4,-31.7 -43.31,-58.3 -52.91,-92.7 -9.59,-34.4 11.11,-81.2 46.61,-78.3 -18.89,-50.72 6.9,-107.15 57.62,-126.05 16.02,-5.96 33.31,-7.63 50.18,-4.85 7.42,1.99 15.13,2.77 22.8,2.3 7.72,-2 15,-5.39 21.5,-10 60.37,-32.52 135.46,-15.78 176.3,39.3 2.75,5.02 6.88,9.15 11.9,11.9 6.42,1.54 13.17,0.8 19.1,-2.1 89.1,-30 197.3,30 219.3,121.6 70.56,1.67 126.41,60.23 124.73,130.79 -0.38,16.06 -3.78,31.91 -10.04,46.71 54.03,22.28 79.75,84.13 57.48,138.15 -4.86,11.76 -11.79,22.55 -20.47,31.85 46.1,90 7.5,212.9 -81.5,260 1.2,49 -2.6,99.3 -23.01,143.9 -20.4,44.6 -60,82.6 -108.29,90.6 -26.2,4.4 -53.9,0 -79.1,8.4 -36.4,12.2 -60,48.8 -96,62.8 -43.7,17.1 -94.1,-4.3 -128,-36.7 -4.93,-5.77 -11.37,-10.07 -18.6,-12.4 -6.5,-0.63 -13.05,0.58 -18.9,3.5 -26.1,10.7 -51.1,26 -79.1,28.3 -28,2.3 -60.7,-15.3 -61.8,-43.4 -58.64,58.52 -153.61,58.42 -212.13,-0.22 -15.09,-15.12 -26.77,-33.28 -34.27,-53.28 -28.06,22.21 -67.3,23.63 -96.9,3.5 -28.55,-20.92 -44.87,-54.63 -43.6,-90 0.53,-4.79 -0.01,-9.65 -1.6,-14.2 -3.9,-8.5 -14.4,-10.9 -23.2,-14 -41.11,-14.26 -62.89,-59.15 -48.63,-100.27 5.52,-15.89 15.96,-29.6 29.83,-39.13 -15.93,-16.87 -15.15,-43.45 1.71,-59.37 11.78,-11.12 28.89,-14.47 43.99,-8.63 -13,-21.2 8.2,-50 32.7,-54.1 24.5,-4.1 48.6,7.9 70.7,20 -4,-21.2 14.6,-41.3 35.4,-46.9 20.8,-5.6 42.9,-0.6 63.8,4.4 -0.11,-18.07 11.89,-33.97 29.3,-38.8 -16.1,-3.8 -33.6,-8.5 -43.2,-21.9 -9.6,-13.4 -3.4,-37.8 13.1,-38.3"
         style="fill:#040606;fill-opacity:1;fill-rule:nonzero;stroke:none"
         id="path152" /><path
         d="m 6780.01,4493.79 c -2.73,-33.97 -7.97,-67.71 -15.7,-100.9 -1.2,-4.67 0.79,-9.58 4.9,-12.1 15.29,-9.4 32.28,-15.72 50,-18.6 5.77,-1.37 11.62,1.94 13.4,7.6 11.5,30 31.2,67.5 68.4,67.9 32.4,0 41.6,-33 36.6,-59.5 -11.2,-59.4 -80,-97.9 -63.6,-164.3 6.59,-27.8 28.2,-52.6 58.5,-52 l -12.5,16.3 c -20.16,-55.71 6.64,-117.47 61.1,-140.8 12.68,-5.41 26.22,-8.49 40,-9.1 16.5,-0.7 34,7.5 49.09,-0.7 21.68,-13.04 46.09,-20.88 71.31,-22.9 51.79,-2.58 101.45,20.92 132.3,62.6 5.59,7.3 8.49,4.2 16.79,1.6 5.27,-1.63 10.6,-2.96 16.01,-4 13.16,-2.66 26.58,-3.76 40,-3.3 24.72,1.17 48.99,6.93 71.6,17 52.96,22.62 92.73,68.16 108,123.7 l -15.2,-11.6 c 45.71,1.65 88.09,24.36 114.8,61.5 27.39,39.97 33.13,90.94 15.29,136 l -7.39,-18 c 34.91,15.29 60.77,45.91 70,82.9 9.01,40.03 -2.2,81.93 -30,112.1 l 2.5,-19.5 c 50,98.5 10,229.4 -87.1,282.6 l 8.19,-14.2 c 1.41,63.2 -5.29,131.6 -43.89,184.1 -15.81,22.44 -36.72,40.8 -61,53.6 -28.1,14 -56.6,14.9 -87.3,16.5 -14.78,0.07 -29.33,3.7 -42.41,10.6 -11.1,6.83 -21.61,14.59 -31.39,23.2 -21.8,18.2 -44.3,35.2 -73.21,39.5 -29.62,3.57 -59.59,-2.72 -85.29,-17.9 -11.67,-6.58 -22.6,-14.39 -32.61,-23.3 -4.39,-3.8 -10,-12.1 -16.2,-13.1 -6.19,-1 -16.59,5.8 -22.19,8.3 -30,13.7 -62.1,29.3 -96.21,21.5 -28.91,-5.17 -50.95,-28.79 -54.09,-58 l 28.5,12.1 c -66,64.67 -171.91,63.6 -236.58,-2.4 -16.36,-16.68 -29.04,-36.62 -37.22,-58.5 l 27.2,7.2 c -53,44.2 -130,18.1 -157.1,-42.3 -6.5,-14.68 -10.35,-30.38 -11.4,-46.4 0,-5 1.8,-13.9 -2,-17.3 -3.8,-3.4 -14.6,-5.3 -20,-7.6 -29.13,-13.43 -49.76,-40.37 -55.11,-72 -5.23,-36.84 10.71,-73.5 41.2,-94.8 l -3.49,26.9 c -22.65,-23.58 -21.9,-61.05 1.68,-83.71 16.16,-15.52 39.7,-20.59 60.82,-13.09 l -20,25.5 c -13.14,-27.15 -1.78,-59.8 25.36,-72.93 l 1.43,-0.67 c 33.21,-16.2 70,0.5 100,16.3 l -24.29,14 c -1.63,-24.68 12.36,-47.74 35,-57.7 26.79,-13 57.1,-7.1 84.6,0 l -20,15.1 c 0.44,-24.81 17.23,-46.34 41.2,-52.8 v 28.2 c -22.6,-5.9 -50.6,-15.4 -56.6,-41.2 -5.82,-19.3 5.1,-39.67 24.41,-45.48 1.83,-0.55 3.69,-0.96 5.59,-1.22 17.4,-1.9 17.19,25.2 0,27.2 -7.6,0.8 -2.3,16 0,18.8 8.2,9 22.5,11.4 33.8,13.8 14.7,3.2 12.99,24 0,28.1 -10.77,3.3 -17.95,13.45 -17.5,24.7 -0.09,8.78 -7.28,15.83 -16.06,15.74 -1.34,-0.02 -2.66,-0.2 -3.94,-0.54 -23.71,-5.1 -84.4,-15.2 -78.8,27.3 1.7,13 -14.8,19 -24.4,13.9 -17.3,-9 -40.8,-23.1 -61.2,-16.5 -10,3.2 -25.3,16.7 -19,28.4 6.3,11.7 -4.6,30.7 -20,25.5 -23.7,-8.1 -47.01,17.9 -28.9,39.1 6.64,7.02 6.33,18.1 -0.69,24.74 -0.86,0.81 -1.81,1.54 -2.82,2.16 -24.92,18.28 -32.7,52.06 -18.3,79.4 7.21,13.25 18.86,23.52 32.9,29 14.81,5.7 30,10 35.5,27.4 4.41,15.4 1.11,31.9 5.8,47.6 4.27,15.32 12.68,29.16 24.31,40 23.21,21.41 58.34,23.38 83.8,4.7 6.69,-6.26 17.2,-5.92 23.46,0.77 1.71,1.83 2.99,4.03 3.74,6.43 16.46,40.56 51.26,70.87 93.7,81.6 45.48,10.77 93.3,-2.6 126.6,-35.4 6.76,-6.36 17.39,-6.03 23.75,0.73 2.8,2.98 4.41,6.88 4.55,10.97 1.7,20 28.3,28.1 45.19,26.6 28.21,-2.4 52.1,-20 78.21,-29.2 12.11,-4.72 25.72,-3.5 36.79,3.3 11.61,7.3 20,18.3 31.7,26.1 20.72,15.39 46.01,23.35 71.81,22.6 23.9,-1.9 42.6,-16.9 60,-31.6 17.59,-16.67 38.52,-29.42 61.4,-37.4 27.99,-7.9 57.59,-2 85.59,-9.3 23.23,-6.56 44.07,-19.68 60,-37.8 43.91,-47.8 50,-116.5 48.91,-178.3 0,-5.83 3.07,-11.23 8.09,-14.2 81.21,-44.1 117.5,-154.8 75.9,-237.9 -3.66,-6.49 -2.64,-14.62 2.5,-20 33.37,-37.58 29.95,-95.1 -7.63,-128.47 -7.65,-6.79 -16.4,-12.24 -25.86,-16.13 -6.27,-3.62 -9.28,-11.04 -7.3,-18 14.87,-35.55 11.13,-76.17 -10,-108.4 -20.43,-29.56 -53.6,-47.75 -89.5,-49.1 -7.08,-0.14 -13.26,-4.82 -15.3,-11.6 -11.56,-42.66 -40.62,-78.45 -80,-98.5 -19.38,-10.46 -40.68,-16.86 -62.6,-18.8 -9.75,-0.9 -19.56,-0.9 -29.31,0 -12.01,2.16 -23.89,5 -35.59,8.5 -29.3,6.4 -37.9,-20 -55.8,-36.4 -16.44,-14.72 -36.49,-24.8 -58.1,-29.2 -21.53,-4.62 -43.92,-3.38 -64.8,3.6 -11.4,3.9 -20.9,10.9 -31.9,15.8 -14.2,6.3 -26.4,3.3 -41.2,1.3 -29.6,-4.26 -59.29,7.09 -78.51,30 -18.16,23.92 -23.04,55.39 -12.99,83.7 1.87,7.04 -2.31,14.28 -9.36,16.15 -1.09,0.3 -2.22,0.45 -3.34,0.45 -28.5,-1.8 -40,34.4 -35.91,57.7 6.11,34.9 35.21,62.2 51.2,92.7 13.21,25.1 20,57.3 8.51,84.5 -11.5,27.65 -41.63,42.59 -70.61,35 -40,-9 -60.8,-47 -74.1,-82.5 l 13.41,7.6 c -15.88,2.36 -31.14,7.84 -44.9,16.1 l 5,-12.1 c 7.42,35.07 11.57,70.76 12.4,106.6 0,11.3 -16.5,11 -17.4,0 l 0.4,0.5"
         style="fill:#040606;fill-opacity:1;fill-rule:nonzero;stroke:none"
         id="path154" /><path
         d="m 6595.71,4257.59 c -0.69,-0.9 -1.3,-1.88 -1.8,-2.9 -0.45,-1.14 -0.82,-2.31 -1.1,-3.5 -0.52,-1.7 -1.11,-3.37 -1.8,-5 l 1,2.4 c -1.49,-3.57 -3.45,-6.93 -5.8,-10 l 1.7,2.2 c -1.71,-2.3 -3.73,-4.35 -6,-6.1 l 2.4,1.9 -2.5,-1.8 c -1.59,-1.09 -2.99,-2.41 -4.2,-3.9 -2.2,-2.25 -3.45,-5.25 -3.5,-8.4 0.08,-2.6 0.96,-5.11 2.5,-7.2 1.57,-2.02 3.74,-3.49 6.2,-4.2 3.08,-0.71 6.31,-0.28 9.1,1.2 4.14,2.4 7.59,5.85 10,10 1.82,2.72 3.46,5.56 4.9,8.5 1.66,3.59 2.93,7.35 3.79,11.2 0,2.3 0.81,4.6 1.11,6.9 0.09,2.86 -0.61,5.7 -2,8.2 -1.48,2.51 -4.18,4.04 -7.1,4 -2.89,-0.04 -5.57,-1.55 -7.1,-4 l 0.2,0.5"
         style="fill:#040606;fill-opacity:1;fill-rule:nonzero;stroke:none"
         id="path156" /><path
         d="m 3402.61,4045.69 h 2694.7 v -50.4 h -2694.7 v 50.4"
         style="fill:#ffffff;fill-opacity:1;fill-rule:nonzero;stroke:none"
         id="path158" /><path
         d="m 3655.61,4089.89 c 38.33,0 69.4,-31.07 69.4,-69.4 0,-38.33 -31.07,-69.4 -69.4,-69.4 -38.33,0 -69.4,31.07 -69.4,69.4 0,38.33 31.07,69.4 69.4,69.4"
         style="fill:#040606;fill-opacity:1;fill-rule:nonzero;stroke:none"
         id="path160" /><path
         d="m 1783.41,4727.39 c 224.18,133.31 440.88,278.83 649.1,435.9 187,141.1 363.7,302.9 573.7,410 102,52.1 213.2,89.3 328.4,93.1 118.7,3.9 233.5,-30 337.5,-85.7 213.9,-115 370,-304.9 549.1,-463.9 83.5,-74.1 178.9,-157.8 288.1,-190 104.4,-30 188.1,17.4 274.5,70 43.6,26.7 90,53.8 142.4,57.6 50,3.7 99.2,-15.1 144.8,-34.1 88.1,-36.7 176.8,-77.8 270,-31.6 48.8,24.3 90,65.8 144.8,77.6 60,13.1 121.89,-14.2 181.09,-22.2 112.9,-15.1 220,55.4 306.31,120 183.1,136.7 318.9,323.4 487.6,475.8 172.6,155.9 387.2,275.7 626.89,229.2 243.61,-47.3 432.11,-222.3 587.11,-405.4 38.8,-45.8 76.3,-92.7 113.8,-139.5 10,-12.9 28.1,5.3 18.1,18 -148,188.4 -304.4,387.2 -523.5,496.3 -102.3,50.9 -216.2,82.7 -331.2,77.9 -110,-4.5 -214.8,-41.3 -309.31,-95.8 -200.89,-116.1 -344.19,-301.3 -504.09,-464.5 -83.6,-85.4 -173,-166.5 -277,-226.5 -55.4,-32 -114.6,-60.5 -180,-54.5 -58.8,5.4 -115.2,30 -175.1,26.6 -52.8,-3.4 -95,-31.3 -138.1,-59.2 -48.6,-31.4 -96.3,-51.2 -154.8,-39.4 -96.6,19.3 -180.91,88.4 -282.7,84.1 -99.5,-4.3 -173.2,-78.2 -260,-117.4 -123.2,-55.9 -238.6,19.4 -335,93.3 -192.7,147.7 -344,343 -544.6,481.1 -94,64.8 -198.8,117.5 -311.5,140 -106.79,20.26 -216.92,14.12 -320.8,-17.9 -217.1,-64.8 -399.2,-212.3 -573.4,-351.3 -208.87,-166.67 -424.87,-323.33 -648,-470 -53.73,-35.34 -107.93,-69.9 -162.6,-103.7 -3.75,-2.73 -4.57,-7.99 -1.84,-11.74 2.37,-3.25 6.7,-4.36 10.34,-2.66 l -0.1,0.5"
         style="fill:#ffffff;fill-opacity:1;fill-rule:nonzero;stroke:none"
         id="path162" /><path
         d="m 2157.11,6176.09 c 92.95,16.33 188.26,13.34 280,-8.8 5.38,-1.23 10.75,2.13 11.98,7.51 0.33,1.45 0.34,2.95 0.02,4.39 -6.95,23.17 1.52,48.2 21.1,62.4 21.22,13.5 48.85,11.08 67.4,-5.9 4.58,-4.24 11.73,-3.98 15.97,0.61 2.54,2.73 3.56,6.55 2.73,10.19 -14.4,81.8 6.9,182.8 82.5,228.6 87.5,52.9 196.8,8.9 263.7,-56.1 42.3,-41.1 74.5,-90.9 104.4,-141.3 5.6,-9.4 23.7,-9.1 25.5,3.4 7.2,47.5 57.3,76.5 103.1,71.7 54.2,-5.6 95.4,-50.6 119,-96.4 4.13,-6.79 12.99,-8.95 19.79,-4.81 1.96,1.19 3.61,2.85 4.81,4.81 11.4,24.7 38,34.6 63.9,33.4 33.2,-1.5 61.9,-21.2 90.5,-36 5.86,-3.09 13.12,-0.84 16.21,5.01 2.9,5.51 1.12,12.32 -4.11,15.69 -31.1,22.8 -70,44.8 -109.5,43.9 -33,-0.7 -67.2,-16.5 -81.6,-47.6 h 24.6 c -28.8,55.8 -81.1,106.7 -146.9,110.7 -56.2,3.3 -118.1,-34.5 -126.7,-93 l 25.5,3.4 c -56.8,94.6 -128.1,193.2 -240,223.6 -50.78,15.02 -105.32,10.71 -153.1,-12.1 -41.46,-22.48 -73.41,-59.16 -90,-103.3 -19.42,-50.84 -24,-106.16 -13.2,-159.5 l 18.7,10.9 c -25.86,23.57 -64.27,27.01 -93.9,8.4 -27.36,-19.21 -39.13,-53.92 -29.1,-85.8 l 11.9,11.9 c -95.13,21.31 -193.61,22.99 -289.4,4.9 -10,-1.9 -5.5,-16.5 4.1,-14.8 h 0.1"
         style="fill:#ffffff;fill-opacity:1;fill-rule:nonzero;stroke:none"
         id="path164" /><path
         d="m 4464.91,5949.99 c 154.79,3.87 309.67,-0.47 464,-13 6.72,0.34 11.91,6.07 11.57,12.8 -0.1,1.9 -0.64,3.75 -1.57,5.4 -16.2,32.39 -6.79,71.73 22.3,93.3 31.47,19.81 72.75,13.07 96.3,-15.7 7.9,-9.5 22.5,-1.1 23,10 2.8,66 7.19,146.4 65.2,190 62.3,46.4 136.4,0 187.1,-41.3 9.1,-7.6 28.7,-4 26.9,11.1 -8.3,70.8 -17.4,150 23.7,212.5 35,53.6 97,84.4 155.2,105.8 35.9,13.2 73.6,25.3 112.2,25.3 34.16,-0.56 67.42,-10.98 95.8,-30 58.1,-37.3 101,-97.8 133,-157.7 37.86,-71.95 62.14,-150.25 71.6,-231 0.32,-10.32 8.96,-18.43 19.28,-18.1 6.2,0.19 11.9,3.45 15.22,8.7 33.68,44.46 92.63,61.44 144.8,41.7 51.28,-22.59 81.74,-76.07 75,-131.7 -2.7,-18.2 20.8,-31.4 31.5,-13.3 11.44,20.73 35.55,30.97 58.4,24.8 6.87,-1.91 13.99,2.12 15.9,9 1.9,6.87 -2.12,13.99 -9,15.9 -35.33,12.43 -74.57,-0.91 -95,-32.3 l 31.5,-13.3 c 16.08,85.54 -40.23,167.92 -125.77,184 -61.53,11.57 -124.07,-14.37 -159.33,-66.1 l 34.5,-9.3 c -8.75,78.78 -30.72,155.53 -65,227 -33.3,68.2 -80,134.3 -140.6,180 -29.16,22.8 -63.52,38.02 -100,44.3 -43.49,4.96 -87.53,-0.49 -128.5,-15.9 -66.7,-22 -136.9,-53.2 -182.8,-108.5 -60,-72.2 -54.4,-164.4 -43.4,-252.1 l 27,11.2 c -60,48.8 -147.3,99.2 -221.6,46.9 -70,-49.4 -77.1,-139 -80,-217.6 l 22.9,10 c -33.92,41.11 -94.74,46.94 -135.85,13.02 -36.06,-29.75 -45.61,-81.09 -22.65,-121.82 l 10,18.2 c -154.8,7.7 -309.2,9.4 -464,3.7 -4.12,-0.48 -7.06,-4.2 -6.59,-8.32 0.41,-3.45 3.13,-6.18 6.59,-6.58 l 1.2,-1"
         style="fill:#ffffff;fill-opacity:1;fill-rule:nonzero;stroke:none"
         id="path166" /><path
         d="m 6990.01,6298.79 c 63.17,6.75 126.9,6.42 190,-1 7.9,-1 11.2,8.8 8.4,14.6 -4.1,8.4 5,16.3 12.1,18.4 10.04,1.84 20.38,1.02 30,-2.4 16,-5.89 33.37,-7.04 50,-3.3 12.5,3.9 7.19,23.5 -5.4,20 -27.3,-8.4 -54,14.6 -81.9,5.2 -18.26,-5.45 -28.63,-24.68 -23.18,-42.93 0.46,-1.53 1.01,-3.02 1.68,-4.47 l 8.4,14.6 c -63.2,6.52 -126.93,5.95 -190,-1.7 -10,-1.2 -10.7,-17.8 0,-16.7 l -0.1,-0.3"
         style="fill:#ffffff;fill-opacity:1;fill-rule:nonzero;stroke:none"
         id="path168" /><path
         d="m 4634.31,4410.39 v -168.2 c 0.03,-19.72 16.04,-35.68 35.76,-35.64 5.72,0.01 11.36,1.4 16.44,4.04 l 160,84.1 c 17.45,9.17 24.16,30.76 14.98,48.21 -3.36,6.4 -8.58,11.63 -14.98,14.99 l -160,84.1 c -17.39,9.17 -38.93,2.5 -48.09,-14.89 -2.72,-5.15 -4.13,-10.89 -4.11,-16.71"
         style="fill:#ffffff;fill-opacity:1;fill-rule:nonzero;stroke:none"
         id="path170" /><path
         d="m 5166.41,4363.69 v -74.8 c 0.02,-8.78 7.14,-15.89 15.92,-15.88 2.53,0.01 5.03,0.62 7.28,1.78 l 71.3,37.5 c 7.76,4.11 10.72,13.73 6.61,21.5 -1.5,2.81 -3.8,5.11 -6.61,6.6 l -70.9,37.8 c -7.68,4.26 -17.35,1.48 -21.62,-6.2 -1.41,-2.53 -2.09,-5.4 -1.98,-8.3"
         style="fill:#ffffff;fill-opacity:1;fill-rule:nonzero;stroke:none"
         id="path172" /><path
         d="m 5247.81,4362.79 v -73 c 0.01,-8.56 6.96,-15.49 15.53,-15.47 2.5,0 4.96,0.61 7.17,1.77 l 70,36.5 c 7.57,4 10.46,13.38 6.45,20.95 -1.45,2.75 -3.7,5 -6.45,6.45 l -70,36.5 c -7.58,3.97 -16.95,1.05 -20.93,-6.53 -1.15,-2.21 -1.77,-4.67 -1.77,-7.17"
         style="fill:#ffffff;fill-opacity:1;fill-rule:nonzero;stroke:none"
         id="path174" /><path
         d="m 5511.71,4362.79 v -73 c 0.02,-8.56 6.96,-15.49 15.53,-15.47 2.5,0 4.96,0.61 7.17,1.77 l 69.5,36.5 c 7.56,4 10.45,13.38 6.45,20.95 -1.45,2.75 -3.7,5 -6.45,6.45 l -69.5,36.5 c -7.58,3.97 -16.95,1.05 -20.92,-6.53 -1.17,-2.21 -1.78,-4.67 -1.78,-7.17"
         style="fill:#ffffff;fill-opacity:1;fill-rule:nonzero;stroke:none"
         id="path176" /><path
         d="m 5600.41,4378.29 h 35.9 v -104 h -35.9 v 104"
         style="fill:#ffffff;fill-opacity:1;fill-rule:nonzero;stroke:none"
         id="path178" /><path
         d="m 4333.61,4288.89 v 74.8 c 0.33,8.78 -6.52,16.15 -15.3,16.48 -2.89,0.11 -5.77,-0.57 -8.3,-1.98 l -71.3,-37.4 c -7.76,-4.11 -10.72,-13.73 -6.61,-21.49 1.49,-2.82 3.79,-5.12 6.61,-6.61 l 71.3,-37.5 c 7.68,-4.25 17.36,-1.47 21.61,6.21 1.27,2.29 1.95,4.87 1.99,7.49"
         style="fill:#ffffff;fill-opacity:1;fill-rule:nonzero;stroke:none"
         id="path180" /><path
         d="m 4252.21,4289.79 v 73 c -0.01,8.56 -6.97,15.49 -15.53,15.47 -2.5,0 -4.96,-0.61 -7.17,-1.77 l -69.5,-36.5 c -7.57,-4 -10.45,-13.38 -6.45,-20.95 1.45,-2.75 3.7,-5 6.45,-6.45 l 69.5,-36.5 c 7.58,-3.97 16.95,-1.05 20.92,6.53 1.17,2.21 1.78,4.67 1.78,7.17"
         style="fill:#ffffff;fill-opacity:1;fill-rule:nonzero;stroke:none"
         id="path182" /><path
         d="m 3988.31,4289.79 v 73 c -0.01,8.56 -6.97,15.49 -15.53,15.47 -2.5,0 -4.96,-0.61 -7.17,-1.77 l -69.5,-36.5 c -7.57,-4 -10.46,-13.38 -6.45,-20.95 1.45,-2.75 3.7,-5 6.45,-6.45 l 69.5,-36.5 c 7.58,-3.97 16.95,-1.05 20.93,6.53 1.15,2.21 1.77,4.67 1.77,7.17"
         style="fill:#ffffff;fill-opacity:1;fill-rule:nonzero;stroke:none"
         id="path184" /><path
         d="m 3899.71,4274.29 h -35.9 v 104 h 35.9 v -104"
         style="fill:#ffffff;fill-opacity:1;fill-rule:nonzero;stroke:none"
         id="path186" /><path
         d="m 6728.41,3734.49 c -114.8,50 -251.1,23.5 -360,-38 -108.9,-61.5 -196,-154.5 -281.2,-246 l -200,-215 c -36.5,-39.2 -73.6,-78.9 -119.1,-107 -110.9,-68.3 -250.8,-57.4 -381,-54.1 -188.3,4.9 -378.7,-11 -558.7,-66.8 -51.4,-16 -110.9,-47 -112.1,-100.8 -21,20 -58.3,11.1 -76.9,-11.2 -18.6,-22.3 -23.1,-53 -24.8,-82 -2.4,-37.97 -1.5,-76.08 2.7,-113.9 2.6,-24 7.2,-49.2 23.1,-67.3 15.9,-18.1 46.8,-25 64.1,-8.2 -10,-38.8 41.5,-62 80.9,-68.7 l 310,-52.7 c 123.6,-21.1 248.1,-42.3 373.5,-41.2 102.3,0.9 203.9,16.5 305,32.2 82.5,12.7 165.9,25.7 243.7,56.1 67.25,27.7 130.27,64.73 187.2,110 312.4,238.9 487.1,610.6 712.4,932.9"
         style="fill:#040606;fill-opacity:1;fill-rule:nonzero;stroke:none"
         id="path188" /><path
         d="m 6733.21,3742.89 c -137.7,61.5 -295.7,18.6 -415.9,-62.2 -62.94,-43.9 -121.18,-94.16 -173.8,-150 -58.31,-60 -114.6,-121.5 -171.6,-182.5 -30,-32.13 -60,-64.3 -90,-96.5 -25.77,-28.9 -53.25,-56.22 -82.3,-81.8 -57.7,-48.4 -128.4,-71.6 -202.4,-79.1 -74,-7.5 -150,-2.5 -224.3,-1 -83.44,2.07 -166.92,-0.94 -250,-9 -82.55,-7.83 -164.35,-22.25 -244.6,-43.1 -57.6,-15.2 -135.1,-32.9 -166.4,-90 -6.66,-12.31 -10.36,-26 -10.8,-40 l 25.1,10 c -22.45,18.18 -54.04,19.87 -78.3,4.2 -28.3,-16.6 -40.7,-49.1 -45.2,-80 -4.9,-38.34 -5.7,-77.09 -2.4,-115.6 2.4,-34 4.7,-72.5 27,-100 20.9,-25.9 60.7,-34.1 86.7,-11.3 l -23.2,13.2 c -7.6,-35.9 19.4,-60.7 50,-73.8 17.11,-6.97 35.01,-11.81 53.3,-14.4 l 78.7,-13.4 c 102.7,-17.5 205.2,-35.8 308.1,-52.2 102.9,-16.4 204.4,-29.1 307.5,-26.4 103.1,2.7 202.6,18.9 303,34.5 95.4,14.8 190,32.4 278,75 81.1,39.4 154.2,95 221.2,154.9 126.3,113 230,248.7 324.3,388.7 95.9,142.29 183,290 279,432.6 11.7,17.4 23.5,34.6 35.5,51.8 10,14.8 -14,28.9 -24.3,14.1 -94.7,-135.7 -179.4,-277.9 -270,-416.6 -90.6,-138.7 -185.2,-272.8 -301,-390 -58.55,-60.24 -123.16,-114.29 -192.8,-161.3 -37.59,-25.47 -77.62,-47.14 -119.5,-64.7 -43.7,-17.35 -88.93,-30.54 -135.1,-39.4 -46.7,-10 -93.9,-16.5 -141,-23.7 -49.3,-7.6 -98.7,-14.9 -148.3,-20 -99.51,-10.3 -199.86,-9.5 -299.2,2.4 -100,11.6 -198.7,30 -297.7,47.2 l -150,25.5 c -37.9,6.5 -82.9,8.1 -115.7,30.5 -10.6,7.3 -20,17.6 -16.8,31.3 1.9,7.6 -2.72,15.32 -10.33,17.22 -4.73,1.19 -9.75,-0.14 -13.27,-3.52 -10.26,-7.09 -23.84,-7.09 -34.1,0 -12.59,8.8 -21.2,22.2 -24,37.3 -7.66,34.95 -10.66,70.76 -8.9,106.5 0,31.7 -0.5,68.9 15.3,97.5 11.2,20 41.9,40 63.1,20.9 5.99,-5.65 15.41,-5.38 21.06,0.61 2.41,2.56 3.84,5.88 4.04,9.39 3.4,62.1 87.2,83.1 135.2,96.6 78.09,21.71 157.82,36.99 238.4,45.7 80.53,8.64 161.51,12.45 242.5,11.4 73.6,-0.7 147.4,-6.2 221.1,-1.8 70,4.3 140.8,18 201.9,54 66.2,39 116.5,100.7 168.2,156.2 57.53,61.87 115,123.83 172.4,185.9 50.14,55.85 103.77,108.46 160.6,157.5 110.8,92 256.4,160.6 403.3,128.8 17.48,-3.84 34.61,-9.16 51.2,-15.9 10,-4 17.4,13.2 7.4,17.7 l 0.1,0.1"
         style="fill:#040606;fill-opacity:1;fill-rule:nonzero;stroke:none"
         id="path190" /><path
         d="m 4321.81,2835.59 c 7.48,11.01 17.5,20.06 29.2,26.4 12.7,7.8 25.7,15 38.9,21.9 12.98,7.12 26.53,13.18 40.5,18.1 6.89,2.33 13.94,4.17 21.1,5.5 7.6,1.3 15.4,0.89 22.9,2.6 5.3,1.55 8.34,7.09 6.8,12.4 -0.96,3.28 -3.52,5.85 -6.8,6.8 -16.41,1.87 -33.04,-0.33 -48.4,-6.4 -16.24,-5.35 -31.89,-12.36 -46.7,-20.9 -26,-14.7 -57.7,-30 -72.9,-57.4 -2.48,-4.25 -1.05,-9.72 3.2,-12.2 4.25,-2.48 9.72,-1.06 12.2,3.2"
         style="fill:#040606;fill-opacity:1;fill-rule:nonzero;stroke:none"
         id="path192" /><path
         d="m 4333.91,2761.19 c 10.03,14.29 23.03,26.27 38.1,35.1 7.26,4.26 14.93,7.78 22.9,10.5 8.79,2.6 17.74,4.6 26.8,6 4.7,1.45 7.32,6.43 5.87,11.13 -1.13,3.64 -4.46,6.17 -8.27,6.27 -20.23,-1.89 -39.67,-8.77 -56.6,-20 -17.06,-10.55 -31.68,-24.59 -42.9,-41.2 -5.8,-8.7 8.2,-16.7 14.1,-8.2 v 0.4"
         style="fill:#040606;fill-opacity:1;fill-rule:nonzero;stroke:none"
         id="path194" /><path
         d="m 4341.91,2675.69 c 16.35,27.68 46.69,44 78.8,42.4 5.52,0 10,4.47 10,10 0,5.52 -4.48,10 -10,10 -38.83,1.79 -75.17,-19.07 -93.2,-53.5 -2.32,-3.98 -0.98,-9.08 3,-11.4 3.98,-2.32 9.08,-0.98 11.4,3 v -0.5"
         style="fill:#040606;fill-opacity:1;fill-rule:nonzero;stroke:none"
         id="path196" /><path
         d="m 4376.41,2587.29 c 6.94,10.34 15.72,19.32 25.9,26.5 5.25,3.83 10.84,7.18 16.7,10 h 0.9 l 2.4,1 4.6,1.6 c 3.3,1.1 6.7,1.99 10,2.8 5.06,1.55 8.04,6.76 6.8,11.9 -1.5,5.15 -6.8,8.18 -12,6.9 -29.36,-7.2 -54.38,-26.34 -69,-52.8 -1.82,-3.96 -0.08,-8.66 3.88,-10.48 3.44,-1.58 7.52,-0.5 9.72,2.58 h 0.1"
         style="fill:#040606;fill-opacity:1;fill-rule:nonzero;stroke:none"
         id="path198" /><path
         d="m 4481.71,2573.79 1.1,-1.3 -1.2,1.7 c 0.79,-1.13 1.69,-2.16 2.7,-3.1 l 1.5,-1.7 -1.3,1.8 c 0.88,-1.17 1.62,-2.45 2.2,-3.8 l -0.9,2.1 c 0.61,-1.44 1.01,-2.95 1.2,-4.5 v 2.4 c 0.2,-1.52 0.2,-3.08 0,-4.6 v 2.4 c -0.18,-1.31 -0.52,-2.58 -1,-3.8 l 0.9,2.2 c -0.4,-0.99 -0.9,-1.92 -1.5,-2.8 -1.32,-2.19 -1.69,-4.84 -1,-7.3 1.99,-5.15 7.78,-7.71 12.93,-5.73 1.79,0.69 3.34,1.88 4.47,3.43 3.44,6.09 4.13,13.37 1.9,20 -1.13,3.68 -3,7.08 -5.5,10 -1.31,1.28 -2.71,2.44 -4.2,3.5 -2.09,1.26 -4.46,1.96 -6.9,2 -1.37,-0.02 -2.72,-0.4 -3.9,-1.1 -1.38,-0.83 -2.44,-2.1 -3,-3.6 -1.18,-2.78 -0.59,-6.01 1.5,-8.2"
         style="fill:#040606;fill-opacity:1;fill-rule:nonzero;stroke:none"
         id="path200" /><path
         d="m 4505.41,2997.09 c 67.2,12.4 121.4,-42.9 144.7,-100 1.93,-6.33 8.46,-10.06 14.9,-8.5 6.45,1.73 10.28,8.37 8.55,14.82 l -0.05,0.18 c -13.22,34.83 -36.04,65.2 -65.8,87.6 -30.61,22.32 -69.54,29.94 -106.3,20.8 -10,-2.6 -5.5,-16.5 4,-14.8 v -0.1"
         style="fill:#040606;fill-opacity:1;fill-rule:nonzero;stroke:none"
         id="path202" /><path
         d="m 2871.01,3664.39 c 31.66,-6.29 63.93,-9.01 96.2,-8.1 11.2,0 11.2,17.8 0,17.4 -31.5,-0.67 -63,1.17 -94.2,5.5 -8.4,1.1 -10,-13 -2,-14.8"
         style="fill:#ffffff;fill-opacity:1;fill-rule:nonzero;stroke:none"
         id="path204" /><path
         d="m 5830.01,2992.69 c -8.74,-51.74 4.92,-104.74 37.6,-145.8 3.65,-3.54 9.45,-3.54 13.1,0 3.25,3.76 3.25,9.34 0,13.1 -28.89,36.06 -41.67,82.43 -35.3,128.2 1.5,10 -14.2,14.9 -15.9,4.4 l 0.5,0.1"
         style="fill:#ffffff;fill-opacity:1;fill-rule:nonzero;stroke:none"
         id="path206" /><path
         d="m 5912.91,3019.69 c 2.23,-38.73 14.45,-76.22 35.5,-108.81 6.2,-9.49 21.6,0 15.2,8.91 -20.33,29.7 -32.62,64.14 -35.7,100 -0.8,10 -15.6,10 -15,0 v -0.1"
         style="fill:#ffffff;fill-opacity:1;fill-rule:nonzero;stroke:none"
         id="path208" /><path
         d="m 6723.51,3755.59 c 39.8,-0.99 79.49,4.72 117.4,16.9 40,10.8 79.29,21.7 118.7,33.6 39.4,11.9 77.9,24.8 116.1,39.5 38.2,14.7 75.8,29.5 116.5,32 10,0.6 10,16.8 0,16.2 -38.69,-3.89 -76.55,-13.77 -112.2,-29.3 -38.1,-14.6 -76.5,-28.1 -115.5,-40 -39,-11.9 -79.1,-23 -118.8,-34 -39.7,-11 -80,-21.6 -122.2,-18.8 -10,0.7 -10,-15.3 0,-16 v -0.1"
         style="fill:#ffffff;fill-opacity:1;fill-rule:nonzero;stroke:none"
         id="path210" /></g></g></svg>
