<svg id="Capa_1" enable-background="new 0 0 512 512" height="512" viewBox="0 0 512 512" width="512" xmlns="http://www.w3.org/2000/svg"><g><path d="m455.84 169.06c-5.71-13.66-19.37-23.28-35.04-23.34-24.53-.09-47.13-8.48-65.15-22.51-25.13-19.57-41.33-50.1-41.33-84.35 0-5.08-1.02-9.92-2.85-14.34-4.96-11.96-15.92-20.8-29.13-22.75-3.31-.52-6.76-.61-10.3-.19-1.86.22-3.66.58-5.42 1.07-16.19 4.46-27.62 19.64-27.62 36.89v339.68c0 30.61-24.37 56.12-54.97 56.46-10.6.12-20.53-2.76-29.01-7.82-16.27-9.71-27.19-27.48-27.19-47.77 0-24.34 16.25-46.23 39.52-53.24 19.83-5.97 31.07-26.89 25.09-46.72-.36-1.21-.78-2.38-1.26-3.52-7.26-17.61-26.84-27.18-45.47-21.57-26.32 7.93-49.96 24.42-66.58 46.44-17.21 22.8-26.3 49.99-26.3 78.61 0 40.72 18.74 77.15 48.04 101.11 22.51 18.41 51.26 29.48 82.54 29.48 31.59 0 60.59-11.28 83.2-30.02 28.8-23.87 47.22-59.84 47.38-100.05 0-.09.01-.17.01-.26v-194.66c29.84 21.84 66.54 34.83 106.21 35.03 19.47.1 36.33-14.38 38.28-33.76.64-6.38-.38-12.45-2.65-17.9z"/></g></svg>