<?xml version="1.0" encoding="UTF-8" standalone="no"?>
<svg
   xmlns:dc="http://purl.org/dc/elements/1.1/"
   xmlns:cc="http://creativecommons.org/ns#"
   xmlns:rdf="http://www.w3.org/1999/02/22-rdf-syntax-ns#"
   xmlns:svg="http://www.w3.org/2000/svg"
   xmlns="http://www.w3.org/2000/svg"
   xmlns:sodipodi="http://sodipodi.sourceforge.net/DTD/sodipodi-0.dtd"
   xmlns:inkscape="http://www.inkscape.org/namespaces/inkscape"
   version="1.1"
   id="svg2"
   xml:space="preserve"
   width="223.82668"
   height="248.24001"
   viewBox="0 0 223.82668 248.24001"
   sodipodi:docname="tvshow.eps"><metadata
     id="metadata8"><rdf:RDF><cc:Work
         rdf:about=""><dc:format>image/svg+xml</dc:format><dc:type
           rdf:resource="http://purl.org/dc/dcmitype/StillImage" /></cc:Work></rdf:RDF></metadata><defs
     id="defs6" /><sodipodi:namedview
     pagecolor="#ffffff"
     bordercolor="#666666"
     borderopacity="1"
     objecttolerance="10"
     gridtolerance="10"
     guidetolerance="10"
     inkscape:pageopacity="0"
     inkscape:pageshadow="2"
     inkscape:window-width="640"
     inkscape:window-height="480"
     id="namedview4" /><g
     id="g10"
     inkscape:groupmode="layer"
     inkscape:label="ink_ext_XXXXXX"
     transform="matrix(1.3333333,0,0,-1.3333333,0,248.24)"><g
       id="g12"
       transform="scale(0.1)"><path
         d="m 597.699,1141.83 c -10.109,76.46 -81.719,129.01 -167.558,127.16 -84.411,-1.81 -152.457,-55.62 -159,-127.16 107.828,0 215.523,0 326.558,0 z m 252.227,-51.69 c -213.285,0 -426.571,0.21 -639.86,-0.09 C 105.215,1089.9 48.793,1034.18 48.6563,930.289 48.3438,687 48.3555,443.719 48.7734,200.441 48.9609,95.9805 104.91,40.4219 209.625,40.3594 c 421.57,-0.1875 843.155,-0.1992 1264.725,0.039 108.31,0.0704 163.76,54.9336 163.92,162.2426 0.36,241.609 0.36,483.23 -0.01,724.839 -0.17,107.73 -55.55,162.52 -163.46,162.62 -208.29,0.19 -416.58,0.05 -624.874,0.04 z m -627.309,43.08 c 17.016,112.02 91.871,158.25 191.52,177.27 3.515,18.54 -11.477,26.85 -19.918,37.39 -111.5,139.06 -223.559,277.68 -335.5198,416.39 -13.5664,16.8 -27.625,32.68 -45.332,45.96 -17.93751,13.47 -18.05079,32.64 1.0351,45.77 16.1211,11.09 32.2266,5.85 42.5704,-11.16 77.2223,-127.03 182.1443,-232.56 271.5663,-350.12 35.16,-46.23 73.043,-90.39 115.531,-142.7 32.868,47.57 63.868,89.55 91.676,133.54 25.609,40.53 60.461,75.44 75.469,122.58 4.351,13.67 13.363,22.86 29.172,22.69 13.074,-0.15 22.922,-6.04 26.886,-18.25 4.532,-13.96 -1.687,-24.13 -11.707,-35.24 -72.543,-80.45 -123.453,-176.04 -189.558,-266.87 94.422,-26.68 167.347,-70.16 177.547,-174.23 17.797,-10.58 36.539,-5.69 54.336,-5.72 259.957,-0.36 519.919,-0.08 779.879,-0.32 127.6,-0.11 200.55,-73.6 200.69,-202.173 0.28,-241.629 0.4,-483.246 0.09,-724.879 C 1678.37,72.4609 1605.28,0.171875 1473.35,0.109375 1053.42,-0.0703125 633.5,-0.03125 213.574,0.230469 79.4023,0.300781 8.48047,72.4883 8.42578,207.988 8.33984,439.621 8.51953,671.25 8.31641,902.879 8.17188,1059.69 63.3281,1120.28 222.617,1133.22"
         style="fill:#040606;fill-opacity:1;fill-rule:nonzero;stroke:none"
         id="path14" /><path
         d="m 1398.27,100.051 c 54.83,0 109.67,-0.0705 164.52,0.051 15.05,0.039 33.23,-0.6723 33.47,19.878 0.25,20.782 -17.97,20.211 -33.02,20.231 -109.69,0.121 -219.37,0.141 -329.05,0.09 -15.05,-0.012 -33.27,0.75 -33.49,-19.813 -0.24,-20.6677 17.95,-20.218 33.04,-20.25 54.84,-0.129 109.68,-0.047 164.53,-0.187 z m 0.83,90.14 c 54.79,0 109.6,-0.082 164.39,0.059 15.15,0.031 33.32,-0.18 32.71,20.539 -0.62,20.313 -18.86,19.43 -33.9,19.441 -109.61,0.051 -219.21,0.059 -328.81,-0.031 -15.12,-0.019 -33.28,0.18 -32.67,-20.57 0.61,-20.359 18.87,-19.469 33.87,-19.508 54.8,-0.121 109.6,-0.051 164.41,0.07 z m -0.62,99.879 c 54.84,0 109.67,-0.09 164.5,0.051 15.09,0.039 33.23,-0.422 33.24,20.149 0.01,20.718 -18.24,19.941 -33.27,19.96 -109.66,0.09 -219.32,0.09 -328.99,0.032 -15.08,0 -33.28,0.648 -33.25,-19.992 0.02,-20.551 18.19,-20 33.28,-20.032 54.82,-0.117 109.66,-0.047 164.49,-0.168 z m 3.21,110.11 c 53.14,0 106.27,-0.071 159.41,0.039 14.86,0.031 33.33,-1.719 35,18.301 1.74,20.781 -16.09,21.671 -31.5,21.679 -111.25,0.082 -222.49,0.031 -333.74,0.039 -13.87,0 -29.2,-1.379 -30.11,-18.297 -1.13,-20.902 16.19,-21.703 31.59,-21.742 56.44,-0.14 112.9,-0.058 169.35,-0.019 z m 196.85,378.511 c 0,59.879 1.26,119.782 -0.37,179.61 -1.53,55.839 -35.69,90.439 -90.88,91.619 -71.48,1.54 -143.04,1.42 -214.53,0.03 -59.09,-1.15 -93.32,-34.66 -93.96,-93.563 -1.27,-118.067 -1.28,-236.168 0.1,-354.239 0.66,-55.949 34.99,-90.207 90.72,-91.5 71.48,-1.668 143.04,-1.437 214.53,-0.117 58.97,1.078 92.64,34.77 94.02,93.539 1.37,58.18 0.3,116.418 0.37,174.621 z M 623.633,90.1602 c 144.82,0 289.644,-0.2891 434.457,0.1211 65.33,0.1875 90.23,25.1407 90.31,90.7067 0.31,259.684 0.33,519.352 -0.01,779.028 -0.07,65.504 -24.96,90.094 -90.72,90.154 -289.643,0.26 -579.283,0.27 -868.92,-0.02 -65.742,-0.06 -90.1523,-24.63 -90.2266,-90.568 -0.2812,-259.684 -0.332,-519.352 0.0118,-779.031 0.0859,-65.5 25.1638,-90.1799 90.6408,-90.3205 144.816,-0.3399 289.637,-0.1094 434.457,-0.0703 z M 849.926,1090.15 c 208.294,0 416.584,0.14 624.874,-0.05 107.91,-0.1 163.29,-54.89 163.46,-162.62 0.37,-241.609 0.37,-483.23 0.01,-724.839 C 1638.11,95.332 1582.66,40.4688 1474.35,40.3984 1052.78,40.1602 631.195,40.1719 209.625,40.3594 104.91,40.4219 48.9609,95.9805 48.7734,200.441 48.3555,443.719 48.3438,687 48.6563,930.289 48.793,1034.18 105.215,1089.9 210.066,1090.05 c 213.289,0.3 426.575,0.09 639.86,0.1"
         style="fill:#fefefe;fill-opacity:1;fill-rule:nonzero;stroke:none"
         id="path16" /><path
         d="m 597.699,1141.83 c -111.035,0 -218.73,0 -326.558,0 6.543,71.54 74.589,125.35 159,127.16 85.839,1.85 157.449,-50.7 167.558,-127.16"
         style="fill:#fefefe;fill-opacity:1;fill-rule:nonzero;stroke:none"
         id="path18" /><path
         d="m 620.801,130.289 c 144.812,0 289.633,0.762 434.439,-0.508 38,-0.34 53.84,12.5 53.68,52.028 -1.02,258 -1.13,516 0.11,774 0.2,41.738 -15.59,54.981 -56.06,54.831 -286.294,-1.07 -572.599,-1.04 -858.892,0.11 -40.41,0.16 -56.375,-12.781 -56.172,-54.637 1.254,-256.324 1.379,-512.672 -0.093,-769.004 -0.254,-44.027 15.57,-58 58.539,-57.418 141.461,1.899 282.964,0.707 424.449,0.598 z m 2.832,-40.1484 c -144.82,-0.0195 -289.641,-0.25 -434.457,0.0899 -65.477,0.1406 -90.5549,24.8205 -90.6408,90.3205 -0.3438,259.679 -0.293,519.347 -0.0118,779.031 0.0743,65.938 24.4846,90.508 90.2266,90.568 289.637,0.29 579.277,0.28 868.92,0.02 65.76,-0.06 90.65,-24.65 90.72,-90.154 0.34,-259.676 0.32,-519.344 0.01,-779.028 -0.08,-65.566 -24.98,-90.5192 -90.31,-90.7067 C 913.277,89.8711 768.453,90.1602 623.633,90.1406"
         style="fill:#040606;fill-opacity:1;fill-rule:nonzero;stroke:none"
         id="path20" /><path
         d="m 1558.38,781.43 c 0,56.55 -0.09,113.101 0.03,169.656 0.08,38.555 -18.2,58.944 -57.48,58.954 -68.19,0.02 -136.39,0.07 -204.59,-0.03 -39.04,-0.06 -57.76,-20.197 -57.74,-58.858 0.06,-113.101 0.2,-226.211 -0.13,-339.312 -0.13,-40.891 18.5,-61.84 60.24,-61.629 66.53,0.328 133.06,0.301 199.6,0.008 41.62,-0.188 60.58,20.472 60.21,61.551 -0.51,56.55 -0.13,113.101 -0.14,169.66 z m 40.12,-2.739 c -0.03,-58.203 1.04,-116.441 -0.33,-174.621 -1.38,-58.769 -35.05,-92.461 -94.02,-93.539 -71.49,-1.32 -143.05,-1.551 -214.53,0.117 -55.73,1.293 -90.06,35.551 -90.72,91.5 -1.38,118.071 -1.37,236.172 -0.1,354.239 0.64,58.903 34.87,92.413 93.96,93.563 71.49,1.39 143.05,1.51 214.53,-0.03 55.19,-1.18 89.35,-35.78 90.88,-91.619 1.63,-59.828 0.37,-119.731 0.33,-179.61"
         style="fill:#040606;fill-opacity:1;fill-rule:nonzero;stroke:none"
         id="path22" /><path
         d="m 1401.69,400.16 c -56.45,-0.019 -112.91,-0.101 -169.35,0.039 -15.4,0.039 -32.72,0.84 -31.59,21.742 0.91,16.918 16.24,18.297 30.11,18.297 111.25,-0.008 222.49,0.043 333.74,-0.039 15.41,-0.008 33.24,-0.898 31.5,-21.679 -1.67,-20.02 -20.14,-18.27 -35,-18.301 -53.14,-0.11 -106.27,-0.039 -159.41,-0.059"
         style="fill:#040606;fill-opacity:1;fill-rule:nonzero;stroke:none"
         id="path24" /><path
         d="m 1398.48,290.129 c -54.83,0.062 -109.67,-0.008 -164.49,0.109 -15.09,0.032 -33.26,-0.519 -33.28,20.032 -0.03,20.64 18.17,19.992 33.25,19.992 109.67,0.058 219.33,0.058 328.99,-0.032 15.03,-0.019 33.28,0.758 33.27,-19.96 -0.01,-20.571 -18.15,-20.11 -33.24,-20.149 -54.83,-0.141 -109.66,-0.051 -164.5,0.008"
         style="fill:#040606;fill-opacity:1;fill-rule:nonzero;stroke:none"
         id="path26" /><path
         d="m 1399.1,190.129 c -54.81,-0.059 -109.61,-0.129 -164.41,-0.008 -15,0.039 -33.26,-0.851 -33.87,19.508 -0.61,20.75 17.55,20.551 32.67,20.57 109.6,0.09 219.2,0.082 328.81,0.031 15.04,-0.011 33.28,0.872 33.9,-19.441 0.61,-20.719 -17.56,-20.508 -32.71,-20.539 -54.79,-0.141 -109.6,-0.059 -164.39,-0.121"
         style="fill:#040606;fill-opacity:1;fill-rule:nonzero;stroke:none"
         id="path28" /><path
         d="m 1398.27,100.121 c -54.85,0.07 -109.69,-0.012 -164.53,0.117 -15.09,0.032 -33.28,-0.4177 -33.04,20.25 0.22,20.563 18.44,19.801 33.49,19.813 109.68,0.051 219.36,0.031 329.05,-0.09 15.05,-0.02 33.27,0.551 33.02,-20.231 -0.24,-20.5503 -18.42,-19.839 -33.47,-19.878 -54.85,-0.1215 -109.69,-0.051 -164.52,0.019"
         style="fill:#040606;fill-opacity:1;fill-rule:nonzero;stroke:none"
         id="path30" /><path
         d="m 618.457,960.262 c -96.633,0 -193.273,0.668 -289.894,-0.192 -92.754,-0.832 -149.43,-57.172 -149.911,-149.898 -0.839,-163.274 -0.843,-326.563 -0.121,-489.832 0.403,-92.258 57.485,-149.539 150.004,-149.918 193.262,-0.813 386.528,-0.832 579.789,-0.012 92.546,0.399 149.426,57.352 149.946,149.942 0.92,163.269 1.01,326.558 0.1,489.828 -0.51,92.66 -57.49,149.054 -150.026,149.886 -96.621,0.872 -193.254,0.196 -289.887,0.196 z m 2.344,-829.91 c -141.485,0.046 -282.988,1.238 -424.449,-0.661 -42.969,-0.582 -58.793,13.391 -58.539,57.418 1.472,256.332 1.347,512.68 0.093,769.004 -0.203,41.856 15.762,54.797 56.172,54.637 286.293,-1.15 572.598,-1.18 858.892,-0.11 40.47,0.15 56.26,-13.093 56.06,-54.831 -1.24,-258 -1.13,-516 -0.11,-774 0.16,-39.528 -15.68,-52.368 -53.68,-52.028 -144.806,1.27 -289.627,0.508 -434.439,0.571"
         style="fill:#fefefe;fill-opacity:1;fill-rule:nonzero;stroke:none"
         id="path32" /><path
         d="m 1266,854.27 c 0.1,-73.782 59.44,-133.59 132.21,-133.239 73.21,0.36 131.84,59.91 131.89,133.949 0.04,73.415 -59.9,133.731 -132.52,133.348 C 1324.34,987.938 1265.9,928.395 1266,854.27 Z m 292.38,-72.84 c 0.01,-56.559 -0.37,-113.11 0.14,-169.66 0.37,-41.079 -18.59,-61.739 -60.21,-61.551 -66.54,0.293 -133.07,0.32 -199.6,-0.008 -41.74,-0.211 -60.37,20.738 -60.24,61.629 0.33,113.101 0.19,226.211 0.13,339.312 -0.02,38.661 18.7,58.798 57.74,58.858 68.2,0.1 136.4,0.05 204.59,0.03 39.28,-0.01 57.56,-20.399 57.48,-58.954 -0.12,-56.555 -0.03,-113.106 -0.03,-169.656"
         style="fill:#fefefe;fill-opacity:1;fill-rule:nonzero;stroke:none"
         id="path34" /><path
         d="m 618.266,920.133 c -93.176,0 -186.356,0.199 -279.532,-0.059 -82.406,-0.234 -119.906,-36.773 -120.082,-117.836 -0.336,-158.066 -0.293,-316.136 0.039,-474.199 0.164,-78.687 37.649,-117.348 115.434,-117.57 189.684,-0.52 379.367,-0.379 569.055,0.062 77.578,0.168 114.83,38.528 115.01,117.758 0.36,156.41 0.33,312.813 0.13,469.223 -0.1,85.804 -35.961,122.261 -120.523,122.57 -93.172,0.336 -186.352,0.07 -279.531,0.051 z m 0.191,40.129 c 96.633,0 193.266,0.676 289.887,-0.196 92.536,-0.832 149.516,-57.226 150.026,-149.886 0.91,-163.27 0.82,-326.559 -0.1,-489.828 -0.52,-92.59 -57.4,-149.543 -149.946,-149.942 -193.261,-0.82 -386.527,-0.801 -579.789,0.012 -92.519,0.379 -149.601,57.66 -150.004,149.918 -0.722,163.269 -0.718,326.558 0.121,489.832 0.481,92.726 57.157,149.066 149.911,149.898 96.621,0.86 193.261,0.192 289.894,0.192"
         style="fill:#040606;fill-opacity:1;fill-rule:nonzero;stroke:none"
         id="path36" /><path
         d="m 1411.56,940.082 c 9.91,-26.535 6.48,-49.363 6.77,-71.941 0.17,-12.582 -3.72,-24.602 -17.55,-25.852 -17.34,-1.559 -22.02,11.492 -22.18,26.109 -0.28,23.653 -0.07,47.313 -0.07,73.438 -60.16,-22.547 -81.25,-58.961 -70.03,-109.727 9.36,-42.289 52.81,-74.218 95.93,-70.468 46.61,4.05 82.94,41.847 85.09,88.531 2.25,48.906 -22.28,79.141 -77.96,89.91 z M 1266,854.27 c -0.1,74.125 58.34,133.668 131.58,134.058 72.62,0.383 132.56,-59.933 132.52,-133.348 -0.05,-74.039 -58.68,-133.589 -131.89,-133.949 C 1325.44,720.68 1266.1,780.488 1266,854.27"
         style="fill:#040606;fill-opacity:1;fill-rule:nonzero;stroke:none"
         id="path38" /><path
         d="m 618.266,920.145 c 93.179,0.007 186.359,0.273 279.531,-0.063 84.562,-0.309 120.423,-36.766 120.523,-122.57 0.2,-156.41 0.23,-312.813 -0.13,-469.223 -0.18,-79.23 -37.432,-117.59 -115.01,-117.758 -189.688,-0.441 -379.371,-0.582 -569.055,-0.062 -77.785,0.222 -115.27,38.883 -115.434,117.57 -0.332,158.063 -0.375,316.133 -0.039,474.199 0.176,81.063 37.676,117.602 120.082,117.836 93.176,0.258 186.356,0.059 279.532,0.071"
         style="fill:#fefefe;fill-opacity:1;fill-rule:nonzero;stroke:none"
         id="path40" /><path
         d="m 1411.56,940.082 c 55.68,-10.769 80.21,-41.004 77.96,-89.91 -2.15,-46.684 -38.48,-84.481 -85.09,-88.531 -43.12,-3.75 -86.57,28.179 -95.93,70.468 -11.22,50.766 9.87,87.18 70.03,109.727 0,-26.125 -0.21,-49.785 0.07,-73.438 0.16,-14.617 4.84,-27.668 22.18,-26.109 13.83,1.25 17.72,13.27 17.55,25.852 -0.29,22.578 3.14,45.406 -6.77,71.941"
         style="fill:#fefefe;fill-opacity:1;fill-rule:nonzero;stroke:none"
         id="path42" /></g></g></svg>
