<?xml version="1.0" encoding="UTF-8" standalone="no"?>
<svg
   xmlns:dc="http://purl.org/dc/elements/1.1/"
   xmlns:cc="http://creativecommons.org/ns#"
   xmlns:rdf="http://www.w3.org/1999/02/22-rdf-syntax-ns#"
   xmlns:svg="http://www.w3.org/2000/svg"
   xmlns="http://www.w3.org/2000/svg"
   xmlns:sodipodi="http://sodipodi.sourceforge.net/DTD/sodipodi-0.dtd"
   xmlns:inkscape="http://www.inkscape.org/namespaces/inkscape"
   version="1.1"
   id="svg2"
   xml:space="preserve"
   width="283.85333"
   height="223.39999"
   viewBox="0 0 283.85333 223.39999"
   sodipodi:docname="seen.eps"><metadata
     id="metadata8"><rdf:RDF><cc:Work
         rdf:about=""><dc:format>image/svg+xml</dc:format><dc:type
           rdf:resource="http://purl.org/dc/dcmitype/StillImage" /></cc:Work></rdf:RDF></metadata><defs
     id="defs6" /><sodipodi:namedview
     pagecolor="#ffffff"
     bordercolor="#666666"
     borderopacity="1"
     objecttolerance="10"
     gridtolerance="10"
     guidetolerance="10"
     inkscape:pageopacity="0"
     inkscape:pageshadow="2"
     inkscape:window-width="640"
     inkscape:window-height="480"
     id="namedview4" /><g
     id="g10"
     inkscape:groupmode="layer"
     inkscape:label="ink_ext_XXXXXX"
     transform="matrix(1.3333333,0,0,-1.3333333,0,223.4)"><g
       id="g12"
       transform="scale(0.1)"><path
         d="M 1024.73,1128.96 C 1032.98,792.809 1344.72,573.102 1616.47,647.781 1675.3,481.121 1581.5,242.41 1405.69,111.41 1208.04,-35.8711 937.34,-37.2617 734.859,107.98 535.406,251.039 451.23,512.738 529.352,746.883 601.773,963.938 819.227,1132.88 1024.73,1128.96"
         style="fill:#ffffff;fill-opacity:1;fill-rule:nonzero;stroke:none"
         id="path14" /><path
         d="m 988.664,1675.52 c 557.026,0.86 984.126,-310.97 1129.316,-769.528 4,-12.656 8.93,-25.379 10.39,-38.414 3.15,-28.004 -7.68,-49.691 -36.12,-57.332 -27.04,-7.266 -50.38,0.883 -62.5,27.426 -9.6,21.031 -15.75,43.629 -23.47,65.519 -143.41,406.799 -529.26,673.739 -963.5,666.579 -421.577,-6.95 -798.444,-288.41 -928.995,-693.817 -3.055,-9.484 -5.98,-19.015 -9.277,-28.422 C 93.4727,816.043 71.2617,801.379 38.7891,810.027 5.57813,818.871 -6.33203,844.145 3.15625,875.746 16.4961,920.188 29.6484,965.289 49.1758,1007.17 250.059,1437.98 593.863,1652.94 988.664,1675.52"
         style="fill:#ffffff;fill-opacity:1;fill-rule:nonzero;stroke:none"
         id="path16" /></g></g></svg>
